<mxfile host="app.diagrams.net" modified="2023-10-31T09:08:07.561Z" agent="Mozilla/5.0 (Windows NT 10.0; Win64; x64) AppleWebKit/537.36 (KHTML, like Gecko) Chrome/118.0.0.0 Safari/537.36" etag="9BgBHUttGBdmgiWCjfym" version="22.0.8" type="device">
  <diagram name="Seite-1" id="MQ4kX_gkN1eKJVH4a0W8">
    <mxGraphModel dx="1290" dy="542" grid="1" gridSize="10" guides="1" tooltips="1" connect="1" arrows="1" fold="1" page="1" pageScale="1" pageWidth="827" pageHeight="1169" math="0" shadow="0">
      <root>
        <mxCell id="0" />
        <mxCell id="1" parent="0" />
        <mxCell id="GBQWndS0z4S2nc0Ehahh-1" value="1" style="ellipse;whiteSpace=wrap;html=1;aspect=fixed;fillColor=#FF0303;" parent="1" vertex="1">
          <mxGeometry x="150" y="130" width="40" height="40" as="geometry" />
        </mxCell>
        <mxCell id="GBQWndS0z4S2nc0Ehahh-2" value="2" style="ellipse;whiteSpace=wrap;html=1;aspect=fixed;fillColor=#FF8317;" parent="1" vertex="1">
          <mxGeometry x="300" y="140" width="40" height="40" as="geometry" />
        </mxCell>
        <mxCell id="GBQWndS0z4S2nc0Ehahh-3" value="3" style="ellipse;whiteSpace=wrap;html=1;aspect=fixed;fillColor=#39FF08;" parent="1" vertex="1">
          <mxGeometry x="90" y="300" width="40" height="40" as="geometry" />
        </mxCell>
        <mxCell id="GBQWndS0z4S2nc0Ehahh-4" value="4" style="ellipse;whiteSpace=wrap;html=1;aspect=fixed;fillColor=#0313FF;" parent="1" vertex="1">
          <mxGeometry x="240" y="110" width="40" height="40" as="geometry" />
        </mxCell>
        <mxCell id="GBQWndS0z4S2nc0Ehahh-5" value="5" style="ellipse;whiteSpace=wrap;html=1;aspect=fixed;fillColor=#FF9419;" parent="1" vertex="1">
          <mxGeometry x="410" y="300" width="40" height="40" as="geometry" />
        </mxCell>
        <mxCell id="GBQWndS0z4S2nc0Ehahh-6" value="6" style="ellipse;whiteSpace=wrap;html=1;aspect=fixed;fillColor=#1008FF;" parent="1" vertex="1">
          <mxGeometry x="270" y="220" width="40" height="40" as="geometry" />
        </mxCell>
        <mxCell id="GBQWndS0z4S2nc0Ehahh-7" value="7" style="ellipse;whiteSpace=wrap;html=1;aspect=fixed;fillColor=#FFE11C;" parent="1" vertex="1">
          <mxGeometry x="374" y="180" width="40" height="40" as="geometry" />
        </mxCell>
        <mxCell id="GBQWndS0z4S2nc0Ehahh-8" value="8" style="ellipse;whiteSpace=wrap;html=1;aspect=fixed;fillColor=#53FF14;" parent="1" vertex="1">
          <mxGeometry x="240" y="370" width="40" height="40" as="geometry" />
        </mxCell>
        <mxCell id="GBQWndS0z4S2nc0Ehahh-9" value="9" style="ellipse;whiteSpace=wrap;html=1;aspect=fixed;fillColor=#7626FF;" parent="1" vertex="1">
          <mxGeometry x="440" y="120" width="40" height="40" as="geometry" />
        </mxCell>
        <mxCell id="GBQWndS0z4S2nc0Ehahh-10" value="" style="endArrow=none;html=1;rounded=0;exitX=0;exitY=1;exitDx=0;exitDy=0;entryX=0.5;entryY=0;entryDx=0;entryDy=0;" parent="1" source="GBQWndS0z4S2nc0Ehahh-1" target="GBQWndS0z4S2nc0Ehahh-3" edge="1">
          <mxGeometry width="50" height="50" relative="1" as="geometry">
            <mxPoint x="390" y="310" as="sourcePoint" />
            <mxPoint x="440" y="260" as="targetPoint" />
          </mxGeometry>
        </mxCell>
        <mxCell id="GBQWndS0z4S2nc0Ehahh-12" value="" style="endArrow=none;html=1;rounded=0;exitX=1;exitY=0.5;exitDx=0;exitDy=0;entryX=0;entryY=0;entryDx=0;entryDy=0;" parent="1" source="GBQWndS0z4S2nc0Ehahh-1" target="GBQWndS0z4S2nc0Ehahh-4" edge="1">
          <mxGeometry width="50" height="50" relative="1" as="geometry">
            <mxPoint x="166" y="174" as="sourcePoint" />
            <mxPoint x="120" y="310" as="targetPoint" />
          </mxGeometry>
        </mxCell>
        <mxCell id="GBQWndS0z4S2nc0Ehahh-15" value="" style="endArrow=none;html=1;rounded=0;exitX=1;exitY=1;exitDx=0;exitDy=0;entryX=0;entryY=0;entryDx=0;entryDy=0;" parent="1" source="GBQWndS0z4S2nc0Ehahh-1" target="GBQWndS0z4S2nc0Ehahh-6" edge="1">
          <mxGeometry width="50" height="50" relative="1" as="geometry">
            <mxPoint x="176" y="184" as="sourcePoint" />
            <mxPoint x="130" y="320" as="targetPoint" />
          </mxGeometry>
        </mxCell>
        <mxCell id="GBQWndS0z4S2nc0Ehahh-16" value="" style="endArrow=none;html=1;rounded=0;exitX=0.5;exitY=1;exitDx=0;exitDy=0;entryX=0.5;entryY=0;entryDx=0;entryDy=0;" parent="1" source="GBQWndS0z4S2nc0Ehahh-1" target="GBQWndS0z4S2nc0Ehahh-8" edge="1">
          <mxGeometry width="50" height="50" relative="1" as="geometry">
            <mxPoint x="186" y="194" as="sourcePoint" />
            <mxPoint x="140" y="330" as="targetPoint" />
          </mxGeometry>
        </mxCell>
        <mxCell id="GBQWndS0z4S2nc0Ehahh-17" value="" style="endArrow=none;html=1;rounded=0;exitX=0.5;exitY=1;exitDx=0;exitDy=0;entryX=0;entryY=0.5;entryDx=0;entryDy=0;" parent="1" source="GBQWndS0z4S2nc0Ehahh-2" target="GBQWndS0z4S2nc0Ehahh-7" edge="1">
          <mxGeometry width="50" height="50" relative="1" as="geometry">
            <mxPoint x="196" y="204" as="sourcePoint" />
            <mxPoint x="150" y="340" as="targetPoint" />
          </mxGeometry>
        </mxCell>
        <mxCell id="GBQWndS0z4S2nc0Ehahh-18" value="" style="endArrow=none;html=1;rounded=0;exitX=1;exitY=0.5;exitDx=0;exitDy=0;entryX=0;entryY=0.5;entryDx=0;entryDy=0;" parent="1" source="GBQWndS0z4S2nc0Ehahh-2" target="GBQWndS0z4S2nc0Ehahh-9" edge="1">
          <mxGeometry width="50" height="50" relative="1" as="geometry">
            <mxPoint x="206" y="214" as="sourcePoint" />
            <mxPoint x="160" y="350" as="targetPoint" />
          </mxGeometry>
        </mxCell>
        <mxCell id="GBQWndS0z4S2nc0Ehahh-19" value="" style="endArrow=none;html=1;rounded=0;exitX=0;exitY=1;exitDx=0;exitDy=0;entryX=1;entryY=0;entryDx=0;entryDy=0;" parent="1" source="GBQWndS0z4S2nc0Ehahh-4" target="GBQWndS0z4S2nc0Ehahh-3" edge="1">
          <mxGeometry width="50" height="50" relative="1" as="geometry">
            <mxPoint x="216" y="224" as="sourcePoint" />
            <mxPoint x="170" y="360" as="targetPoint" />
          </mxGeometry>
        </mxCell>
        <mxCell id="GBQWndS0z4S2nc0Ehahh-20" value="" style="endArrow=none;html=1;rounded=0;exitX=0;exitY=1;exitDx=0;exitDy=0;entryX=1;entryY=0.5;entryDx=0;entryDy=0;" parent="1" source="GBQWndS0z4S2nc0Ehahh-6" target="GBQWndS0z4S2nc0Ehahh-3" edge="1">
          <mxGeometry width="50" height="50" relative="1" as="geometry">
            <mxPoint x="226" y="234" as="sourcePoint" />
            <mxPoint x="180" y="370" as="targetPoint" />
          </mxGeometry>
        </mxCell>
        <mxCell id="GBQWndS0z4S2nc0Ehahh-21" value="" style="endArrow=none;html=1;rounded=0;exitX=1;exitY=1;exitDx=0;exitDy=0;entryX=0;entryY=0.5;entryDx=0;entryDy=0;" parent="1" source="GBQWndS0z4S2nc0Ehahh-6" target="GBQWndS0z4S2nc0Ehahh-5" edge="1">
          <mxGeometry width="50" height="50" relative="1" as="geometry">
            <mxPoint x="236" y="244" as="sourcePoint" />
            <mxPoint x="190" y="380" as="targetPoint" />
          </mxGeometry>
        </mxCell>
        <mxCell id="GBQWndS0z4S2nc0Ehahh-23" value="" style="endArrow=none;html=1;rounded=0;exitX=0.5;exitY=1;exitDx=0;exitDy=0;entryX=0.5;entryY=0;entryDx=0;entryDy=0;" parent="1" source="GBQWndS0z4S2nc0Ehahh-9" target="GBQWndS0z4S2nc0Ehahh-5" edge="1">
          <mxGeometry width="50" height="50" relative="1" as="geometry">
            <mxPoint x="246" y="254" as="sourcePoint" />
            <mxPoint x="200" y="390" as="targetPoint" />
          </mxGeometry>
        </mxCell>
        <mxCell id="GBQWndS0z4S2nc0Ehahh-24" value="" style="endArrow=none;html=1;rounded=0;exitX=0.5;exitY=1;exitDx=0;exitDy=0;entryX=0.5;entryY=0;entryDx=0;entryDy=0;" parent="1" source="GBQWndS0z4S2nc0Ehahh-6" target="GBQWndS0z4S2nc0Ehahh-8" edge="1">
          <mxGeometry width="50" height="50" relative="1" as="geometry">
            <mxPoint x="256" y="264" as="sourcePoint" />
            <mxPoint x="210" y="400" as="targetPoint" />
          </mxGeometry>
        </mxCell>
        <mxCell id="GBQWndS0z4S2nc0Ehahh-25" value="" style="endArrow=none;html=1;rounded=0;entryX=0;entryY=1;entryDx=0;entryDy=0;exitX=1;exitY=0;exitDx=0;exitDy=0;" parent="1" source="GBQWndS0z4S2nc0Ehahh-8" target="GBQWndS0z4S2nc0Ehahh-7" edge="1">
          <mxGeometry width="50" height="50" relative="1" as="geometry">
            <mxPoint x="390" y="310" as="sourcePoint" />
            <mxPoint x="440" y="260" as="targetPoint" />
          </mxGeometry>
        </mxCell>
        <mxCell id="GBQWndS0z4S2nc0Ehahh-26" value="" style="endArrow=none;html=1;rounded=0;exitX=0;exitY=1;exitDx=0;exitDy=0;entryX=1;entryY=0;entryDx=0;entryDy=0;" parent="1" source="GBQWndS0z4S2nc0Ehahh-9" target="GBQWndS0z4S2nc0Ehahh-7" edge="1">
          <mxGeometry width="50" height="50" relative="1" as="geometry">
            <mxPoint x="266" y="274" as="sourcePoint" />
            <mxPoint x="220" y="410" as="targetPoint" />
          </mxGeometry>
        </mxCell>
        <mxCell id="Bvynh8-Wegyuoy5LHT5m-1" value="" style="shape=image;verticalLabelPosition=bottom;labelBackgroundColor=default;verticalAlign=top;aspect=fixed;imageAspect=0;image=data:image/png,iVBORw0KGgoAAAANSUhEUgAAA7EAAAG1CAYAAAAvLXNmAAAAAXNSR0IArs4c6QAAAARnQU1BAACxjwv8YQUAAAAJcEhZcwAAFxEAABcRAcom8z8AAP+lSURBVHhe7J0FXFbZvv7n3v89E44tqHQrii2I3Yqd2N3dndjd3d2J3WKhgKgg3d3dzfe/9suLgoJ15pwzM+d9zue9c93sWPGL51lr7bV/QgEFFFBAAQUUUEABBRRQQAEF/iJQiFgFFFBAAQUUUEABBRRQQAEF/jJQiFgFFFBAAQUUUEABBRRQQAEF/jJQiFgFFFBAAQUUUEABBRRQQAEF/jJQiFgFFFBAAQUUUEABBRRQQAEF/jJQiFgF/sTIJjM1maTEJJJSM8jKkR/+b0NuLrk5OeTk5MoPKFAIuVLbiN/fvXlys0hPEb6QlExyehbZP1JfYUv/FW31X4DczFRSEuOJi4snPjGZlPQMMrNzpC7+D0HYVXYWmRmZZGVliV8G6eL/l8qUB1GwbPHvTPGT/i79N1Mqs4hv8jP+NPiXx1z5/aXnyI8o8GdGftz8D/VXvj2Kh//97eVf7XsK/J2gELEK/DmRm0CMy13ObLFg0fxFWBy4h7VvkvyP/13IjPLG1eYpT974E5X236rki0MOqYEO2D235qVrJCl/17yXFUHAq4scWDWf+YtWsvb0K1wiMuR//FZkkhDszJsnT7HxjCUxU35Ygb8YcsiKdsPG8hC71yxm/ty5zF20gjU7T3L+gRN+CRnijP8E4onyseXRlctcuXSJy5cvceGePY6B8ridm0FWyBus71/j/IVLXLpwjqt3rLD1Tyf1TxbWsmL88LB7gtVrPyJSs+VH/yhkkxbnh8vzxzx3DCYsRX5YgT8pMsmM88Hh6RNevg8i/HvD7j+NTJIi3MXzrXjpFkVsuvzw3xIiECT64Gz9jOf23v+Btlbgr4Z/iYjNzUgkzPERD2/d4qlLONEKsqTAdyGDULtjrO9jTC2DatRr3IyGfZax47YnqfIz/psQ9WwPqwa2o9PEo1iFp/0AQQ3F/dExdq3fzZFH/iSk/52UXgaeZ2czpmsPBq+9j8ffUuMn4HFjLbPaGlHVoDomLdvTYvh2Lr4JE3T4exCO09XFjGvXjcEbrXGL+W8b6RZkNOYNDw5vZv3uazx2/wsOimWF4nlrA/P7d8Cs50jGL1jNhnXzmNC7EUZaNTHutpqzHjGkyU//ZuSmkRQdTlhoMCHBwQQX+gURFBxKaFQSaZlfcjCR918eZl3/RtSrYUSN+l0ZstaSF8H5TDSTDK+bHJzVg1Y1qmNo1IxOU/ZxzSONP1tIirE5yqahbek4Zj93g5K+08++BtFO7w6wpHt7us+6yH0fBUH6UyM3joTX25nVvR2951/kboj8+L8N0Xg9XMf0Dh3pu/Ih9uF/9KDKnwi5meS+24dF/050nihig2hrxXysAl/Cv0DEZpIUcJf9I1vQrH4DWk47gaXrd6fUfyNSiHR7xPVjJ7jwIoDI/0aV9GdDljsP13Whfqmy6HZezLpDJzh05j7PnUL5Ww9CFoPAK3MYYvAbFZos5XzgDxCqHBuuzGuOfnkjmix4THDC30nppWG/oQMmSpWoPuIEr//d+T0niRTvx1w5dopLz7z4wNf/SKRYc3xMXXRKalB36Cb2nDrDkfNPeRcQV+SARpLnE+6eOc7pe66EZhakAL682NML0xKVMBxzDbuwv6PizyAhyJYHJ49w6r4r/vEF65hMivtuZjRUpUy1kSyRGNJfCTkheFguZlQTA3Rq9mTs5ivcfetDUJAL1vtG01Xrd/6v9lyOvo8WWfhbEIP/y0scXz+XqaMG0a93L3r27Pn5r5sglD0HM2DRRV74JcqvLQrZpPre4vwkIyr89BM/VTZn5sl3hHwI2rlkx3lyf2Fzqv+/n/g/3d5MO/Maz7jsPx1RDbm9jLHVf6WcyTyOecaRJT/+PUgPceTllaMcuWyLe1x6gTpG4/dkPr0rlaJSuy2cev9H8qMs0mOdeXH+CCeuvcYp/EdKrkAh5EYSc3cy7VV+Q63rNo55yY//2xCMw5kRtCpdHp0Bp3nk9xfq09w00v2fcePECc4+dMHva6aeK/zk0Vz66pejXNP57Pb8z4vYjDAnbK8KP770CteYH5lEUOBfiT9exGYF4nltJu3L/0YJkah+0u3PpKMugj78WRGL87nxdNGuSsN5Vrj9d65Y/XMhw4pzE2uhpdGKkZfTvn9W4W+G4OuLGVNbGc12a7ga+gOj9tme2J1dxawJC1l53pnY1L/T2GYa77b1pIWWLsYTzuMgP/rvQwwJ1ybQRq8aTedex/pfwS8iT7O6kwaqNUZgYSs/9gVEXJ7GoFp61Bp2AvtCXe3Hy4ODaFVRl/pTbvMuRn74b4U0wqxXMsJQixrDBOELlh+WQRCqoHucXD6NsfMOcvnNX6kB0ol+tZVZTVUop9aO0cfdKDQGEfCQmxvHM3DVHd58VI3FIidVmtFdy8zO9aihZ0D1+k1p3rY9Zh070vHTX/s2tOnUh15zzvLUN0F+h+IQgO/lkTSrWI7fW67j1NtPM38UNis60NyoCV3Wv8RffvTPhrD7a5lqrIR6i6Wc8fuxke3U1/tZ2loL7VYruRBUcHQrmoDnFgzSrYxe911ccP8j43EuaQFHmddAC4MO6zniKD+swD+BRJIez6aHvjJV+u7htI/88L8Noby/OIHOKhrUGHmRZ6Hyw38JpJD5cBY9DA2oN/YkD77mSpKIfbqEYbU10GhvwUHv/7yITXt7lJXttNBqbsFp3/92Nvrnwx8uYnOCHmA5py16Wq3p1dmIqrq1aTLxBM++NkORm0ZybBRRMYkkF8HTczKSSYiJJjohjQ/7RJBDVlIEIb7uuLk44+LmjV9YAimFZmOEC2SlkBgbT2JKOplZScQEeeHp7olfSBhhke+4takXjSqoU23oMW6/CyQ4NIrYpPTCo68ZCcQG++Dp6oyzizueAeFEFxAD2elJxEdGEBmbQkYhr8sVhCGO6Ahxz+SMr4zoZpEaHUKgt6iPqxtuXgGExCTz2WuQuRnivGACZOe54ubpS0B4PCkfbp4jnhlPTFR0Mc/MIj0phpjoOBLTCmxUkJ1CQpgf3m4uoo5uuPuGEJ6YVWDkSXrhPp3kuBjixcMy0kW7hnrj4e6FV3DsV5aaSe0QTXiAN55urri6eeIltaG4z8fmyiFDlCva8SDrzA1Q0WzFsCOuvA8MJyYxnYzibp8rypIYQai/6FdRdhfRPx6i7JGJGd84a5lLtihbmJ+HsCNRNg8/AoRthIeHEhIWSVR8umxTh2zRprHxKaRmZJCZGEaApzvuXkFEJOW3cRaZSZGEyeoolUO0oU8w4eL6Qn2QnUZKfDzxwsayxf/S4kIJEn0ptYl3UDRxok8KQiZi61RGx2wd1wOFHUUG4uMu+l2UM0ha4lf49CKQTUZKAnExscSniv4scH5uWhwRAZ64C/9xdpWeH0WcOOeLt5TsJFJufy6inm5e+IYIm/jmWcgs0mKFnXu54uLsImvvoKhEPrx6lin5urDPhNRPfCmHzJT4vHp8sBu5iNWuQsPJ53iXnkC08FMvN7n/xKXxebGE/ceHElDg+YHi+R/9Jx/ppMYE4++Rd550v+CY1A99mZuRSlLIa97t6Em9SmoYDRcExzlYZjPRku19rV8yEokJ8cVb9KWrq2SzwYQVtBVh12nx4UQ8W8WExipUrjWYeTdFucMjiRWFzSp0f/GPnFQSo8N5tWUAZloV0e28WhBkUeYQ4WcyGw3ERhKxlQ0wmX6Xt4GxxIX44CFijWSnYXGSPRYFEZdiQ0V/uYl2cMbV01/0V/JXVkWIGJUgfDlKxN0i1ormZsnjfZyIlwUqkpsaQ7i/Jx759hgcQ8InHZidlkB8fCKJqZmiylGE+Xri5u5PSKSw3XgPXp6ZSGdVZTQ7rufoUz9Rf8mH8/otV8TOlHhhW3FJpBSapRZ/S4snOijPd12FTfsERQpflDy0MHKSo2RllHKOs6uw/dBYEj7LWSKmpIiyyWKKOE/yEXFefPqXYuQXkPSCE+Pro/6bLg0mXuTtp+9RZsSREOKNa2ACyYWdpghkEG67j0XNhE3ptWfAmutYByQJ/5M2U/nC75s2tQnF/+EMuqgqUb7lGo7bF5y5zSTT/zRLO5rSqt9aTrjLD38NmYki94p+keVeDzz9w4hKyszzk1xxTxETZLlM2uxMdkEecrPTSYkTnCE+mdRP+ppsEWPC/WVxVPI9T/9QIgrkC5mIbVAJrVbLOe8dTmx0EL7SuR6+BEYm8OVxQGFjCVG4Xlgq4nY5KtadwJYnLvgFhxIZl0p6bqxMxA7RV0W/9z4uOcaSHOkv4oCIWcK3AiOTP4l7EkQMT4wSsbpwbinks6K+6Qn+uDxZwbAqylRuMINVlh4y/48QPOKrppct4odoE2/3ArnrQ/4X+U/Eq7ioKJGLRf777F4iNifHEi36IT6lgDPkihgZFSjaTnAKZ1fcvYMIFWUueHludgZpibGyHJ+dmUKSaAtPkQt9RD/HxMcSFS3lrczP/FCyp9SEaGJi4hHh7cu2KfKc5NuyuCJsyCtQxNDi9IjE9UJ9RQ6RuJXIIVEBRDyaR6+qlTH8TMSKvpblCIkzSTE8SMR/wR3CBHcIjxWcs0Bb5CQTL9mcxK9EW3j4CpsTgeNbfEomYtW0qTXmCs+8RbwJ8xVtJPpItGdIgZz0AVniWRGB+IuY7SrlaHeJGxezD4LwhThZfaW2ccPDT9hpwiec5TNI8U20aXBe/nIRvEnKj0FRKR9eDcjNElwx3AmPw4Nopl4Zvd7rOPgumOCwCKKk+xdlj18RsTlpsZ/xlc9jr4Cof2JkkKz+Mo4i6u8bEl1k/bOTBS+V4rTIbbI4Lc5LEM6SK+wrTdiX2+WVTKxfDuVaY1n/6D2+kh/HipjyuUEWgsSt8riIaB8pxoh2jRAkqXC1BS/OEj4SK/KcIHI5UsyKyo8FgodGJBXrt1mi3Pn5JY+DxZL0lTL9HfEHi9hcwqy2MKeVIVW6reXSmYVMba2FeqOprLP9EjEWvZTlwsN9FixcvI8zdrGfnJtCkPUJdlosZdU5J4SfCAjBE2zNvd3TGdm1Jc0amGDatAPdxm3i8BNfYj50vHDFgHuc2bSN7ceu8ODpYSwGtaVVo5YMmrOYhatn06+ZviAHpVAyMqPXoNGMnraZg/fd+TBOnx6Es+UWlo3oROvGJhg3aEbbPpNZcMwG15i8xJ7o/YQra2cwe5kQwl5xH2cP4zx4d3o1i+Zt55RN0Md7fgoR7GNcbnJ8/mDMW5tiXE/Up2UPhloc5+r7+I+Gn5tMuP1FDs8bSM82jTA1NqZBUzO6jVnL3vsehElGnCuEzdtTbF+8gGXHnuP46eB5wlseHljG0hUHueohko90LCcGP6vDbJnUk47NTDFp0ITmXYYzecc9bILyk44Qi7F2XN+yjO0n72J5/Tx7x7aiSWMzOsw8i1NgcfPtuWSF22N1eB7je7ahuakx9Rs0pUW3MczZex/b0PzlZOn439/LrsktaaBbjpKlNTBqP4TBY6az7uI7nOJkJ32CTBK8n3Jj6ywm9utI2yYNMDFuSMN2g5my5TrPgwsTm88hAkeMIy+OL2R8txY0NW1E47bdMR8ykrFjRjB0yko2XXQhJTGOkAc7WLftOKeu3uTx/gmYN2sszp3GJis/osRT0gOsubNrLlMHdqFdU9GGxg1o2GYA49dd4nFAgcGEqFfcP7iTdTuv8NztMec3TmZE+0aiz01pbj6HFefe4V8gwUoidmx9NXRazWX/lf2iX4fQtVFd6pi0pff0XZx1iCO5eOcSiMbz0VF2r9oqfCP0Q9DPTfbk7cXVzOjdmhYNjDFp2o5Ow9Zx6IkPsXmnfIbctHBBwI6xY/4I+ndsQRNxXX2T5nQYsoB1li4Ep3yF6ArSmeDziPPLxfXtGmIs9VXrPoxff5FHstWdore8LDm8chnLDj7CoZBJxeJ2axcblm1g9/2APLsVJEISsS31DDEdupELt3awdHRX2jaoT71GXRi09CQ33ZMLJOQcUrwfcWXdKPrI/KcBTdqaM3TNVR56FVQGacS+v8wxi2H0btWIhuK8xm37MnTxSe64x8psKj3AnvsbhzOqrR4VfiuNco22dBw0inFz17H9jj+CqxWL3BQf3l3ZxMLBHWgrxRTjRjRp359Rq85xxy0+z2bTonA5v5wVw0wxrFiSkhWrYdJtJKOnLGaHqH9goVFtYecpb7i1Ywljm+igWfZ3yuo1pcvQUYydtJSd93yIJII3R4bQVs2AumMPc+rQJjZN6Ezz+nWo37wvI1Ze4llwGoX5viC2nvc4tWIsA9s3xtREiks9GTJvH5edRNIstrP9eX1hAxZzN7L3UfAnA4uZRLvc4MTKhSw+ZI1npNQ7wg+jnXl5cjFT+7anpakJJo1aYTZkKVuuORH8gXzkEml9jP07drLj7H1szi1kUveWGJsOY/HWnZw4u4yhHeug93sJyug2x6zPCEZNWsWmC+8IF9dmp7vweN8a1u+6xiOvjx2Um+KN3ZlVzO3XmqYm9ahn2pIOA2ex/Pw7/D4sSc4lI9qJpwcWMMW8DU1FzjFu2Jouo5ez9bYX4cJn85pDxLsoJ14cmct4UbbGJiJGN2lPzxl7OG4jRYrvRE4KMbfnMNjwV36rMZz59xLltv+DyHbFdncvGlRUp87EK9z3/8qg1XchiqCXi+mnoUTZxss4ZFMgkiT54rjDnBYtBjP+0Bu+6ZXsnAjc7+5k5fD2tGpoLPq5Fe37z2DDTXdEsYUTChJ9cztLF24RbRsinp6PXNIi7bmzfRGLtlnyxLOAb2dG4/9oD+sndqdtQxEn6jekefcxTNt2l9fyPQcihYid1kgVraYz2HnpALtXjKBH43rUMW5N90niWa8Fef6QlD+FFzYXtzKnQz1qVvqVEpXq0LLPUEaMmcmaU3Z4CNEQbL2c4VXU0O++li0HDnF8YR/MGgm7a9SRHlP3cvl99Effkgatg15xa89ipg/sRNumIsfVN6ZRuwGMXHERK/+kPJ9N9MD92gqRB5tgWOY3SqrUp0nXwYycsJhlB6xwF6y72CbPEcL66TG2T+lNp+YNadCgMc07DWXS1ju8DMwWbZJOnPcNjiyex+I9j3nz6YqgDD9sjq9k0Yp9nH4l7wXBQyLsTrFn7kC6NjelgbEpTTsMYcyqSzzNL7OAtFzz+fHVWOwRefXWMY4t6kXTuu3oPdKCY5d3s3zJCpGD3yLCeAGIi6Nfcn3HIpZuOMPdAFnmKBI5yb68ObdGxFozWjaU+FsL2g+YzXKRZ72Fbxdqk4wwPG5uYumw9jSpVxfjVgMZu2gTJ/eNp73or5r9C4rYNBJdLTm6dBg9mzeggeCUbbr2Z+hIEXPHjmPEoqPcsg3POzUrRrTvATZNMaeT1H8i7zXvMpppW29jJ2zuyzFBErET6aqhTY2hezh8cAe7p3enlYmI2816MmjhKe77JH4QjzkpwXg/Fs+aNQRzs2Y0Mqkv+FZLOo1axrY7Ik4VyEu5WREEPj/ImjHdaN9Y8q+mtOw5m5XCTv2Kte8csmOdsT6zgYUje9CpZSMaCHs0bdGNPjMPcsUhQlaWjHAXnm4fz6ROValUoiTlqjSn7QDBq2atYIOlJ+FFkZYviNicBFdenl7J9D5tRD8KvtKoNWYD57LpujN+H0aVxH8zI0T9j7Jr7lD6dGhOE1F/KU6bDVrAlltuBBQ4NzvRTcTphUzu0ZxGog7GTTpgPnkTp95JnCoYx2s7mNvJmNqVhR9XrCX42RCGj5nBquNPsY+X36YIZMV7YHdqOXMHmdHCVMQYYfvNOg1j4rorWPklCdaSj3QSAh9zYa0FOy68wurhdU4t6kcnEWvqN2xPlwk7OPcmnMRCTZUjcqXE4RcyoUdLGZ+W8kuXkcvZ/dCb4K8OYv698AeLWB9e7OxPK53adNxgi1fEay5Nqoe2alN6bHlXLDGWGV6OK5dntqS2RkO6rXiEiEkfkWnPTQsz6hs0ocdWl7zd/KLuc3xme0yq1sK05wSmzZ/HvPFdaVFdj6ptp7PqVqB8pkBkOtv1TDNrgaGhCZ3NW1CveTd69e7D9MVzmDRtKK2MVFD+RZA+HROatu5Ih36L2HjVCZlmSgvE8fA4+pgYUq1xd4bMWsqiGcMZ2KI6BtXaMWT7cxwEmcwMf8K1WYJsatWj7bIHvI6ULk4k8OFqxjesgmGnNRyzjylgvIUR8/oEW/rVxEBND6NWPTEfPIh+7WqhW6M9fRfckgf8HMIfb2ZR5ypoqlehVts+9B88gH4d6mKoVhEVk1HMPedFkvhfhuMGJpjqoNVqIVtfFhaXqc/XMaOpAVXazuOAnyg7yQRdW8T4ltWpWlc8b+pCFs6ZwOhO4r76Deiy6AqPZbE4nbSQs1i0MaKZaWOM23SjhUkTOg4YxaBFF3ELKGapWbgQaos6Y6ypjlattnTpP5gh/TrQxFANZRUTOs05w3MREERoJMByDctFO+hXKsVvv1dEu35r2nTqx8xDL3kdLb9fQWQJorJlJGbVTWjTewRjpk5n5sR+mNXRoLJWC7pb3MH1S0NmOZ5YbR1KFyMD0e5DmThnLnPHdaKpvjLlK2ig3XoSC486kBwbgv2GTrRsZkJ1YyEeW5jQpFN/+vRfxD7rQOLx4MXesXSuYULrHsMYNWUGMyf1p5OxFioajegw7xqOSfKs4HWC7cPaoifsrWPPxpg070jn3gMZ0LE+1SuVpXL9QUy76EOEXMgG31jB1AYl+F25GnXq1qNp5570GdALs/raKJWrQv1Bu7kd+CVi68GD9b1ood+E7hsFmZeJnzgcT89imGlVqjfty5jZ82V9PrjreBYfscJZdt3niHK8wvb+9Wjc3IzOQyYxY/Z0xvVqJvpWFe0Go1gpBEuY/NyikOP/mMvz2lG/mjHNB0wSPriYWcN7MHzaKnbZie7MFB7yeAGD61fDaMA2LhW6mS8PVnajcfVmdF9rK5+BzsJhRx86GpSidOWaNBIkpXHnPvQd0IO2tdRRFu3TbNx+7oj7yKwg/gln53amUdU6NOkznVnz5zBvoiBZ4zdz4GF+1Ekm8e1+lvYyprpRE9oOm83CRdOZ1K8Z9aSNlYbv4opbOunBNlgu6EiX+qqU/Pl3yunWw6SlmRCOs7G45EN0cSP9mZ482TaKblVVUTcwpbX5YAYP7EHHetqoKetSf/g2zriLtkqNxPnIFKYIf1ct/Ru/ldWkimk7OvUeg8UVL3wKubUQsUnWnLMYS69qyiiVEiRWtQYN23Sgs4iPy6+4i36JxOHkWMzKlUBZvx5GtZth1rUv/fu2o6lhBcqJ2Nt+2SOcP2wckkaM01k2929A7eqNaNN/MvMs5jOlfysaVq1Ond5rOfk+ik8nBfMQyrMt/WihWY3GE8/zttAQsSd2B4bQxqAGzeY/xiFSdGTqa+6s60fL6sLGzYYzbrYQuDP606GeHgamwh9OuRItv4XHkbEMalMNHZNO9G5SjxZd+og6zmTrzg3s2jMZMxM9VH/9RdS/lvCtdpj1ns6Cw7ZCxGaREXOZdR2MqN5sJusfyVlIii82O4bQzUgV1aqinv2GMdi8HS2NjdBptYhrz/PWJGeF2nB7WVeaGdXEuONQJixYysIJPelQ14CqDYeywNKPQJked+XVgbF0qVmNuu1HMHb2IpZMH0zvEcLHjjt89w7aOWle3JvTmOo/l6PaiAPcLW6s8FsRY8Xt2aaoV2qA+SEPfL4QHr8f8YS8Xs1wET9LN1jA3hf5sjKJOMcjLGltQodpx7laaHltMchJI+rBKqa3r0XVeh3oP3Mx82dPZMKgXkzcYcVzaUQ4/hUvLNphaNCGYced8fpQlyzivM6x0swQvTaiHFayhCwxawLvLGV0cz3UNOvQoNNAhg3pToeGdahevQdzpZlLcVqC1WbmNi1JSeWq1KhVh6adetB7gBB4DXSpWFaPmr23cNU7rph87orVoSUMr6+Ddrlf+KW8PrWbt6V9x4HM3PMM59xUQmzWMlKvHJXVq4oc35S27XuImNWNDsZqVFQW548+zh1X+ShVnDtOewfToWkzTDsMYuz02cwY34fuDbVR16hHm8W3sZaWmKa5ipg+jV6taqBR4md+U6pCDYm8C4E+cf0tnAuPJH1EbgIB15cyqbXI/3XaChK/kAVzJzGmcz2q6YkcNf8KzxJyiXM9ybLWuiInT2TdQ385v5KQSpbPUZa0N0Cv6XRWP5H+Eke09RZmmNWmWu3WdB4txO+iKYzp0ZBaBnVoNvkkdz3yIkeK+10OjqhOlcbtaWnSiC7tWoocN54Zc5Zx5OwsutcV/Knreg6/LTBql5NO7J15DKtXhZrm6zkn4ntRmisnwQObXSK/161GzRZ9GDHXgkVTB9G7sSEGNbsy9qA9LvmvkKWHEXRrIcMba1JRtSYmHfvTv1dH2plUxai6JuV+K0WtEQc54yudnEmK/3V2DzGlTtUGtOg3XeSIKYzuVhcDpTIo6RqLvLyFS68k0hJBwN3ljG5mRDXjjvScsIClCycwVPC26lUbYrbAEuvAAsryM4TibDmTHhVLoqwjfKFmU8w6mdOvX0da1ahIeRXRnnNuYBuY17+hNidY17MWDVt2pvvwKcyYJZWrEbXV1dBvMYVNL6PIo1IZBD3fw5JOIh4K/zIfP5vFi6cxsucIJi05xVPR3B8HfwsgPZrwS9MZZtaYWqJNh0+ZxYzJwxjUtjo6KvrUG3UQSyE+cyIcuLu8J70balDmlxKU0qhFPZEfOw+awlwRz0OKenWvCBErQ5oTd1f3x6xGNWq1HsyE+YuYJ/qxm3EV9OoOYPqJ1wTKTkwhw1/YqXlrGtdrTY+R05gxcyJj+janrrbItw2nsO6Od94GoUn+OB8Webh+DWq1GcCYhUsFFxjMqOFjWHTFn+Bkf96cWcZIE310yws/LqdHLeHH7TqK5+24w4siJ1UEz4hy5Mn63rQzVEe9WhOR34czbEBHWtdVR0WtJg1GHuKWez5XTiDccRfTxTMaNW2DaYsutG3VBfP+PehkqkklJW2qDdmPpVN+lhXCO8aGKwu60rx6Tep1GMHURYuYM96cDnUM0G80lqWWLsLi/nvwx4rYoIvsHVIHnSr9sHiVKLonncCDQ2gvnMegz04eiX4rPl8m4LG3P22US6HacRUXhGjKPzfHbR/L26pSVrsXc54kEJ8dh9uRwbTR1xHBbSVn7IXBRUcT5W/P7UVtqa9mQO0Rx3klI5GCMbywYFyDCvz0UzkM2k9ijaUtbxze4e7myGu7a+yd1Y665VXQ77GKvRfu8/DpO1wCpc0cEoh9t5d5TVTRqDuMKUdf4xYeT2y4J+8sLRhqVIHKzWax01qEhKwoAu4sYaDB75TSH8yiB2GEhjzl+KiaaFQyofeOl7jEF1P71PfctWhLrbJK6PYQwfrhO967u+JkfYWDew5w5Pwb0RZCosQ95eiIWmiUNaDOsN1ceu6Is7Q0xeYGxyY1plrpMmh02YhlaBYp0Q/Z0U2TsuWa0ndHwQGEWN5u7IJpRVUMh57APi2DjLDrbO+uj3aVjvTb9BSHoBhiIgPwebGHmU1UqFRjAHMuS9Nk4tzQo8ysW4EyP/2EUovxzD7xGFsnkTzdQ0gquHTmA2JxPTqCDhplUa4zTJD759g5u+HubIPVsUmYVytNCY3OjL0YSIy4PCXICcdrS5naRgsl1QZ0X3GFS/ef8torkuii4nyOD+8fX+DQ7gvceemCR2Ao4UGu2OweSif18iiZzuWoX2qBhFsQoj88D7KglQ4qVXow9ZILPqGhhHo84ODIuuhU1KP2yIM88o4lKzWMpwtMqV32J36q0JTOM45x01aU1cGdgFhpJDUY9+eXOLz7PDefvxeCXpQj2A37Q+PorVuecrWnst8rNS94uh9kY09NYY+lUW0gAuK+Wzy2d8bF/jr7RT8alCiPZs+93AvKS9pht1YztdZP/O/vWlTrsZgtV1/w2vk9r88tYXy98pRQMWPKdT9EtxcDJ24ubYVRmWo0X/qaMNlIpA2HR9RAv3Ijeu14j1ekSGwhnjg8sea1S0CxQTAh0IHHx3dx4vJ9nr73IzgijADnyxydbIx2SU2aLn1KwcmXTxF+bxUT6penfNMFHHrpR0RsFMGu1tjZvMZBELGcrBSyb0yiq7YyFTut5mSQ/EIZPLk5rzlVlGvQfNEz+ZK+bCFi+9FZRfRLGSFiR2zm6MPXvHVxwPbiXIbVKsWvldsx7FyosB/R329WMlokyIomk9n6LpzwKOGnXvY8tXbA2T8vK6VHv+b6rIYYaBjTbsZxrNwjiIkNI/DNJfYPMkRNtQV9dtrgnRFN0OsLXBUxp7qSClV6LmHd5Qc8emGPQ0AS0uM+Q3YK8c9WMbpOBcrqtGfwjns8c3DDzfUttrc3M61ZZcqUrkvH1S/wzkwnwdsOuxOT6VNLCFPDLozceZ+7T16K+yeQWKi/c8jNjMTP4RXn53SgiboSmi2nsfmaiGdWNjgGJghJGswbIWJb/fwTv5avScvJOznxyJ73Tnbc3jGCdmolKFNvLvfeyAl/lB0PlnekVqWqNBf2fsUpiKiEaIKdL3FkckN0lGrRZcNz3hU5Ip1B+NU5DNH7XdxzEjtcUj+K3eCrHB1aFWWlJgw6I40cC++5NZtBdQRxESR452N3fCNiiAtzxnrLADroqaPVcRPXwjNlAzXu+wbTVV309+/VqN9/Eycev8P+nfBDH1fc3R9xekN/WlaqgFqLmaw6epsHT+x46xUtYkAGaWEnWGhaCeVqY1h6V2JRSSS82c7U+uUoo9WRgevvYu3sifv7FzyyPMyGbZdwcJMMOgw3Qdz6Va2MbscVbLvrhn+MyA8Bb7mzeRCt1SthMOgwj/yFrIm8wM7ehpRX7cyUay54RkYTHfgem1d22DiHFyN8ikOG4NaXWdlWnd9/aUifLdYFZht/EKH3uTapvhBQLRh21gffYtLSjyGF8LfbmFCzIqXqz2LHE/lMVMxbnm3sTqNmE1h9w+8LA9ofkZsWxJMFjaimXoMms67gEhlLVKg3nq8fYe0YSJAk5iOf8GhmfZTK16XbXgfcPvhEJjFu0ruhQkzXmcSWe3kRLcnvJvv766FUrhZtZh7m1mtXPNzf8urmWY5s2Mn5NyEygh9rtZW5Jj/xj9/U0Os0l3UXnoo858SbyyuZ0UiZ35VaMPqcO4FFjhzGE+71jrubxmFevRxKRv2Ze/Qqdx4+57VHhPhrAsE2axiqUZIS/6eKUd+lbL1uzRund1hfXMaI2qX4Wc2cTRfk661Twgh5epJDJy5ywcoBj6BwwgJdeXV2Nv0E3yhpMpdtkqIXYjTW9zk3j06mu3YFKtYaytTt13nw+KWwu2DiC79/IEc6mSHX2N7LAB39dpivs+JdoMj/0hLgV/uZ00KNytX6MPdWBJkR1lwbY0jFUjXouNEK1/y6Z4YTcn4YrSopo917G1dEl6eHPuLM2NpoaTan9/LLvPKOIi42GN/nR9jUXQdlzS6MOeaAFGnS3G6xs/NvlPrtH/zDcDDTd9/j6VsPvAQH8nY9y+KWlSmt3JExR5xF28mRGcCThU2pVt4A0+mXcCnSqWIJfbGByfUro9FoEgvPOQhflJYKu/Hq1CzMDUSMaLeMo7Z5cT/Z7zaHBuiiVLo6zacd5Ka9Ky5vrLi5ewr9jMpQ4qf/QX/EYc5LaikrCP8L42ilqkb1vhs59CaIyEhf3t9YxyRTEdv1uzJ851MCo7NJ9LrMrv5VUdXtyKhtd3njH0NCbAAedzazqLU6FfQHMe+a5xf8WojYazPpXPr/8WupKpiO2sjBe7Y4ONvz8OAUeuiWoES1CZx7krdRXayPHfeP7ubkNSusXfwJCQ/B3/E0u4YboSaub7fxLe9lA2E+WG3uTsPy6jSYITiIVxSx0QG4vRL2Yusqs+0iJ2MzBbd/fYkzJ09x7LYdTn6CMwV74/p4G1MblOV33T5MvRBIVrpof4cb3FnZhXqVK6LVfgbLLoj8+Fzwb98EUoviK5+I2EPSuHJWErEPFzHISAOd5hNY+cAV/6hYooPfY39sJG01K2PQeTUnZDPkGULkvZJtJHXs1H2sXQMIDhN95XCTE6NroVKiGq0W38RDnJnu/5AjfTSooNeNCYdtCYqNI9LXkfc2gsN4JZCQnkyMnyP3tk6if42yVKjWl5mHLnP74TPs3EIo+gt3EfjeWczgqmUpaziAibvu8vy9J54udjwXgnhqowr8Xt6UfrttyVsIJGLFuw0M0/yNklIsMF/CpivPeO0k+Mv1dUwwKcPPlbqw4qR8WiEtDP+Lk+mip0HVrgvZ+tyT4NhYIv1tebrDnIaV1ag1aC9XC/Gmvzf+QBGbJUjLXEbWr0LVPgd4ns9YPPazop0GlaoNZNHzJPIno4pCrvselratTDm93ky5GZ9H+IVR+p0YTXc9kUx67eFJSrZwjufs66WPhk43xpzyLzxaZL+JWY3UqWw8ga1eUqkEbFYy0bQUv1TqyNAD7nkzrB8QhdOZUbSTRpCmP8S14OhQmhvv9/akbkV9Gs69jXWBicbcZGeujq+Funor5u62yzuY4sHz1R2EIFal1uD5zJo9hC762tQYcoi7IcW/n5nrvheLdiqU0u7J1NuJn5Mc6cKceFKezhMkSgiAhvPZ+vaTu7ntZ3mb8pTW7MC4G4nEZsTjvb0bjQS5rjH8IFb5/ZFixe5+VdDQ7sCwE8FkSTvv3ZpIew01qg7cz9VCmwZE8GJZG6qp1KTvwkfi31kiX51gjokKv5etj/mW58gGJYuFKGPyU/b2q4pK+Yb03vr2YxKSwY37y9tQpbQm1Udf5l2svE5xtzk+wgh1g65Mu59RzEzPV+C0n7VttahgOIRl9gmf9Hk+RMC8P4t+hrrome/kTgFDCj42hPaGNWky41reqoDsSCFiG1OnpBCePdZzPH+E8GtwP8GOrnoiUPZh4av4vOXkXkfY2F2dX5Sa0mOrIwEFuEWc9Tam1yxDOZ3BrHkVJluWHnVrGeOMfqN8zWEsE2Qlzy8EUux4tLAhupWq03HLe94XuymZC7dXmFGvYm3arrQnXKb+nrB7YFU0yjag5w5XAopKKN+MULyujcOscmWMhl/kzheMIuj6UkZUK0HZJvM5YBtd2Hcl5CSTeXM6vaqqo9F9PWcKbczjJRukqqlej7YWLz6K2O3mtKkk+qXDUg5/nIoRcObe8lboltahxuR7uMaIrGG3lKHVKlFaCKutTkX4mmjdyHe7mCREo2rTxeyyKfBOX2480RdHC19Rp/qwvdyQdUQsKVdG0lxLD+OZll999z8nyZcXi5pQrYKWOP8yrws1QBpeh0dgplQa9TbLOJ+/8sDvkIiLGqg1nMwmJ/mxLyD0wmT6ivYzGngE20K81Q+bI8NoXlIJLbN1XPT6yMBzfG+xo4smqmo9uPHYU3Ys6dVelrdSQanWeLa8jikwEBRLiNUCzHUqotv7ABc/sNlPEHqVg0MMUK7UlL5HfT7s3Bx1ZxkT61SmUpPFnPET/S369eqUBhhWNqHrZkf5LIEc3qfZ0UOPinq9mC8CsOTHfqIOXSv9Qtn6Y1n+KuUTG0ohzHopA3XVqNL/BA8KJfN0wQFOsaSZJup1JrLysSh3piBfe7tRu4Iq1cZd5FGhh0vIIVdqw/gHXJxmgkalxgw45o180kOGJLeLrDdTpaLRGC68ELQ86hxbumhTonJnJll6Cu/4JyB93uOVqI9hGf5HbyQLLP+AXV0Srbm3uAlaSrXpvMMFr3/K9z9FJlHvDzLbRAiPOlPY+FCSKULYPt7OnNaN6LzqATYR3/bA3LQA7k6vi36lKjSaeR35xF1hRDzDam4j1FRMMT/giPuHW2cSK2LvoqbqKDeYzvZHkmxOxvf+IvpolqNS8xWccPl0aPPj+8/hDzcwo+6vlDfsz7wHoXyIAumOvFrVgqoV9Wi12oY3X9isOcV2LwuaVEK96RLOFlK7MQRaL2eQZgUqGI1jzeOIj3EoxZ3bU+uhXdaY1Tsfyw8WjYzAh+zsJupXtT/zr3jKy55DesB+ZtZVQ7PVag6+kx0sHlmRIr9MoqOWKvp9dnGxULyN5tXq9tRUrU7PhVbi3Agiro4Wwq0C2n12c9Y3j8xlx77lxqQ6aKs0xXy7nWANaQRbrWCogYgznbZw1qXAkpQMIagO9cW0ki4mMy/wUnJBz9vs7lJWiEc9mq14iEjXH5ERiN2KNtQup4Hx5FO8kMXcLHLDrrDKTBMVw4FMvxjyod8KIeUNLzeaUU2pGm1WP8ehgP1kRb3ixGADKmt2Zs1JV3Ekg4AnKxmkUxZl04UcKLghWbYvbzd1wUSpBDqCI52TtGKKA46r24jc24S+R5w+blAW957rE2ugXW0AC29JzCEV90vT6KFRiSoDjvGgcODAYYMZRkrVRfnuY1/0SLtAKE5XJtOxfHlUmy3mcMF3bMKec3yAPqoV23L88pc62x+Hk4NopqRBvSn3eCFb4eTB/XVm1Cqhism0WzyVjzf9MNI8uTy+JloaTemz9RV53ZhG9t0pdNbXxGjUce58bRVJIRG7jGMi3GXHC1491wR9VRO6bHhSeDO4pBts6qqDmn4fJl38LHh/hIijUScH01JFixpjjyKsmXTfu+zpokRZnU6MPexY7Kt+qW8Os7R5JdQaLeDE1zZ2SnjGbcHJ1KUJg2UvcS50eiieB3rRSLkU2gP2c95POpZIpMNGRupXoKzuYBbfDPrI7zIDsJrXCL2ytVi44Z7sUFboK66MqSZ0R2uGHXHgY5eJwBd6ksXNVVGtPZ4lsgHa/w78cSI2WxDMJe2pp1WTlosf4BwaS2xsDLFhtzk8vh5a5WvRZrkdvl9aS5XjwNV5zahavjpN5z8jUFpDm+vGpakNqaZhStdNzqLLhVWEHGBWEzUqqDXBbOJ6tmzZxObNm9m0aRM75vektdavlBbJZ9Er4ULS42xWMLqeIE0t57PbLe9RHxGE3dGhtK6sS51JN3kTXkBlh73k4az6aJTXpqb5VOZu3sW2TRvZvG07G1cuZELzyvz2S13mrL8vvyCDTP8rbOpdHV3l3/nlVxUMGo5lzfNYEouMshJySb47n5FGFanUbA4HhIcWyYPTQvHd04vGlTWoOe44Dz5N6OlPODOlHhrl6tFhkxuRKaIeDmuZaKyMkhD0q9+IAuQKIf12JSNqqaLdegn7pK3ik31x32RG7UqV0W4zgmkbd7FFquOWrWxcv5o5nQ2o8LMOvSdeFCdnkRF6XIhYNSrXncbqh18bTxcBzHcPMxtXpmLNcSz5vNC4npkiAnw5EbDWcz04TZo3F854hQODq6Gm15GJ12OJLLbt8pFOcogLb5/e4sqJA+zZtYOdc/vQVYiVCkaDWSrEY5ElFe2RY7ua8aZV0Wu3mCMf1GQkNqvaUVddiNhZNwX1F8gKl80K1Khciw7L7lG0hhWCO8wNxxd3sDx1kL27drFrwUB611KhvIE585/H5RF0r0Os7axPxdrDWG6bQcFwk+V2iQM9tQTxb8f4676ypbkxt6SNnSqhLW3sFJaa10YSsp2w3tKJeir6tFv9hjfFdkcBEbvCDnELgWBe7hlNZ9H2lYy6MmLtWa7buOETU/xgywdkRhPsZsfzm+c4eWCvqKcFc0c3o0a5SlQbcY47X9i9MdXtumwGWKeSDkbdZ7P6tBV2bqHE5Af73O8VsVnyjZ30MZ18kfey8/IRx7ujY2inUgnNXvt4GirsL/ouB8eaoiVIUbXOs1l16jGvXIMKzPIH43dvBp3UylG5Tj+Gzt/Mzu2b2Lh5G1s3rGDtuKZU/f03NLtv4LikJ7JDiDozlCYaOoIcnOf+V1wiPfIFB/vqoaJuxshDDoX6XkLG87XMNKlAudojWe2Qk5fQ3Hczr6U6qibjWG1XTHwoAJ8TY+lloEa1vnt4UmjU0J9Xso2d9DGefg/HgkP/AY85O7IWOiqduXFfInVCP1paMLzq75Qz7MKI+avYsmMbmzZsZvvONSye2pF6ZX+lVKs1nLQrLmH6Yr2rL40Ecao24iKvZMuUI3iyvjuN1A1oMOsx3tLqjfRrbDKvSuWyRjQevpK1GzaxVcR0qc13LRuKee0y/F6pOaMtY2RJO+DIIMw0Vakx+CAvPtPPMfg8nE9fbUHKzQ9yw6PgCYVF7OpnojyxdjycWR9Npfp0320jPKVo5Lw/ys5eWpQSwq/NJAuWb96elwt27GLt3FH0qlaKX5R7cOG+ZPzOPNrQE2Nhd+omg5iy/SoP3noRnPAD756mhwhuMpjm6r/ye+uV7LL7IxRnAE6nx2CmKq382coxu5g/8OsBucS6ncFCkKnyNUXus4ohO+kF15aZ07z1Ag69jZGT229AdjJ+F2cyvJ4S5bSb0WPhIc4/dcI9VBr4kCP8W0TsDLZbSWrTj7dH+gl7VKPm+Gs8KRRbCkO2sZNJRSEEl3PeP+njjFS2G2/39aahIMPNF79Atlq0GEQ/2cashhUF+Z3HMfe4j2UWNipt7DRYTwV9EZcufZw+FiTYB7uVbagu7HHV5rvygxKyRG7xwOnlba6K3HJw3y7WLZhInzoVKG0wgAVX3OXkN0W0/w4mixyv0dyCXZ+8SvQZkvxw29qJ+pUro9FyKFM27PyQ/zdtWMvcblVR/lmTrmPPipNFbgg6zbwmKihVHc48ywjR29kkuh1lbqPKqJrOZONTaZgpmPdnR9CsfDnUG41g3OIt7JLF0O1sX7+YZUMFp/q5FFVHHOG2KHSW5w12dlWlsv4Algj/KTQukJtC6vMlDK1ZAeUms9goYqIkSBIfTqe7nipVe2/jVDGDprn+97AcX4OK5fQxGTybhZt3sn3TBsHfdrLeYiYjTCvwjxKNWXPAXpwdjfO54bRUVqX68Avc9yvoqYK/PZlHryqVqCpiqiwnpbnjtsec+hr1MVt1j9fyzs30vMaOHlpUrDqERbelE31EDOxFvVLC19pMYvryzezaJrXFDnasnct882pU/FmZ+rOu8bjY3JG/sZMWNcdc4UVwgZgebsetaSboKbfi+Dn5ZIqE9EgCnV/x9NoZju/fw97di5kxuAFVy2lSd/ItcQ/ppCS87q1hfN3KQsw3pOO0HZx4+A6XkMSPQuoLyIjxx8PuAbcvHOWwsMfNqxcyqpkqSqotGLD1Rd7Mcm4MiZbjMdMVOWDoAa5+bZ1rQRFrtoKTggClhD7nkLn0qo3IDwPmsH6nyEMbNwsb3SD+O4meRiL2qrRn4L68wVcZ0qIIdbPhyQ3BUQ7tY+fGZawcYopBWQ3qjj/CXSmJxntiu7ErzXWUqVy/HxO3XeH+W28CYwsnlZgXe5jfpCKqDWZx0Dn6i/k3x/UM+3rpUEGrC9Puhn7yalUc8a9XMMSwAkqNFrHdWsqHyUS8Xc/IqirodNzCCYcCd08JwXFTJ2orCRG76obsUKKwr3VtK1JRxZj2oxaycdd2WVts2baedatG0lHnV37W7cfUs/89U7F/mIjN9TvOmu5alC1tgOmw5SxbvUGIoHVs2LyESd1qovFLBTQ6bOB6UErRSxRkyMLr3HT660ufE1nPtZAksoOPs7ilJlr1x7FSNq0g3MtlA+MaqgiRWI4Kmgbo6+t//OlpoaWhTQPzxewXglW295vNciFiNVATQuVAgRfF8xCI7ZF8EXsDe9nOSHnIDXiK5YSqqAjSWqqSOtoGBZ+jg7aWFurVB7Pr9Gv5FQLZkbzd0JkWSj/x009a1Bl2mJdfjAjZhF+aTD/dymi1X8E5EcgKu5AcyQG8XSuEVTkDGs+9hI388EfYY7mwOVVK16CFhR3hkl7MfcHhUbXRqNSEXnu9iU0KxWtXd0zUatFs7pW8z5FIjry0CTUq/EyJ8ipoFqqjLnpammjodWXeJmnsKpP04GMyEathOpv1Vl+jI8mkv13LmLpCEDSey8bPC42f5UKGVSmNavOlnA1IyRNQIZfZny9ir8XwxYH7nHRi3l/mwGQzmlTTQVNTGx1dPfS1lKlQ4jeUaw5luU1C0SJWssSoK2zuZ4S6sjFdlwmyaW+P3fXVTBREV6X2IKad88krU2YojyURq2FMl1UPC48GShDBN871OkdndqalkS6awgbzylERpd9/pVzVPix6EV9YxNYSItYmrTCp87nJ2WGGVKzcnGHnPZFCUeztJULESstx1mAZXMB/JBG7vbMgy3q0XfWtItaWEBmvySUnwpZ7m0fQpYYgEEqVUa/ZgX7LL/LIO+nDJhGFIShLaiBuliuZ2qUe1bXU0dQRNiJ8Qb2yEBollDEcI328v8iL85CbSLj9STYObUJdTWWUlPWoYTaFFeff4COp0txUsm59FLFn81ZIyeHNncXtqFWUiNURInbSeRwLPToTt3Mz6KkjYk/HjdwUsUfq89jXJ9k2qhm11ETfVBTPbz+epefe4iF7d9oPnytjaVHxd34uXYnK2gXjiy662lpoqteg8/wz3JHaOyuYyNP5IvYc94rduU1CLqkhN9nYUYvy+n2Zca5A0s3Hu50sa61CqeoDWGidlSdyPXZ9FLG2khT7MryPfxSxVokFN3ORi9hKQsROvcPbiAKNFWDF+dG10aksidi8kT6ni/Pop/b/+OV3JVS19DCQxQSpHfTy2kHPCOMJp7jnXvzotLTR38z6ylSsO42d74SgSbnHvgHV0BYxZdL1hLyVOWHHWNHDgJL/KElZNX30PrS39DxttDU1qdF6DGusE2Uzsb6HBgpSpEmdEcc+kMePiMb7Qb6IPcB194KUo7CIXfNcBJaI51wZbYSaUnOGnnpb7MqSDJv9bOhUgZ//UYry6troFiyjjlTGqhg0ncNjW2mtYS4pflZcWtKT1oaqVKygipZxL8ZKm+SEFrcDdDFI8sVtsxl1lH5Fpe8+znzrCpAvIpdEj5sixtaiimZNGg9dwc7r1ti9d8XN3R13aWfvT3/unngFRpNY5Br5wkjwsmR9BzWUa4xg7SNX3O+uYkY3M/rvcsT3OycIclM9eHVkJsMaaVNZWZDNKs3pPHUfl99H5m0WFllAxB4sKGKziPU4yeJmeSJ2xxPpwe7YiHhZW1kT03lPsJGvmi8KeSJWWQg7C876JHzssxwhYg+a01hFk+aLvixio6y2fhCxR91iC5DfjyJWr8ceLhRcC5vgjf3qdlSvYMyqTXfyjokcl+R9m2Oze9KmhuAcIrfo6umhp6GKcslf+T/doSy9li9ik4lxLSBirb/S4PHe2K1oQR3ln/mtfOWi879uZ2aulQvqDG9uTTelqiDW7Vc+IyQrAp8Lo2irroXxpIvck00NufHmUD/qlvqFX8uqoqpTOIbqaIt7ahrTe81tbER/ZXhcZ0c3NVSqD2PFI79PVl6JAJH8iL0DqqOq0ooBh31JSBCcZXkLqqua0nX9I/G0opEjbPz0MB3K/1aCMioa6MjqJnKyVA5dib+JvFV7NCduSKP5Abw50BvTihqyAb7Cn7GJJt7qo4g9LUv+UYRbLaJvFSH+pb1ITtvg5PSQS6v70kpwUIO+u7nsJgWndzze0AmDn/8h2lcddd38dpB+OrK20NZvytBdL/jsa1QfIBexqprUHHWJpwVnc8PsuDvDFD0lScTmfX8tK8kbx/OLGNu+NoaaGnk5Wl+IwIql+K2UBrWn38FaPoCTm+wjzl3ImJZV0K5YHiWdBrQZv4OTNmGynW4LpdN85OaQFWnDzfUj6VFfV/BtLbQF19HT0UClzM/8Q8mMoTvkrz3kRJNwNV/E7pctNf8iConYlZwS5ycG3WFrR3VUpPxQSTsvD+X/BPfQEnXUbjedpZYSWcglNyNU5K5lTOtUhyoaUv1FvtIVMVraZ+X/KtNwyjFuy0hXNllhz7i0rB/tq1UScboy2sa9GbX+uojTgofIiVb0890fROwBp6gv5t90+4OsayNin95AltlFfDK7m0SS1w4m1apEhdoz2PBY8tgUIuUiVrvDJo69LZBLU4Jw2tJFxP7aLFx5U3YoVojkRQ3LU/6XMlRQ0SnUFnqijlqa6uh3s2DLwy8Epr8Z/iARm0ng2fEMqPEb/1NCDf3a9albrx71pJ+xMXWra6D888+U1u3G7Huhhb9v9wmyXI+zrYcOlQTpn3nDkzcnJ4jgYUCt4Qd5JIv1aWS7bGS8sZJslm3KkTe8d3TEwcEh7+fohLObB77BkcSJ86VtsrGWi9i2i9gveGPhxxcQsZNv8qaAiCXwCZbjBMEpXwuzZWe5XvA5Do68dxEJ3zuE2IR8w8smI/yBCLg1qVn2f/npf8qj3mgC64SIKn732Fyir05nkEFF1Fsv4USElH6LgDDo9xs6YlxeB5NpZ5AmEQrjJRdmNUSvXF06rHckQuZpKbzbM4i2aoLwjTrEfc+HHBhihE51aaTGM08sJ3hga9Gc6uV0MB6/k9OiXo4f6ujAe2dpm/lAImOk1JImtPThPBErHHrd4yJfhiuAFDLeb2CCcXkqmkxj1eeFxvPCLPrrlUPTbD3X8mdiv0fEht3h5LQm6Fc2pMGQdey+Zs3rdw44XlvB7JZaVKj+hZlYiZoEnmZtvwZo/l4ObcMq6AlbMxCJRat2D8bsfIxD/hR6WjCPZCK2Pp1XPsibnS2IyEdcmNsSw8oG1Ou3kq2XnueV49Y6lrTXpYKBOfOexRYSsZLAtniVVmjkOdfTkqP99KhUuS3jrnnLZ2LlIrbdaq4EJX8kVJKI3fYDIvbDA6VPVIXj9+YGp1eOoHc9dSqUM6Tt3HM8LPIFnUQCnm1hagORYAzNGGhxjGsv3/HOwYqbewfTspIKRsOEuPuSiJWQK+ocKsjg9V2sGdWS2pVLoVx3EJMvBpOUnkru/ZlyEbuOM4VErI8QscXNxOphMvEcDoUenYLTqUl00hRt130HD2QiVkD6nFeEeP6tPeL5bTDWqEC5KgOYedZNXBGGr+VYWquUR7PTKrbdKOgPwv/fu+Dq7i37zEayFEjSAwk7NSRPxE79+kxsauhdtnTVpoJWdyaecPnYl/mw3cz8piqUrT2K1W9zRHkE3H9UxO7liWAiH5skX8TqUX/KrcKrTgIec25UYRHrKnzTXLssFZvOZOftV4XiguN7Z1w8vPEJ+/InXXKC7nN5Qi001Jox4Oh7Xt9cxRQTbXTar+CsiHWyK0NPsLKzJhXU2zBgywtefxLPnVzd8fYPJTpV2votG9f9eSK29vCj2H3WGAVEbJ+D3PiSiJXiUeRLro+viYZSY/odsaeIYQUZsuz3s66d6BcNM8aeeMJTx49t4eD4XpTRE0+/CFJS81W1yAVxAXhZn+fAgn60M1SilEpzulvc/vgu4bcg3guH1a2oUb4UusOPYyknn5/jWz5/UwDZKcS5XOHAtC60MtJGU0uQ+ypVqVq1mJ+hCXWlDeRk7wd/Gcl+D9ndSxtVkZ+X7dvEzsUj6NBrFVeD5J/F+U7kSJ9dcrHi2o4pDG2ui5qyBtWH7eey1FkJL3kiidjKDT6Zic0m3lOIWPlM7A4rScx58np3d+opq1NvxgOsC0+TFMIHEdtiKae94z+WWxKxB75XxM7nmHsxIrb7Ls47FzBiIWJfr8oXsXnCMSvsNbfmNKWOpuBBvRew8YoQPCK32N07xjIzIWSr9mPu5aJE7DJ2f20mVhLNK1tRs4LgCKO3cfJd4fzvKM//EdHy++QmEnlpPN30KqPffy9nX9lyY3oD9LXaMerUe/xlIUWIWCEIjStUpGq/nRx68EkMdXLBzcOHIHFPqczJrtfY1lUSsUNZ/sC3iFUBCSLGm9NCVXCUCYe4+f6KyJ+6aNYbz/I7gcXblNcNTg3Wp6JSA3puvsbdQnFFzt98QolPkhxScM1DfWmkrEbt8dexKjSRFUP84zn0FBxNNhMre78olKC78+hRVRM1JSF+qhkKPxFl0qpG7S7z2GoVSLR021x7Hq5tRzVpBnDsCS48LdwWjk6uuHv6ERKb+vmnFD/go4itMfICTwq++yNE7J3pkohtzfHzb8SBLDzvrGR0HcHRanRn9Lqz3LIROdrxARc39qJhBS3qTbzBs4L1y4glwvMFd/bNY1zrKqiWUqFm75XCZrOkdY+fITdZCP4tvWmrr45Oq3EsOvGIF8IeHWzvsmugYd5yYhHHZWNEBUXssB+YiRUiNin4Lts7a6Ck1oaB66/yRvTdxzaUYq87HgHhREmbRGTHEfd8FWOaaKNSpSMDVoj6277D4c0zXm4S9VfTpsboQ9z6QF1zSI8LweflRY4u7iPErBLKmia0XyHfcFAg5oOInc1B5y+L2Mx3R9nUXg0lHXPmPwv75D3nBBKdNjDGSJlKjRayTT4T+0HEmm3g6Js8L5ZB4vybC4vYONfTLBZlKafbg8l77+JYMA+JtnB2c8czKIqY5M+Yxd8Wf4yIzXLi8kRTDNVq0WTCXq7fucWtWze5eVP63ebOnT1sGmuCdhl9jOc95HVksd4qeIYDj9Z3ob6GEabT9rKsjzEmNTswYNdbOdnPJCf8JEtaCkOpMpKFDwqSlKIgTO7Fl0RsgBCxg2klRGztSTd4G1HgrzH2WC9tKgJEddpueYc0XvdFJPtiv7MPTbWq0nLMdCZO6EJdJS3qjjzBk6LfApch89lKphqXpXSdUayyzy16uUJ6JOEnh9BavSxqvbfw2WqB0HNsN9dCWaMdI89GEiO34TTbrSxoqYO2cQ9m7llEjxpCrJtv5bir/CmpAfjs7YlxRQ1qTbuGdd7RYpBKov/3iNgMckVfLW2tThm13owXhS5MtEKx3m6OqSAl1Uae423+d5G+Q8QmP1vB5LpKlKk2gjX2cR8FYcRlDvUxpILhIBa/LEbEZicSfGECvRo1p/mwdZy9f4kTh/Zz4NglbrzwJLjAyENuypdFbJrNRuY0VKa03kCWvIj4+LzY25wfWoMK+r2Z8zRfxB5mfRdNSun3YIqIpgXHyuNt97PYtAJK2gNY8SpUJmKibkrLif8VIvYjcuK88Lg1B3O9klSsP5lV1kWE6ix3Xu4UJLCMEjXGXOJOQL6vZBFnt4i+amrUGHyKW18TsR+QSnyALaemNsZQ2ECNyXdwjxeFe76AAdWUqdxhJUcKTo1lvuLMJGMqV6hPu2Uv5Ak2C4ftvWipoozRkANYFcq6Pjzd3I3a5bSpLsrrGPWpekgj3teauwtaUKWkNrUnXOCdKFOo9RL66yih1nEnl7780re4RQChwi+bqAty8A3LiTNjHDgz0hCNMrXptuFJ4V3YBcIvT2eArhLqrZdySiR8WV+7fr+I7amvimGfPVgVen3jG0XsvbzlxMHSUrOa5ajcaNEngwnfgSw/XE6Poo2mFkYjt7JomBnta5jQctHDj3VPv8tuQX5UK7VjyMkvTI/JkInzvo8i1vazxojC68E8+ggRq2t+gBseBaNpYRG76olo3WRHbCwaoVNBl8bLHmFXeBroA3J9znOonx4VhIideE8QTvnxr0PE8yhv3u0ZTHs1ZSo2X8TJYCFw5X/9KpL88NzWkTrKpdAaelT4v/z4B3jx/OQRDh68h5OoTuHc9nVkhLvyzuoaF47tZ8926ZWcDWzcsIENBX/r14v/7mDrmZe4RRYgWcUgNfAlx4caoGXUkS5mLRgyYgxjj/oUsy/BdyAlFI/Hu5jZqCwl9fsy67pwkPS3WC9ugmbFmnTa7sDH11xTibXbwMhaFSlZbya7HktTL2G4XBxFS6WKaPQ6xG2f4kcT/ggRGylE7ExTIWIbzuOoZ9HLib8oYjfnvaYU63CERQ3LUbLKYBZe8foo8lJdRG7RRsPQnFmXCorY7UyqpYKabDnxV2ZiU4PwP9hHtiGM0aRLPPuqAYmWCD3N8g66glMMot/cVcxpqoFOGwsOv42R1zEEV0m4VK6Mbv8zWBU5IPoRiS5fE7EizL7ewKzmOuiZdGL0yim00dHBZPQJrvl9gRyEP+XujPqoK9ejp0gkXw5hwbhaTsSskhArnXdxxb1An+RGyTauaqNRBt1++7ggzdJGveLu4rbUqNOfyVuOcPnWaQ7vO8iRS4+xdossUAdvbA72o3EFkd8m3vvkHclvxTeIWGUhYi86igP+PFjdluqlVTGefpcXH2Y+Uwi+P5VOFUWeGn+Np5/FEQHBMYPe7GBuaxUqqrRm2Jkw2WabnyIt7BH7empSXqUVA3faFficZQov5jegmnZDem2Si9hcIWKvjMNMRw3Dofu/T8S2X8YJUf70qDecG26AWuWWDD/u/uXYmeSLw6Z21Cgt8sO4I9wvSFHvT6Gznh6GIw5ws4hglBXtxbMDE+imW5JyLVdy0jHv4jghYuc1FnZhMosDLl9eTpzra8nJoXqUq2RKn6Ne+BVsv5wIwq6Oob1mOXTM98hX1SQS8Wbd10XsiuuyQ6l+99nVTZ2KGt2Zc+dHk/LfC/+8iM1NI9t9N9MaVqR8rXFYPC0qqGQSfHce3VVLU6HBYlmwK94QkgkQ5Gli3bKUM6hLlQplMOq2jK02+WFBkLJMF65PNcWglDo1RhzGKqQgUcsgLtAXb58Q+TJNYUUyEStIYJEiNoI3J0bTtoIy2r328Sjf6aW1BJnh+N+YTkf1Uig1mMqq+yF5MyP5SAzAyyuIEBlxTSDqxSYm1VNGqe5k1loH4ud+guWthbCp2JIhR5wILIYgEWHJrsEGlC1RhRYL72OfT4QTHLl/5gRnztqQk51MlsdepjYsz69KLei3wx6f/Dib5oP99j60kD7P0nIhx72zPxLdxBdcnCeCbdnyGNStQflyDem/xQrH/GCak0ii7TqG1ygnBJg5k89+skteWgh+3v74hUs9lpo3E2ushrpw6K+LWNEvWS5cm9oQ/V+V0O+3g5ui0Hm9lUaU/XZmt6hEORGcBh73JjLfKGQiVpBaIWInfEXEpt1byNjqZShtPJ3deXusC4TjfGQs3TVKUEY2E1vMcmJR92BBsLvXNqSK2Qw2nrnAmTNnOHflBrcevsDGNZSo/HZKDebh/IbUUK9XpIjNeLqKaXUEuaoxjk0fpnOi8TgzlX7aJYVg7c28Z/nvxB5li7m6bNVC1Z7rOGYbkZf00j1EAupEvbJlhIDbxo2AvJnp0OtCxNZWFiJ2VREitpMQsbq0+QYRW1dZErGvCU0Uth3vxvvXb3ntU8Aog/cx07gMFaT3l58Ukb2y3/N0S3uqlVSjzvQnvMs3stCHnJ1eH92SSugNO8fdYkVsAmHeDthauxD8wUAzeb9T+malClVGXcEtUZTHZztTGlTgV/VeTL4UmkfOktx5sXsU3fR+56fyjTETIjbvFtLuxH0xU/6JEprtGbj9Ge/lCSrFZQ+Lhf+VUW6K+REf2a7MiR52vH7jjNcHlpFB+CFB4sqoUW3kUV6IIykB19neXoXyyo3pse4R7oX8NoFQT5GcQuUbbGUHE35pFC3UKghivIeLcmWWnZlNjmxHoMLIzYjAfV8PQWp+p3yTGWyxi/wgiDL87rBrQFVUy1an+bz7eOR3tLMkYgXJ+0YRG3R2Mv10SqHSZjmnC802+QtCNYiWFYWInVyEiJXeia0kidi8N0PTvK9yeLA25YXg7rDqLq8LJf4kYnxd8QpNJL4IU/mIdGIdT2DRvCKVq9RCr1I5qjcbxZzbBb8FHsrLdd1oXLYs6l3Wcd4tuUCMziUlXPr4e6BsYC5X/MVVErE6GsWI2AT8rCwYqF0O5SZLOe4kJwVZUmOmkyoXsWq1J7Ligbg4J5yga+NprfI75Yyl9/zD5O0rbPXtDQ7tOI+Tq2BeKZ483diFGqVEHO23h/MuBY0ii7RIb9x8IokXNpYW5IKTrS2OBZdrP1nECIMKVDCdzeEw+be5A624vncNa/bd4FmwZMlFICuKqLtT6KRZglKNl7LzXUGbyiDq6TKGN2tDh/HHsBeNVpznFUJmPHEB77GzfY3dOydc3N1xdXrHW7tXvHppzUtra6wL/l484/lLW2ycgohO+UIwliMj9C2Xx1VFT1WFUqXr0mvuER5/Rch8jmyyM4JxeWXLO7eIj3k34RE7u6pQWrM7U86LRsvxxmFvN0FaldHrd5ArsqWeucQ5nmXH0NrolP6Fn4znse+xtLAvnUjbXUyvWZqS6p0Yd+SdkC55SPZ8wu19uzj7KkAmdmIfSiJWSYjYJUWI2N5CxGrQ7CsiNuHFLiE+y1DecDgr7eILDHxIInYpg3VV0O1WhIhdKURs+fqs2pQnYiPt9zOjTilKVR/Lppf5I5BReFsuoL9hKX7T7McCy3wRm06cxwFm1FWmnOEolss21hLIyiBbxKPP7CMniZQ3mxlTpzyltXsw/qS7YEQFkB6Kv4+fiHcFyLWII/cWmdFUrxJKOlWpqaZH8yWPef1h84p0oh0Os8RU3FO9A8P32eZ90zcfWTEEunsTEJHXrslCxG7toipE7JBiRSzJrzg7uy21y5QWvMCAchVaMOb4Ozy/pCjSA3A7M5oWyiIWtlrM9heFZ9Fy4vzw8AohXPYOZBqRb/Yxu05pflftKNs5Oa8dovB7uJX5bdUp//P/ojvsEBelmBr5kjtzBK/Ra07XWVs4dOkS586c4+L1+zyyfsf7wGQ5x00h9MkGptQQ/WfQj1nnXQq/J5kWib+bN8ExBb8d+inyRGwnFSFiRxQhYqfJZ2IvSjtCeHB7WVN0f9el8ZI3H/buyPG/xqHR1VATudto0i2sJSMX7eP33o4X0tL8vNMEHoqYr0vlik3pfzSMqCIKlRp8ny0dVCir0oGJZ/NfrEon3lb6moUypco0ZcA26zwRSxyJd6bQRaccFdut4Yi0LbBAjojHOTlFRKsPIlYd9fYWHJFcPD0cz31dMVUuj5rZMg47JxWy44wwL3z9ggiVyprgxdsVzahSWgvj+Tf5sNVV2GPOj6uP1u9K1Bh3nPvJIq/EinOfv8Yt9KNVpNhsYmyN0pRuuIhjckKV/Go/Fk0kPTKIpdbRcj/LIqOogJ3iwsvt3TH6vRRqHVaz3ybf5rIEnT/FDnM9WT7tvukpLrIbxRP+Zi0jhIjVal+MiK1QS4hYS9mh3ER3Xq1pQfUylakyYDsXvAtZtOgbD7z9w+SfUfzvwD8tYnOFyHHf0YHapUqh2X8P1z6M/BRGossFNrYuza//qEXvA6+/GHzSfe9xZoQqv/4kvVdaiRaLb2BdSC9lEvlkI3NaqaJUyYiGwyxYu/cIR48cYu/6eUwcOYsFO+/Ll4YJS3u2kEEGZYVhzmKXcKIC1E0gjeBH65lcqyS/Kjei95xVrN1yikuPPUgUrpIS/pRTE5pQvUIldJsNY9bmwxw+coRDu1azbNoIRlic5Y6oTFrgNQ4O1pcZqNna5zjJck0A748OFaTxF0rUmcaGJ6HFjEaLIHV2Fv30y1CqcgO6TF3F5t1bWDe1Mw1NzBgw87JIQJLH+PJk4wBxv5KU021Jn3kb2SrO2zi3D62qVKZilZ6ME20bXCg2xOJ6cQ59pU/DSO2pPU6UI7BQoshOfs9ti240qlQe1TriHqv2cuDIUQ4f2MyaWSMYPnc3R55LFRIkMHA/U6qVpIzRJJFwviZiJWQSLvpqbsuKlCunS+0+87DYuptdG+cyrlUVNCtWofG4A9wRhf7AhUPOs7O3BqWVmjPySjThX+JNPpfZN9SIyhUMMB29ke1Hj3Nk+wKm9jdG+/cSlNfuzaKX8l2BP4OwBNcDWHTQoMRPJVAyakazVm1o37Y1rZo1o1X3scw98Jj34uLs1BCsZtdCq4whLRfd/fzduYCbHB1TB/XyOtQbtpZNR45zeOcSZg4yRb/U75RR6cScp3F5gd3rCFv7GfDrr1L5amHcczLz1m9n6/yetNIpSUm9bgw/6oq0D5GEoCtzGKz/K2UbWXAhoICIzXHk2YZWGP5WkUZL7LArVsQ6c31RU6r8qkPDpfaESi8ihl5k96xhdOszkxW7D4m+3sCqEdLnLKrSeOIx0R/ySwshEu+7SxlWXYnyBt0YZrGfo4cPsn3RaHrUVaVSiV/RGHaGm17FUelwHC3XMbNbD0ZItnvwEIe2T2egqQ4a1Xsw+rgn8ZLYSLfh3PSm6P9amsqNRzF3w0bWzh1Kj9atqFOpFKXV6tBk4TN5MsmWvYPeUuMX/l9JfWrVbU//6avYuHU5c7oYovm7Mob9Nop2E56em0Po5SXMGd4b8xkb2HXoMAc2zWFUE23UDXow9pB93mh9ahhuR8fQ07A85fVb0n32FvYcFvHl0E62LJ3GiBEW7Lj5Xp6kE0m038y42qUpIcRy50mr2bL/MIfu+ROb9yHbTyDIpPd5Ng+uSaWSldBuLmxs/S52b13G/P71qVpZFf1uK9grSO+HOOW8lWnGIjYYDsXCRopYX0ay3XYWt6zAr6Vr02rKWtau28GZp36ivGG83tcb09+UqTr2OnYF3+vwv8+pQSLBlmjJ5Vvy7bEyA/C6Opt+tSpRXqMZnSatZaeIfUcO72KrxXSmjJrKmhueeH2lQNlRDjyeXxut/5Vi0C/UGL6P65/kiaR3x9nSpwpqFXSo0XMmS7Yf5siRwxzcInxo7FSmrrjEG+EPUou67exBU+Vy6PQ9IP+MWkFkEed0ilWtlClZ2og245awZssxjls6CjqaQWrECebXLUMZ/REsvCUNc2bJlnjvG1JPxAtltFuOYv62vexcO4VRXRtj1Hw216zyRiYiHI6zqpOBKKM+xuazWL5btIUo496NC5gzaRwTtj3BOTKX1NfH2D6hK93HLGXNHmELB9Yxt1sNDDRNaDfvGg758cxqvhAyok2qDmfJKylSFoV0QdJus29YfXRU69Ny3C6uPHjK08d3uXVyJVOaKMl2Oe+6webbZzrjnXE8u5BRg/rT27wv/fsPYMCAgQwcNIhBRf3696Hv4LGMXHkVm8AilnF8guxwR26O10VV5Jv/rTaJZXeDZGLl+5BFVtIrTgu/H9pnFLM2iVhxaBvrpnXGVEuLan02c1r27cQEIl5tYYqxMr+XqUmL0cvZsm0ps4d1p7FRNapWEO1rMp2teS9rkhXlxOOVHWioXJLytXowbPlu9uxYxox+bWlctzPTLjjLBijj7y9nrNEvlK4/j+Oe0uf25Mh14fXuztQqUY76s57w4TO4RSDL9zrHhgpO8Ks6NQctZMnaLRy7/hbPzCQCny6gT8USgthv4dT7AkRUtkdFY9T/Ycii1XlLCFODn3J2bG10pdzSfxGbhQ8e22nBLHMT6qn+xk+V+zHnoos8HuaSFvpItmqg4u8a1Okr4vtWwYtOPsEjJesT7iNBCNtUF+6t7EnTyuWpXKs7Y1buYb/I/0cOCg4yR+T/2Ts4mP+dXTkibs9nfB05p6jUmdl3wwoNNksre+y296OdTnmRVzsyYNFOwSmEvxzYyvqFUxg+ai2Hn3jLYlmq82U2tilFCY2+LLztXbSIJQmPCwsYrik981f+UWcuh95GyutcHLJI9L/D/qH10S+vhmG7ccK38+LKgW0rWDxlpLDpKzyUf483K/o9j5e3w6R8CcrV7cOYtbvYsWoqY3qYUKuWFmX/539ELtnNCdlr78H4nR9DO7Wf+b+SWug1aEu7tm1p07I5LVq0p+uYVex97EOIuHV2uIh/qzrRUK0ClY3NGSlsTuKQR/ZuZNWcSYwYv4Vzb4KKqbeEEBzOjqBVyTJoDTzDQ/8C6in0FTfGG6H0sykHT0l7s8ThenkW5nrlqWDUlwlrD4ocvZfN84bTuXoFKpQsi8HEmzyTEl3aC+5sHk8PwXNmrd3LwUP72Tm7M031NKjScTH7HUW8/NxgyErw5MmKdhgrC07cZiIWoi7HD6xn6cj2tNIV9liyBb03PJXnxzQy3PYxq7ESJcvWp/WYFWzes599tzwJl3jIp8hNI9dqLn10y1C2yTz2yIhWBjk+Z9g4oCZq5bQx6jQDi52iH4+KmLBtOfNGjBC8/DIPJJKXEUP07bn0M6pAecMuDF4t8vbxvWxdOJieTbT4/ady1B15mPvZucR6XmbL0J4MHj1XxHJxr4OrmGNuTFWN2rRccEvkxzyRku1/m1OjDFH+VRWj/vNZvHYzx64+53WRpDKNSKfTrBF5QrWkKoYdxjFv6z72bV/E1J7STus6GPXazDnnKHlMiSfUbgUDVUtQodkq9r8ukNCSA3Fc2wq9X/SYseiS/GAiSY77WdzFgIoVDKlnPp/V+4QtHT3A/o3SN/dHMnfvPZ5/YXDt74Z/WsTmJAXyastAurcewJQjdp8tj/uAOBH8dw6lW4uODNtjw7svrXJJ98Xz0iz6NGlArSbT2HTPq4gEHYHb9fXM6VoPI11NNKTNNqQNNrT1MTAZzKRdz+SzZcJRnA+zenBXukwUIls476eukxNqy4O1QkBU10RdVRW1Kn2ZcuClfJQ2k1Q3IZSmdaWZoQ5aGpqyF+W1NXXQrWZK2znneBycROzrgyzr3oJ2w7ZzxSP+g9BIkzZMmdGR1s0GMueS0+fvUuYj1pHn+ydi3sAAXQ01VFXV0dStTZNhazjwLOxjmcNfcH3dMLrU0UNHdp4aalr6VGs2hJmHnuNSRCRMcbvFiQkNMGnQjNbzr2Ed8PkIQk7QI84vG0iHmuK+mqI9pTpqa6OjX5NGo7dz7LUU6LPIiLrFzuEd6DJSHHv7cfzuywjH9fo6ZnepQ3UdDVkbq6ppoVOtGV1mHuKyKHQhuh/zhCsW/encbRobXyQQW0Ss+4gYIay2MMesJtVE/+tVq0E1k26MsVjIvNkiWfZfyjGXJEF1ioD0bubr3czvWp+adTsydOFG1m9Yz/qVS5g/rhtNtUtRvqq414VQEpNicD04mn5dhjPt0GvZLqmFEYff410sEnWsoSvZhhGGxl0YuXA+CxZMY7gINocc8zamwfMw63vWoLJeU8xnTsG8ZV2MpL6UbLh+L0asv8e7+I8tEv18H2uGmAmBdJynEWkfbSHXB8dzsxjavieTj7rjXqxPBfDq0FSGmvVn4jFPpC/NkGTN5ZWDaF1VsmkNNNXV0dCrQ6PBGzn6Mn826nNkRTpgtXkQ3erro61TBf0qdWjWdzITlqxmyfBujN78gBdFLVWSIZXg5wdZJYJ5TV1hB+K5Mr+t1YXha29g8yEpZBP96iCbhjWkmrY6amoaaNdsi/mK8+xbN4uZo4cz8aBT3s7jojW8zsxhyoQxDJu3nt2T29Nc8mM1NdS1DTHpY8G2x/krKHKIs94tYkEDYSvi2eL56upa6NZuz8D1t3hRcEVHkgtWuyYzuElV9LRE+0j+Lm3CoVsdo/Zz2XxXCG75qTlJTtxe3pcuRlpoSPGjXg+G7HlPWLHukU7Ey0NsHNmCevriGjXJHzTQ0qtLk0Fr2Pc06OOyeMkzAi6zc2xXOg9ZyzF3KaV/BakOPNkzjo6G8vJoN2PoXjs8RSv43LJgUofuDNnyCrfYAvUNt+fhmkF07TiDp68+DtHkJnpif3QGI9rUQF/0hYYQEDo6WiI2VaV269Esv+VT6HMzRSI7imir1Uzs1JBatYcy7+TrIpb2JRD84hCrBzahvoEot+gXHSn+aOmiX6sbA5bdwFHOWIOuLhaEoDv9l93GrajGEAT6zYGR9Gygi6bUthpm9FtxDx/R/xkJjzg8pjNdhqznoE2+w0hLTw+zbkRL6olcIssBGjpUbdSbkdsf4ZLPznOiCX62myX9mlBXV5RRUxstHeE/WnpUMenCgC3PcZUGkgIE6ZnTngZVpHqI+6mLvtU3of3UvZz/8NH6DGIvjqOHTkkqtF7EAQ/J6otDGlEv97FqcHNMG7Sk46CxjB05QMSNetQWcaZ2/zXsflJYZHwR8a44X1zBpNEjGDJkGCNGCDI/8gu/YYMZMkr4+Prr2AV+ZXmqQG6MB9aru9C8ZkO6rb6LXfHs/IvISRdkeYuIufV1Ra5TF/FC8mkj6nWexZb7Ph9icG6iN/aHJtC/sQHa6qLvNPWo22MWc3adY/+sHvSZtoMz8m+BSvk8PegBJ+f2pI30LrCaioi7WmjXaEu3mSe465uXixLtjrFlRHs6jjvI/aCCKwMC8Li2kFHtuzFurwNORSYWOXICcLu2lKEN88qlql6djgsv8ywlhyinw6zs1Z6ecy9x37eA+ksOxv3YZMzbDROi5FXesZxYIl/sZGFvU4yET+jqGQhe1BPzsUvYunQ4PUatY/dD349xIS0Sn0uzGdO6qvy5jWgz6QSvEooSsXnICbHi8qrBdKwtz//aos21pPxvhOmIzRy2+WTAOuweF5Z0pW6t5rQbfYAHYakfhb4MuUIU2nNr/Qh6N9BHV9pgSCt/I6Pa1O2+nIPWQbKBmwz/Z1wQ4ql93xUcsgktNr7lvD/Jru5l+X+/CZE18Tq2YUUP+xRGCvGOp9k6zoyGVUR/C/4m+azE3/RqNKPj4qs88c2/Tzqpvrc5OKUTTSXfFdxKXasOTQdMZ9WZ3Szqb87kpRe5EyF8NdUbh2Pj6FKzBo26jWPGyi1s3biWlQunMb6HMVXKlUWz53qOyJYr5ZIRIuq4pB+d6kq2LDikaAtdKZZWMaFRfyFqHCOKzbkSx/F5vJ5ZnTrRf/Vj7AuuoIlxwWbbCLq1n/hhV/nMEBvurDbHTHBEbRGnDarUpeWgWUxeZMGi4T0Yt+sVb2WDL17YHp9JX2MD9IR/aQgOoK5lQI0OM1h+ybXwjHwhpJPuep7t49qKeClt6mRATZM2tB8i7NFiFANHLWDRSYePn1PM8OTxJmEHtbTz8lENM3ptssU3rihrFL3veIBlA7rQdfJ+rn/YYCuVCOuDbJDnTKkftaXNmoSd6ldrzeA1ljzLH8RPesfttUPpXlv0s+Cx+iIONekygoXbLBjXZxQz1lxDkvtpIU84N70DLasLu5DqLuVg/Ya0G7Odi26JH2enc4LwurmckU2qoCv5k5ohZnNOcquYCTtyYgh9vptl/Zvm5QlVFVTURHmrNqTNyA2csI8qkN9TiHY/yWrz9nSffqrwbvrCj33PzmRA+0HsPPRMflAgN57AB1tZ2r8hNfSkTdKEHcnaQg+DWp0Yu1PYyNfD9N8G//xy4pxs0hNjiImOJzHtC58QyM0Wjh9PbHQ0sUkZZBQXTWXIIScjiThxblR0EimZxZyclUpSqAdOz65x5cxJTp25hOVDOxy8w8UzCuwCKZ0XF0tsfErRL8+LsmXEB+D+4gaXz5zh/L23uIanFSAVIvFJG+C8e8K9i6c4cfIsF64/5rmjH4GxKaRni/KmJxEfJchafBrSl4E+QNw7Uwig6Mho4lIyPgn0BZEr7hFDhMcrnlie48zpS9x84Yx3VDKphT5SniOqE0OItH245VnOnDrPxbt2OPpHk1Rco2ZniD6S2jKaGNH2+buuFYYoZ4ogaS6veCzue+rkac5duYeVvSe+UaIP5Ju35OakkxIfI9pSlKtQRb+MXNEHiSFuvH9iKdr4FKcv3uWpoz8hojyfpaKcDNKS4oiNzds05oumIiDdO9bfgVe3LnL+wnXu23sTnJBEUrIQr3GJsvYrqqQ5qR7cmtucmgbN6LnGipD0TDIyhG2mp5OW7MK1Ba2oVrEKJrPuE5WcTVZKPHGx8SSkZBZZJqkc8UHvsb1zSZTDkrt2ngTGJxYqh+w6N2ljJwMq1RrKUiGwvN3tsb4u+vzSA545hRCTWtiPcjJShP0KH0tIFX5T8C+iTGkJxMXEkiCuKWQmhSD1rXRenDhPWuYqDuVmkpYYiq+w6TsXhO8Ie7N86oxXhGTPeVcVjRyykyMIdnjEnUvnOHfjObbewraTUklJEOVITi96mY0cUl3iQ1xxsLrKJeGzJy+KOr8PIurTWYLsdJJDnbF/cIkL569xx86HoHhhx6miXxPiiBfn51c3OzWBhIRE8exUUqP9cHt+nctnz3P54RtcQpNJK1Ce3Ixk2aZSDk+vcfHkSWGHd3jiFEiEuN+nxc5OTyTG9w029y5y9oR07nXuvniPR3DsJ7Euh8wEET+sb3Ll1GkuCH90iRR2XWx/CAg/Sov1w932HtfOneKUVEcbd3wjU0n/1Liy04TPifgVlyRsSNRBfrh4CLtICsbb9jaWZ89w7vor3ocmyfwsW8SpBGEvccmZheNAjrB9yediEsjILNwSuRkJwq4dsX14hXMnTnDy/HVuP3+HW3A08aIdvmguMogSZ6WQGCtiUFQCSenF5Anh96lRfnja3OG6aJOTJ89x+e4LXrsFE5nwMa5mp4m+jhV1EDG+SJvPFTaaEo6//T2unz3FmevWvAlIlsXe3FzxDCl+ibZMKdhBoj9SY7xxeX6TS6dOcv66FTaeEUSnZpJd8BnivGRhY64v7nDt7AlOnLrA1XsvsfcMIyIhHVmqkt3LH8/X4vmiHidOX+Wu6Fu/uDTywqj4P6nu3JrdjDq6pnRZ+RDv4hNDHqS4GylynbV47qVLXLp6k1v3nmLj7EdQTMp3xWJyssgUPhMn2jBG2EKs+O+XfyL2xMYRlyjKX6gxikF6PJHvH3Lz9jPs/OM/j+/fCikvJ0UR4mKNleVpkXeFT9+3xyUk/pOcKOJqmiCOziI/Xz4r+u4ptj5xwkelvC1iRYKUqwoau7hvchi+bx9x+7yIfSIGPHrnT2i8vP8EcjNTSRZ2EiM4Q3qhOksxN5F40W7xIg8UH3Ml5OX0UGcr7l48I57zkFde0UivqedInET6BKFo00LxVtQ5S/RNrIjVKakF5Fy2yAGhTtjev8y5c9e4+8qDoFgRD6S4LuqXIm7ysSjSDq2x4rlPuSfF9suPsfaMRbb5erEQOULwimBXG9HWZzkt8v/Zy3d5bO+BT0Ti55u3ifyRnhwn/FnKS59wng8QQlZwvghPW17cOsdpEUPPXL7NAxs3vEPjxT3lBRL8JE3ikDKfzClQj0/gdYGDA3RRVm/BsLOCexWndj+FlOsSQvB6LfpbtMcJEVcu3XzKS5cAQuJEvC3ULlmkJwTi9lKKnee4ct8Op1DBQzIl3iPyp9Rfwkai3p5geXsdNBtNZ7uVP2kZmWQK7pCelkyM51mWt1KlVNWBzL+Yv9xW5IjkaEJdX2B1TfCrE6c4dzWPX/lHJHy53lLOFXkrISZGxDyRVwrFbeHLyYJXi7idLuKqDJINidzu/+Y+Ny+c58Ltl7zxFfaalEKylKOF3ebdI4/zhXnY8lSU6cyJ04L72uIQEF84NhYFEUfTor1wfHqdi2cvcd3KUXAHwXGSRa4Q3CtRxM2PdxB2kCx4ju1dLAX3O3/zJQ6hee34OcRVIlfI+HqC8L1CdRVxVeRMD7v7ImcK7iBi7yUpxrgFEi640cdzBUdOicT/7WPh32e5eOs5r/2iiEsVOSg+gcQkYa/irFxhd6mxQqC+vs+tCyc4dsqS29ZuBMR+as95fhzuIvzpkvDjCw+EP0XKdm8uFlK8jvbFRYrXp0VZzwu7t/UiSNhbYVcS986PBVIdCuYBKY/J+F0cyUI7FILECaK8cJY+uXVG5GTB367cF/3sGUKUyIvfkw7+6vhjNnb6j0N0tggy6RnFjzR+G4Txi2D0RT6RJQJVuhCC/0ojEYQyUxDJrz5COk/U+Wv857shEVpRx0+47B8Eqa/Evf/wQgtIAf07Cp2dZMOh/kJMKjehz06HwiOhuW+5OM0E7Up1aL3C5uN3TL8FuV8phxCxazrpoVRzGMvtcvJGnqW+/Fe0ybdA2HSGIBTf6zu54rpCCfW7ICVm8dyv1lnYd9GjLl+AZGNCfMj/VTQkX/+W50sQ/ZkuxPlXnT7vnt9b3BzhDxnfXcdvQa6sHX68jz6FID2iHdL/uBsWC6lN0tN/bDfbjxAEQYo131Vc0Wbf2Ic58pzzRS4j1ePTWJArSPHrzYxtWBvTvhs47f2lz859iiwyUpIFqfnyYNF/FNK7l9kihwh/+cPSZI5ox6+0tQziud+Tm3Ml3/s3tKMUK78t1nwNov+FQX9rFfPq95298K/I/0JISoPDP97W2fjfWMwoI2mjrNkc9kz66msVRUHqB1lc+WqT5MXOooubRdDTjYyuWopypvM55FB42ivDfb9sV+qydSay8k4RKyT+pfyqMGTx71u6X1amH4m3Us77loFMCd8eW78GWVwVz/1aeSX7/5b4n5slxfKv+9WP+LFU1q9zhx+F1KZfz0N/Z/xNRKwCCnw/cjODsdvel9ba5SlfpS39py5kycqVrFw6iyl9Tamupk31bsvY/zbhKysHvhMu+1jRVo3f9fsy/1nKx2U3CiigwN8euSkheF+Yy7jxS9lw3bvoTecUUECBj0h/x5XZjdD6WY0aY6/xPv/Td/8R5JDsfZuDQ6uhrqRFtTaDmTR/OavWLGPxrKH0b2GAuoYpXZfd5OWXdqVUQAEF/mkoRKwC/8XIJSPAihvbJjKoQ3OaNG1N2/ZmdGjfmhYtO9Fz/AYOP/YpvFvzH4HA6xyb0Ruz/ss46JT2hQ0dFFBAgb8bctPiCXN8wnNHf4L/i95dUkCBH0bsfc7M70Frswksvh6K9EnQ/ygyYgh5eYSt08zp0KIZTVu2xaxDe9q1bkWrjoMZt/oiT3wSf3wpvQIKKPBNUIhYBRQghTjfNzy/c5XLFy9w0fIuD+39CfuR9UrfgtQgvOyseGDlgHdC9g8s4VFAAQUUUECB/xIk+uJqfZ+7TxzxTpTmQv8kSA3F960V965e4ML5S1jefYmdd/xXdk1WQAEF/igoRKwCCnxALrnS+1z/qtcXFFBAAQUUUECBvxdkvOEPfAdcAQUU+CYoRKwCCiiggAIKKKCAAgoooIACfxkoRKwCCiiggAIKKKCAAgoooIACfxkoRKwCCiiggAIKKKCAAgoooIACfxkoRKwCCiiggAIKKKCAAgoooIACfxkoRKwCCiiggAIKKKCAAgoooIACfxkoRKwCCiiggAIKKKCAAgoooIACfxkoRKwCCiiggAIKKKCAAgoooIACfxkoRKwCCiiggAIKKKCAAgoooIACfxkoRKwCCiiggAIKKKCAAgoooIACfxn8tUVsdhopSQkkJKWTm5srP6jAP4dMUsI8cXlrwyvrl9i8ccLVJ5jw2BTSsuWn/FHIzSAtOZGEhBTSc8Q/5YcVKICsKILeveDlq/d4xedQsAuyM5KJj44iKi6ZrOwfab1cstKTiI+KISYxlaysWILe2/DS2hGv2D+6s/8Z5JCbHk90RDihYRFERoQRFhJIYGD+L4jgEHEsPJKomHiSMnPFFX8i5GaSLrPzZNJFP/157DyHzJR4YqKiiRUx9M+C7NgAvJ3ssbG25qXdO957+BMcGU9yhrAD+Tn/eWSTkRxHTGSMaLuMP0e50iMIcnuH/StrrF/Z89bZC7+wGOJSs/5c/qDAvwnZpMcE4unwmjcOrniGJpH2LzWEXEHJkkhKSCRJJHRFPldAAQX+1fhLi9jMQGvunzrAsXMvSU3Lkh/9VyKTtIRIwoJDCYtNI/PfwgyyBdGMJTIkhJAokYQEQf/XIIeMuABcHp/l8NoFzJ0xifGjRzBs0BCGjJrB8iMPsA2XzvoDEfeeV5cPs/fYHWwjRT3lh/8jkAZEYsMICQknKimTH2vmDNITIwgJDCYkJlUIFvnhIiHqmxxFeFAQYXHpMhFfGKI/oj14Y7mTleNGMnXJAa76ZZMm/yvE4vfqLHtWb2D7lfeizD8gOnPC8Hx6lB0rt7PvvifRSR48O7iUWSMnsXDvTZ56x5Lyp2AimWRF2PP4zC42LFvKshWrWb1+E5s3b2HLFum3ifVrVrBk4So27bvBq6iMAu30RyOHdBEDwoNDZAM7GfKjX0SSG2+uH2Xvoeu8CEn/F5btO5Hth/3lnaxbvY/Tz4L+46QzNzWKgDe3ubhjGUtmT2HiuFGMGDyYQUPGM2fjKW55pPxJ7FEUItMDmwvbWLvmEGdtIsn6T5YrK4Foj2fcO7GRlfNnMnXCGEYPH8TgwcMZu2QvR58Gkfg9wTU3i4yURBISU0gtJsnlZIp4mZhEsghyRY8fi3skJ5KYlEb6vyM1K/AJMkn2fsjlDVMZ3r0D3QdNZcaep7hFxZMYI+W5SGKS/+iOSSTg+QVOHTjBxVfhZP6ZxkE/Qy652cnER4QQHBpNXMqPFFYYfnYKCZHSPaKI/aF7KKCAAv8M/tIiNu7hGqY0rUaLjiuJjf93UEN/3pxbzATzEUzaY0tg/I8FvpzsTDLS08nIyimGABREJH5Pd7Bg4ACGrLiJfeC/ZsYkJ9qWGyv7YVanDg16zGTFgbOcP7ufjaOaUr1UCTTN5rPTRUqN34scsjOFSEsXwvDT2UL3I6zvWQu9xhNYb59OkvzwH4Hc7CwyM8RzRSbN+RaCGWnP0x3jGDhgMituBvBjzRyG76MNzDDvw+AVQpgHf4EkZHnhcG4B4/uNY+kVb/xT5cflyIq04bqFOV1a92DAknM89IwRRLTALF7uO+6s7YaxVgPaL3uOf9y3VPITpLzgysKW1NRrSs+tTgQmZZAS54XtqYVM6taGNgNXc/yNeK789B9CbjZZmRlkSH0hbP7jTxwT9v9NfSP5TLQDj9b0pY12SUqq16NJ/znMXbCIJYsWsXjRTEZ3qYd+aVX021hwLjjlXycUc2JxPruIKX2GMmX7I9w/lD/fzjM+t3Pf8+wZXB+9+kNY+jSBmB/oqj8eInbFXWPbgDroGfZh4km/7x+gysnK69tC/ZrfBt85E5Phg/2xmQxpWpPaLYcxZf1hzl45w4H5vWml9htK1Xoy824UEX8KnigKEXKWDebV0a01kJlXosj4rsrm5YDMjIxP2k38MrLI+TanyENuAoEPNzOvW31q1e/EwIW7OHjuIue3TaR/vXKUUGlCh3WvCUmRn/8NyMmIxPX2QXZvP85l2yCS5cc/IoYA20sc3rKb/bfdCE3+tFMyyY59y4OjO9h75hmvw/4UBv8vQ67wA1mukfrum6oq4l6W1Pc/4CffijQHrsxqRwNVFXTrt6LzwHEMXXiKl653ubRhHAMGLWbTnWD5yX8UfLi/ohuNqzWl25pXJH/TCN9/CqLtIx5wfO5gzEesY//TCPnx74Gw8+hHnFwwFPPhq9j7JFx+XIE/BFJ+kfvVDy00U+C/An9pERt7ayFDDStQo+FcomP/DSI214F7qztSU7kq9afcwD3yR0YyY/F6sIMVYyex4IQQDl9VCP68PzuGtmrqaPXayz2372Aj34pER25ZdKORpi51zC049MqLgKgEEhOjCH+2jGE1DanW1oIz0TL69h0QkSfTiTsbpzJp+haO2CTIj8vhtIslLVUoVXUgS16l/3Ni6RPE2hxjx6xxTNpwB6fPSFYR8L/N2TFGqKmb0GuvKz/WzGkEP9/E+NpKVKw/g53W4cW2V7bHeXYPqIFWjaEsfxpCdIETs6McsFprTivTzgxacRnrgEQ+09TpbtidW8ncWavYcT+U2B8R3QkOPD+6mJlz1nPgRSxx8hGKnAR/HM9ZML1jIxoO3Mo557gfGLwQ90nyx+n+GY7t3MDalctYZmGBhfgtWbSApSs3seuWB4Hx8pO/hsw4Qk+PoavGT/xUpQ+Tz3vg6uWFt7f0c+fNwQmCtOuh3mUnVhHp3y/IvhU5wTxZ0YEGFXQwHX+Slx8e5MHjnbOYOnk1u59EF+53z2Ns6qxFKa2uzLgfj3CjPwFEwaOecWXTbGYsOcQFh7TvINM5ZEW+54XlUfZtXsuq5ctk/WphsYTFi5ZisWIPF+wCCfvmTgjl7bEpmFfXQK/JaJZbOuASHENCciIxrkdY17Me2nqDWP0mjh8Zq/njISoW/IAL62cyfflRLN0yv93ecpOJdn7A9eO72LJuJSuW5fmExZJFLFq6gmU7b+LuHyc/+WtIJ/LxBua01kazRmeG7rTCzjeC6MQkEiNtOT2lESZ6ppgfCkK4xDcjNy2Ypys601y3Pp2WWPLm0zaPe8o1i3boqVTBqPsWbvglFLb37GjiHi1haENDjIfv47yX/PjfFIkOFzg0fyzjVlzFLvYblpan+eBxZRVTR89l010/gr4hPX0f0sjy3MfMhiIPVe3LpOPveO/qgYtnIHGB51nf2xBljc6MPOgmP/+Pgic35jajSoVqNFv4hKQ/tYhNJcP3MAtbaVG+yiBmX/CXH/8eiHYOOM7StjqU1+vLjHO+8uMK/BFIdr7GicVjGWNxkRcRqf+awR4F/vL4S4vYlIfLGV1bHeMWi4iJ+3fMxMYQ8v4R1y9c55YgaQk/9IJJFO+ODKJ5BS3qzXqK5yczcJ8jkVjfl9y/fJkrTzwIjf+DlwClheN5ehzdNEui1HAKq19EFRYsOU48On6M/cee4yP++f2BxIo9PfVQ0+3LFMtPZKrzXlaY6VKx9nBWvs75tqWZ34ioazMZZKiMVrfdPP0WApcUjO/La1y+fJsnHvH8aDOnBzzk7NAqVFJqwqAj7yh6rDsV3/PT6F9NG8PBp3gSlvGRBGeH4HNlHoNqVsF47EmuB31pNjeBuPh4YYcyWv1jSI8nNk7cQzR+oXtk+PPm8EhaVqlHx6W3sQn/np5PJNhaCLexXWjbrCVtzLrQrXsPevbsQY8ePejaqQPd+o5kyoHXuEXKL/kqMgk/M5puGmXR6Laec5/yfN9rXNg0l7E7bAhO/MNZ4UcIERLq8JDb569yx8aHiA/NYsfxoUZoq3dg2KlPRvW9TrKtV1VBKM2ZZ5Xyhw7W/LPISY0lNj6J5G8dpcgMxO3meub1a0PLFm1o07Gb6NOe9BT92qNHV7p0Ev82n8aGO+74flM3ZBLzYiMzGpSjrJYZI057iwhZEAG43D/Lrq03eBOX/kODKf8q5CTHECO13TfGiqwwG+5vmcDAds1o3ro9Hbp1p0fPnjKf6NG1E5269aHXpL3YunzLrJAQzkHX2DXQAKVytWi54D5un+SSEOsLnN+zH0v3TFK/J0BkxuK3rzfNyv0fSh1WcDRAflyOLMf9rO9ckp9++omfKvViqTQIJ/+bDIk+OKxvQ/VSKtSecpaH3zpQ9RdFwqOVTKxdAdVWa7n5LeMPmU68XdsGHaVadNvnKsurfyyEQb62YLBRRXR67ORijPywBBHXnR5bcv7yY156futgybfCj/uL21JTvS5tLZ7/yUVsFjkJnry5f4Vzls954/8j68CyyUn04t2Dq5y7+gx7vz9TZP/rI+nFVmabVKBS02VcCP0X5nQF/tL4g0VsKvE+L7h/4QgHdu9i94FTXHzkjG98gQyam01ysDOOTt74RyWRGe3Mq+snObLvAIfO3Oa5RxSfzNfJkJPgh/Oji5w5tI99R85j+cof16vLmGiqhYkkYuPlSiUtDH9nF5y9I0jKTSDo3X1unDjA3n3HOHPHHmchGIpCdpQLr+9d5PShvezZc5Aj54SYcQr5ZOlfDmnxYYT4+BEUIwiVvFqZMX54uTjhFJBAdkogHs8tOXNgL3sPX+SWjReh+cxL1MHr7Xk2T2pOjdIq6HdfxZ7zd7j7yJ73AbHFLIHMJTM1mnBfbwIikkmRE6bsxHCC3B146xVDWmoEIQ73uHREPPPgaS4/dsT7m+JpOkmeF1jftjKly5jQZ6ct/p+RHUGAkpNJSvzO2a3sFFKD3/Dy3hpGN1BBqXIzui44xe27j3ks2iREYn4eB1lppo+qyWjW2ETgan+fmyf2s3f/cc4/eo979KdPFOUNc8bu3iXOHtnHnl172Hv0AjfE/QLz17zlROLnYM35uV1orl4WFdMxrLpwgzv3RZLxjiK2OMKZm0ZqtBCy3kFECEb/4bT0CPxeXePikT3s2rmX/Seu88gxkMjiEnRaAD6nh9BMRZ1aI/ZwyjmY0OCPGxAFBgUT5n2TvWObUtOgPaMvBRNV4F5pPlc5PKwm6vp9WfoghE9pRm5WNL4297l76TQnL97loZ3fd85OiZOzw/B4cY9b505y8upDHr0LJa2Ie6QH3GZvT100641nya2ilhUWhSxiHI6yxrw2VXXr02HiGjaJOHDu8lUsLS1lv6uXL3H1xl3RjuHEfOuMd1YYz5e1oV45bUwnneH1p+VNCSLI0wl7nwQyiuvjryE9XPT1DS4d3ctu0df7TlzjvmMYMZ/kz6z4EIL8AwiITic3J4OM8Pe8ttrMpOaaVFIyps2Mo1y/+4iH1m4ESC8j+p9le69qqNYcwCKrYJwdnnD3tLDzfUc5e88ep4iiC5wT7YL93XMc37eTHbsOcuzqc+wF2SrkFZkxRPq44PDel8jUSHxe3+LigT0cufqCtyLxf96tuWQk+PP+gSXXLp3j1JWn2HpEfj7TXySi8bu9gsktqqBdrROD529h57FzXLqS16+Wlle5IvXz9cfY+cUS/1W7zCE36Q2Xx9dD61cV6kw8g81nRpZFRroQ/vGpZH3DWs2cBF8cH1/h/BHRvnsOcPCUJXftAwj/tIKyTZCcee8eSHRyCK5Wlzi9fz8n7r7DvSDpL4RsMoRAe3tH1PH8GU7eeMlrr1j5376CuPc82tifdoa6VDWbwOwN+0WOucwVuU9YXr3M5avXufbQgbDorztFTnogznt60qh8CZTNVnHE83Mbyk5LlW18mCrs9+stVwC5meS6bGFa4/KUrDqEWTcTClyfQ/DFuYwz/T/+97dfKFWqJr33OOBcoMjpwc85MbgKqmpmjDn2rvCgRIo/7i8sOXdwNzuFjx06excr50i+WGMR88I87LGzc8InNqfQ+8dpsQF4vn0tYns0yQU3MshMIt7PEbtXTnhGJcvieXZCEJ4vb2N5+jD79+xmt8gzZ24LThBaeBVCeoQnrk5uuIcmiTzrjeODC5zYv4/9x67y0CGIqA/xIJpAZxuuWvSng05plGsPYbGwt1v3nmDrHlYorucjNcIHt3vb2DKkFpXK6tBgwi72XrvLA2tHXEIKzDblxBDm9JibZw5zYO8e9h0+zcV7r3GNyvpiX2anxBD89ga3N5jTWL0C6k3HMfeoyBPP7HGJyCQjN4uUcH8C/ENFnsu/KIYgJxGHfGKITkoi6v09LAVn2nfgJGfvvMUrpqihoxTifW14ILjewX2CL114iE3AO64s7oSJ1jeI2KxYQt2seXj5hOB+oi92S/e4xzOPGBK/QjRyM5KI8XmHvWsI0YlxglZZc/vUAQ4cPMk5qbz5STPei7e3TnH0wEEOn7vLC+GrhaVqKnHBvvgHRPDB5bLTSfB35K1zAGFxiaSFvsHq4lEO7T/EsYsPsfUX/iQ/NQ9pxIdI9wgnSnaPXHIyogh4L+zKP57YhBhC7a9zQcSj/Ucvck3w1nBZc+aSFmTLowuHObj/KCeuvcIlLLVwbBf8Ncz9LW/euOEdU7jfc+IC8XJ8g4NL8Ieltqmhbjg5eeIdnkhmrCu2N09xZP9BDp1/hK1vovzesQTY3BB8Zp/gpxe4ZedDyJeCv8hvMT5veW3zDpegxI+8KB8pYTLbsbX3JjQ9/3WneCJdH3NL9Mm+nbvYc1jw9eeC8xVqOJGbRB5ye+uCV0gk0dFuvLx8lKNHTmEp/PzN27fcXTec7lVKU8GoP3OOXObmPStsXIMLrypJD8Zbqs/h3YKf7eHAqZs8cAj7OFCcEk6IkzXPbd4Lu8guUP5sEQ98cbF5ga2b6P8vzoGlk+jzksdXjnNY+OLeQ6e59Pg9HoIEFvLF5GC8rAV/OC7qvWcfB45f5vpzD4I/cNNU0eeCo7wSfD8w/nM+Jfww2PU1r0V/+xUgfjnRnjjePy/jATuFnxy99JhXfkmFJn1yM5OJ9XXgjbCHiKhQwp1uc07Y/ZFzVrwNSy5GW/w98MeJWCkQPj/MpvGdaGlqTP26talbpw51Ww5i8o772Oez/pxkPM7MZerk6cxYs4cz60bRt3U9auhpoqJRiybDN3PcLrpQoMiMfofV7gn0M9VHV0cPPSMTGvWYwYxRXWlfXZDaVkuITZSbZ4AlRxZMZ/jEVRy4sJE5QzvSqo4h+uqqaNXsyICVljwPyyywxj6ZeI87nF46gE6mNalmYEAVA330qtSlca+5rL/mSrBwmrzTw3l/dQUz+w5n+hGnD8YZ/fwgW2YPY/DCvZzZMZvpfVtgbKiNmoou1dtOYtlVb8IzRObzs+SURS+M9StS4ecSlNWuT5OWZrTvs5BN15w+mYHIhxDidgdYObAfozY8EgaZF4qSXW5zeslg+s3azpGdFqwY04HGNYTgUNNEr0E/Ju57iWv8V5Y2ZfriemYoTZTLULb5ao7Y/4Ejs6nCke6uYFLfxuiV+ZUSJUX7125Ka7M+9JlxnIdS4/kdY22XqlSq0ppBy1YxeVBn2tUzQFtFFe36vRm94xFOggnn9Ww28a63OGsxiF7tm9HYpA61a1Sjip4htduPY8EZR9FPOeRk2mO5egK9qlWiYinx3EqG1G/ZFrMuI1h4+jVOxbGlREF4DkxnYL8ZbHgkhKbUcMkBOF1dw8xuDWkg7LlWnfrUM27FgKWnuOmXd9nnEITb8yhzG6uiqdeMdiMWsHjhHGbPns3sOXOZM38BS8a3p3FVI4y6rOOq6M+PwSgNryvzGVxdFd3ee7kX8Pk0fU5GAK9PzWNcUzVKKzeg1bSLuH7XigAhHDLceS7qOrSeEqU0W9Fh6SPRdkVYSrIvztu7UletDu2W3eLNV5WOuEemK9dnNaOuZh3aLnmI+x8ydSaSY8orjg42QkOlFQP3On+YkcsIFgn2nSdekf/cSG1OnDs2JxczpWtjGhrXo07tOuJnQrN+wjdvehQQQen4XlnKjKEjmXrgjfDrOOJfbGb+kBYYlP+N30tURL2GsPP2veg5cT/XvQVtCrvE7n41qaTTlD6LVzJ1eC86GldBV1UFrVqdGbTuFvbRBTc2SyXJ5zGXVg2lV6uG1JPiaO2a1DQxo+eM/Vx1iZUJExlirHm8Yy5DBs1j69EVTB/Slvoi1tUxX8SmZ6nCaz5FjsjrttxY3Z8uRhX5TbMn4/fZUqxuK4DcsKts618bbe0OjDrlyTdPoheHnAQSbVYwvGYZ/qEzmFmXAooo77cii6SgF1xfPwbzJjWoYVgFAxHL9fWMqN9pIotO2+KZUMDGg2+LWDKDYaMWs/PoEkZ3MaWWlsglo3dywrG4qJlBSuRzLi3+/+zdBVxU2/428PPe+7/3nrQLUbG7AxURE5QQC1tUDCzsVhRFFFAQRExURLEDGwWbMpCWlO7ujudda8+gqKCcc9Tj6O97P+viGWCY2bNjPXuVBka2qYNfOmhiqfWrarQOFyPl9jrM7t0MTYdswHH/gr/xPrli5ERcw66RTVD7t17QMHuMz9uRkZ1P8h/DakYXSNWWharR0wr7RzweGIyFau/maDFgMHrXl0L3uedwN6y8eliEZO9DWCXbAI36r8Pex+VXtWIUJ3vj0eHlmKMyAL2792D1gy7o2nMghmlux6EnEawiWcV2L/DBA3b9nzJmPjZeiUTSmxpZKkIcTbBqzBiMX3sRT+PehsDi2Gew366JcRO34vCLeORnBcHNegPmqA/D4P692fHUCR3btkabnmqYqn8Zj2IL33wmMbeNobdMG3P1DuHcHh22b/RH9zasfiLVBj3GbISZYxyyhMksfHDbfAUmd5GGNLvG/VK/LXooDIOi8jSstnqMF5XcSE5wOY2Dc2Uh27oefv5vTTTsJAe5IUpQX2CEfQ9SRa8/Pxp+Vw2xZoI8erL9uD17na1bt0P7Xirs2nMWDiEZVVZKC2K94WAwjh0DMqj98//wR6N26NRPEWO1NmGfWzrSCwLhaDQXM2fqwfwhbyJnn3WOM06tmg6dlUYwPHAEO7WUMLgHOz81lUbTbuqYs/c+Oz+9rf7zOlPyy9PYO384ex/N0IJdgzvLDsPYlevYZ9sb7VvIQnGbc5Uhtqw4HaF3zLCD99SR78uurV3RqX07tO3QB4O0duPE0zhUPFTfV5wajCfmszF9iT4MTU1xaL0GhrF6Q6umTSDTfRwWHnmM596ucNy/FNOH9UKXVk0hxa5HCvMscd6LnTuFZ2F1hRxXnFs/HdO1TXDsqTje5sfD48hCzNHZhM27LWCzdRrU5Fi9sEVTNGbvS2npMVz1zxBfs9m1NO8ZLm6cgelzjXDEjT9zCQpTHHFUZwp0NpjBeN9ebJs2CHKdWrC6WUu0U1qJ3bc84ON5GzYbJkKtf0e0ayaFxu2HY/KO63COL7/QsA1Q4o4rW2di2tTN2PMoXVwPEsl5YY1d86di4Rpb5IlPQBF2elizZDEW6bN66C5tTFPshU4tpNBQpi9U1pzAVY8AeF7dhQ1ThqF/p+aQatQcHUcsg/41dn0rrmLW/OJMBNmugvaYSdA2v4/Aii+CSX/G6vxzWJ1u6Uk8SWffLE5CGPts9WYOx4BerL7UvRu6s3pTbyVtrD/hioDyVoSyHBR5HIHe3KVYwq6J5vt0MLpHO3TuIotxRgexfaseFvaVgUzt/+Hnuq3QbeBQDB85BcstHSAalca2fWYg3GzWY+FoefTp0YP9rS7o1lMOCpN0sdchBIn840j3hst+bYxXnYrFvOdX+R2S3EC8tFmBWWNnYPUpTwRV1ejD9tX4Z6dgNl8Rcl3asetJa7Rt3xGd5Njzmd2FD/sbfLuVJLOMcnA5tIZ1F+3Lrdm5pW0HdB7MrhEHHsIzmb3v0iSk3tuBxePGY4bRXbi+U+Fn+2PoRVguHI9Ji8xxQej9UoKCOCdcNZqHKUN6o2dPVi/p2hU9+gyB6pL9OO+RjPJpeUozwuC6bx5mLNXH9h36MJ0vj07NO6LboCUwfx5XRbb4PnymEFuKAq+D0BvdEc1aDMTY9YdgfekSLh/dhPmDZCDdZiSmmL9AsnCUZOL5zpEY0qkufmeVYwV5ZUxdpY8dBqsxZ1BzduJtjX7zreFcHjbKkuF5aDZGt/gdtdsqYdLaHdi5YzW0Vfqgq9TP+PdPjdBv2BZklo979LHEttHd8cfPUujUpxt6j16IZVuNYbx2Cka2/QN/NFHAGLOXCM8RHbLF0bdhu5wFrTqN0XrQTCzeYgILs61YObkfOtSphUY958DgUQJEjYKheGQ+DnIN2qH/2gcIFt+Ej7qii0UDauDXZiy4d5WD+tzV0DXSx9opfdGmRj1IK2zECf80FCS54M7hJRjdvyUa/8IuYN3UMHHWQixca4lTj19X2gINJCLw5gqMbSKN9lNt4PhadBLgYz53qtRFbbajtmvbG8pTFmL1TkPoLRiJPo1qo2YbTeg7hn50EpnSyHu4rN0GDWrKoO/mB3j6OQfrFSYjxfUwDFePRV/pP1Cjdlt0VZyOeYvWYI3pTbxIZJfh0BMwGd8G//l/v6Bh627oNUYHq7YbwmCJGgZI/YI6HcZh2c1E8Z3vfPie24oVyv2hOm8zDA6exGnbIzBbpox+7P1K918CU68cZBUGw9l6J5YMaYeWdX5DTRYc1GbNx8KlW2F5xx+vqwpiiQ9wc0VfNJGWx7STIeAZtdh1DzYptoBU53FYZH4a56+eh43RcuiZnsR5H9HJqzIlmf64tbwPOtf4P/ws3Q19FZUwfLgiFBVZmB7aEx3q/R/+T2ooxpq+QFLF/Fnqi3vGyujNgrfCFlewXaYSJSjJugGLyW1Q5w9ZYdKW91sKP60ExXGnYTiqKWo2GIZJh9m+V9lzlKUi7dE6aLRthLbjzHAy+CM7k4Bd2sOOYK1CC7SVXw0zb/HDf1sBq5TaQHdQE9SQUsHMfW6IiAhHuLc9zq4YDmVtM+x3+WhbzseVpuKV9XxM7NoMMv1nYpXlOVy8fBrWW6dgWKtGaDlkOXa75oo/71y8NFWHvEwb9F9xg4X0bGR7n4KF7iQMaF4LNWs0R/shUzB34UqsMLyCJ9HsKhd7CUdmdMLP/+9X1G/eAd3V5mPZNiPsXDkOw5v9htotlDD3QgSixZW+ksTHuLpJEV2bdoDslM0wsrmKW5csoD+9L7o0a4de2mfwiP2wsOvEXMeFpQqo/0sztO/aHr3HLcCClRthevwyrvuyinklH1lZWQbS/cywsBsLYi1nYu2V6sxMXIr06ysxtSurTGvsg8Mnb2h8WllWGLx2KaJHnV/ReKIlzvydfpW5Hrimq4Y+9WqjiawG5ugaw2TPDmyePZwdT7+hTicNLDob+nbsecBRmEzqhVo/N0GXvj3Qb+IyrNygC7PTjnj4uuJB+a6ysnRkPN8OrU618EenRdh8pzotsZFw2DQUvduyc9duj78/gV1ZPGLursCoZjXxv87LsOv+l5hQJgVuxqMhV68xOs84Btfyz7vwPg5p9sEAhcmYsXMvFvVmQUduNSxdEkT7Y1k0QuwWQrlpY3Sdcw63xEMNS3OC8PKIJoa2aYn2Q+dj/YHLuHHtOCxWqUOhpTRaqBrCxj31TZB8Vxgem2ugb73m6Kx9CS95hZAregYHI0XI/PRfth/Pgdnz8haYUiS4HcCqvg1ZkF6Pwy9ZAAg+i0OLRqDfqIVYZXwEx21PwnrXAkzsXhd1ZIZBw/IVyp828OgcTOpZE7807Y5+vQdj/GJdbDPUxTL1Lmj8qxTajTbBjYR89lrD4XbaFKsUu6JD/V/xR9O+GKk5F/MXb4KZnQf8RWnpHanet3Fpy1iM7dMEf/xSHy0VJmDSnAVYtuMEq5QWsICXioS7GzC9Z2PUbtwbinM2w9DMFEYbZ0ODbeuav7fDkDXn8Ci98n20MCkET62WY6VGNzSt8StqtxqAIZMWYIXefpzzyUBW3mNYTemI5s1HQ9s2nv0Ge9MZl6E/vA061muAJj2GQUFFG6u378D2laOhIPMr/td2ClaeKh/YXIbShJuwnNETMr9Lof3IhVi3cwcMVk6Ccq/WkPrfv/CTlDxG6rsgt4q7O8W5IbixSQMTlVUweZ05Dp46g5MHt2P92M5o9nsT9Flsg9sfqYsUxnvi4vz2aMMCdINmvaCkpolFW7dj67LRGNi8Nup2U8aQocrQYNfc0Yu3YtvWZZgpx651v3TAsHWX8Ex4XSUoS7uEHez63rTjLKy/Jr4llxOBu2v6oEc7KdRin/+QYWMxa8NO7NBbhMm9pfDbb92hvPkafIR9hX0GmVdhrNwKTdtNwxo73ghQiILYk1jfvxnaNZJGk54jMVxjCTYZbMH6aX3Rvl59tB+siOFjxmPooPGYt2k7tq+fjBFta+B/zdQx+7A33vS+L7opDENp1pR9VmdiKtzsZkfn7U2Y1bUJ+g3fivLV0bwtJkK1a238It0T8v1Hsnr1VuhvXYhJfaTRsHl3dBk2CVMGy2HE9BVYu30r1kzqjZa/1UMLxS04FZb/XguzWGkuEi8twrhWtSE1fBMOh1QMu0lw2aOBgdLN0W3+FXikZyLrxW4sHdQGTduPwHT9EzhrdwFnLZZhWu/GkOoyBUtOBojPf1kovLsGE3t0QN0aUugxbBgUZ23EdqOdOHSLBfxD+6Gn3gtdGv2K3/lxMHU2qztugMmFp/BjG6KsMBJBZxZArWMLtB4wEyssLuLaNRsc0p2I4W2l0HTYZlg6pfHbhwi+tgYardhx3n0RjB/GsWtiCVIesuO2fxNI91oIo0fRVfRmK0Phq5PYM6U9GtRpjR7jVmKjkSnMty/GZDl5KE8zwJn4MhQUxsLDTAPDW9RB3Q4jMXmNMXabGmL70tEY3Komfm3CtsU+D5YhspDxYidmdaqHurJrsOtRxtttWZKFKJtZUJZpgrYTLGDP8klxlh8ebFFEv1bt0HXMWhjZ3sC1s5bYvWAIukk1R695x2AXKjpplST7wW5RJ7Rv1wx1GveAovIkzF6/C8a7bXA3NO2DHn3fk88TYkvCcW/LcPSU6YqByy7CMzUX+cXFKM5PQ4TtAmi0b4rmyjtxlW3JIuTAfaci5Gr9hP911cSqM554ncg2ckYKYi+vwNR2NdgHvBC7WUgQPp6kS9g9pgXq1mPhcJcrglMykJGehHjf8zCb2R11fvoDskM3I708xHqzEKvcAD/91Axdp5qzC0M0EtIykZkaCIfdE9jfrYXGw4xwOYI3oxbA34aPB62NxgNW4oBLOOLYz2ZnpSE59DpslvZBsxot0HXJDbjF8ScPx6M9Y9C3TivIrr6PIHH9JdJuE+a2/Qn/btgPattvwCk0CSkZ6Uh9cQy71ZqilpQCZp0NQ2R+HnLSXuKa0Rj0q98cXeeexj3fWMQlpCIjt8K4yHckIuDGMqg3aojWk6zhECLaadOeWUNf/t/4tUYrdtK3hp13HJLSWeU0yB4XFnRD41rtoGj0BC8/UmNKfnoEun1+Rc36w7DgajCiP12TrT52oijJS0Fy5GlsG9EK0i3UoXXIA7FxCUhIyWb7B/tj/lYwHi2Fn/7bAj1mHsQVr1gkprHPN+kebJfLokXNtpBd/wjBwpqlpciMj0Doq1cIS0hHZl4higrzkRN3GfumtYN0Q3lMto5CfEEh8tKT8fLgHIxp0wDNR2zF6VeRiI1PQio721c5i2jCfdxY1huNGslhsk0wq3YCUSfnQLUNCzFTjsIlLhdFJcXC8iopKWx/rfSML1acznbb+VBtXh/NlDZgr2sIgoODWXmFkDu6mNmtCZr2Xw5Tz6J3w0PKbZxa0BlNGvfHpONR4PmnUkV3sG9ye7RsMRoLL6WiskbUT0o4g52qLdCssyY2PCiqojtpLvLCDmJFn0aQ6rkMO+9XfpvljdIcFD/cgMkdWqPduF04Ew3k5+UgLzsLWVnvlWz2eHVn8yxNR67TRhag6uD//acBWvQaiuFD5CHXRQZN/qiDnotP40p41cHj41iNJuY8C/St0bzDeMw/HYYk3p2czx6a4Y2LK+TRqWk3qOg9Fre45cN9tyr6S7dgx91F+JSVorQgA6kJdjAe1wEy0kOhsYeFbL6fJ2exihx7g2FncXBqc/bapdFOwwS2zyLYOYnt5ylOuLplKDrWZOeqJbfgmcDfQzELAeuh2UWa7bsGOO3JKuYFJSgtzkUmO153qbZEg9ZTsPF+lOjuauwNXFzUEf/30+/4o8cC7Lrjj9jkNGSy7ZtT5Y6Ri9zXFljUrSFaDt6KfS8qjw7vKsSrfeMxpG1HyOpcgE8uq/Tk5yLn/c9V+GzzUFD06VlX82OdYT1RBlL/bYnhBnfgUZ2XUZmyAqTab8CsLrVZRWUGNthHIDqVnfOzMpAW/wKXNiii6x/10WbcPtxNEa+ZGnAMpuOk2XWiHjtGt8D6eSSSUvl2ywM7FX9EFvLdt2NGJ3Y+VjHGUf9PvUv2/VInWGl2Qfs2ozD3ZCQLEmz75GV/uN2yspHN/vgnu02n++CF4SC0q10TTaadxNXQv7rvf0wZMm+vx5xO9dFQjl0bw4QjhW23vVgxsCt6jDfBUVcnnNTqjBaskjb/rDd4JEL6czjrD2UV+N4Ya/kCfsLlqgzJHsexZWhTNO4xD9uvByA1rxglJQVsP7yHywt7QEZqEKYcckPlc0AVIfKmHma3q4UGsmtxPChTVKEPOQMrrZaisbm/9MKMU68g6lUdA6/T8zBcSgod51zA/Ui2ffITEffaH74RiUjOymcVT3Z8Z7N6y45RkG3UBB1mn4d3tmi7Bx2djTGN2fW8uTJmWD6GR0wK0jJYneDhLqyWq4+arcdizb00ViktQh6rt/ieXAnNzvXQRH4tjr58jej4RKTyv1HJx1hSkI3M17dwfY08mjfoDCW23z8Ij0N8Mrum5ZchN/Y+jk5l17O6PaC6+QpexLO6Ads3MlPDEco+j6kda+HX9jOw+lpcpfWFshJ2/UsNQviFhVBt3RAtlPVg+TQOCUls3y5g+36hI/aNb4smTdQw5ySv1LCDLuMitg5mIe+nhug+i9WZvGORxM5P6cksLC7rC5kabTB+xWXRH2D1t5hz86AmUxMNBq6AydNEoa6TnhQK7zPLodn1Z/xUox+UtjlXGWJLS/KQyD6L4ODXiEnl14EiFOYlINFZD5odakGq/xqYPKv6ZMBD7PlZzdH0l1/QSHkL9j6IRHxqOtIin+Liwm5o+8d/8e/WGlhg+Qh+bPulpcUg3HYORjb9A42Gb8GhIP4sbOulX8B2tk9KtdXE2qvicei5Ebizojs6/vYTasovw/YbgYhhn016WhSCj82AYhNWfxy5FceFrg/sA86yg6ESO4e1moxVV0QhtjD2BNb0bojff2qO/jpHcT0oASnprC4UcAKb2N+r83//hbTiShjcDEFMCnvu1ADcXDcQHWs0Q0/t03hevt8U3cCe0a3RWIp9VrbR74bYWxug2bER+gzZ8ibEeu1lQareT/hPOw0sPP4cAYnsvbO6svv+mayO+y/8VLsHhiyxgb1/IqsrpiPFzQKbhzZADZkRWHgtRdzN+X2sHhdlw+pwTVBLWgVap6PY1UMs4w4OTG/P6itDoHmKfQYp3ri5si/aNZfHaP27eJ3B6lt8JY7sGPhZTsTgZq3QWfMwHgivNxcld1dgQsdf2fHbEUOWncSj6FSWA9hxkJuDjLRUBJzXxbwe9SDVdxn2uQYhMo7ta5ns3Ml+Oz3wIqtbt4B0p6lYy849yeyazc8nedFPYb+qP1o36gs14/sIYJ9zUbwTe1190LJOM3RfchkPn93H9dUD0K5xTygbOcMrraou+vFw2zsRCg3qo7maIS76JyA1k52n0xMR6fECHh6szlzAjk2/A1jZvyFqtxyPeVaeiE7OEK496UmBcDUdD4WGv0FqxDacZOehnCQnHJvIruH1BmKyxVO8uf2Y6yOcB1s06gMVw6fIKMtgn88OzO4ihZaKW2D+JBVZheyzKMpF2utr2KXWHI3aT8D6M8HCr5el+uPyvFZo8fNP+FePhdh4IQhxqTwrZbLjsLSKm4Pfh88QYllFPO0aDJVl0Lj5aMyzCURKNt947KSSno3cp3uwblATNGCVZQMWTHNYZczbWAl9GzZBj/kn4VKxX0ysLXaNagKpduOx8h6LmCVs07tuwPROdVGbndgsXol/TlCIqAvLMLpFA/QerMsCivhj8tmPLYrSqNF6PJbdeHd5kOyn+7C+F6votJgG/acJyIM/7JbKomXNLhi23Q2x7+zJBYhiFSON5rXY39bDCU9egY+F097xH7bE2m3A7A41ITVgDayCKoyvKXqJh3ryaNuwA0bueSXuypoID2tNDGnUFn1WP0TQBx3j31dFS+yzY9g6qBbqt5uMzQ9iK/Svj0KYzWTISTVCz2U34FjlTfoMBFxbg3ENfkPtTjqwdE945yT5+TzAAQ1WuW8zFcuFO5UV+B2CgXIzVikYh2W3Ko5XyWAVgzkY3qQpWs84C9/Yyl9ZWUEuCnMf4fSqfmjPLvrKu14hSrw/JV5dDc1OUmg71hIPPxY4y1VsiT0VIoTYlEvLMbXtz6jZZzGMHSL+xN0s9hnFnsZmxdZoLb8cxu7ih9mekXJ5PkZ174uhKy4KdxTfEXwK+8bJoFaLkVh4PaWK5UTYgyGHsH5IK7SS463PZX/hBMVO+OwEuaB3S3aC1MWxKOFZK8HCbdJFbB/WDHVaT8Wa8+/N8PK+kmzkXdPBeHa8/tqwDToPGIyBAwdCYaA85OXfK8PHQNPMBb7VaUTKi0HYEQ3IN26ApkpLsOXsFVy6eASHNo9C99q9MMHYEZ6iw+LPK8lCzp0VGNemMZqwMHPYLweZrMKans7OYTkpeLl/OobKNEH/SYfEa/kWvWmJ7beEhTnhSbinOKHVHa1k1KAltHBUEGILC41WqNlsBOaci6nQDTcXoddXYUzzRmimcQxu4bwWEQp7/RHoXqcN5NY6wD06HXlZrMKczmfTvAM7to/K1O+BsYe9EcA/tMRbOD+/I2rV7YIh7Bz2qjoN0iWsMuC4GqNbyaDXbGtcfe/lVi4HrkajMKTxb6jVrAv6sc91oAIr73+uvAydhc12fgj56I6Zj9RAa6zpWRd/1BqBRbZeqE6bZmXKiuLgrDcE3es1Q68lF+HxXo0k95EhlnVl5/F2M7DTg1VC+IPBx7FLXRq/Nh6MKVahouED1VEYh7izczC0WVsW5k/D8ZPnb7bTFN7E3sld0ZR3Ne80QHRMsG33wXaTH4ZB00zh7P3xD6Qw/CHOajZDwxrNMWjnQzyvzvntr4iyZUG/ORqwMLfwJqtYFhazOvt8qHftDbmVt+CfHQbffero1agNFHTt8YwfgyF2sJrUGlLtNbHtQZT4+hsPv4uLMLJRA7SddASXvVNQlJOG1PQc5MZ5w3PfWPSqL4O+qy+jqvtkRUGXcGRCC9RvqoRFN6KEyl+W/VasVpdBjXad0bleE8ivvi663uU5s1Agj5ZS/TDxaABeV9b3tpQvaZSJF4fnQLVVQ7QafwBPxF1aQo5pYZRMXbRQM4ZdxT7zWfdwbkFnNJPuj6kn49/0nEi/twM6PRuiuaIRWJXj0/J94GGkiLasEj3m0KsKwT0TCc8MMaNNHdTvuxYWT987mEte4NScrmhUqwcU9R59ZJ9ldRCnjZjcsTHaaFjg4ptzLPuFIkdYTnivJTb9IrYNlUGDZmOx6HTYOzc0o09qYahUM4yefkD0QEkM7q+RZddb9plvvMlCQgUFz3BOpzcL5z0xfKvTn1hipwzF+clIY9e1Vf0bQbrLfOjerXqnLox/ifOz20CmYS+MNXOu0JU+A7HsOjGwfh1Ij9uDs0LDg1jwPqwaUBeNei0Cy9cMOy4zL1fSEhuOOyt7oUP9thiy+Tb8Kp7DAiywUo6FKtnF2PGMP8C2Z05lLbHWWCsrjfqtZ7DnjRM1xnBlQbi8oAdkaraE/NrrCKxwFyLxnDbUpdnnNdYMN8u3259qiS2Dl4UGOz83ZPXEA3CoWPF1NWKhujZ+azMJ6x6xUCN+mA8ZuLSsK5pL9cb4I9GIqOraUca2yRZFdK3TEn107PBKvE0KnLaykCkNaYVNsI7OQ3rkKWxin59U13nYcDUS2TksA/CbISzAp93ThVZX9tnKr4Ql7+ZWlocyx5WYwOrNtXstxc4nFV+wSKaTOdb0a4img7fiQmzFC3wKXt9Zh3FN2TGqagqbF0ni80k2shODEHhsGqsrSKPL3GO4KRyPBcj2tsJ6hcZo2HoohioqYFiPtmg72hRXwwrffj7vYJ9t/kNYzeqMJrX7YfTeV29byCsqiEIEq2/3b9gIracdw/X35+QLs4Le8HqowY63RewcmpeXgsiDY9GvgRQ6aVnhrnC+K0DJayvRvt97CbY7s30/Pwj++9TQpV4ryK48D4fYIuSmpyItMwep8b64sbIvWrD9f6GBo/BnytJe4bJ2e5Zl2mDgphtwr0494DvxGUJsHkpCLLBsgDT+YBfVdvJqGKWmCjU1NaiqqmHMUHbC/PUn/MxC5can7DpQxEOsImRZRWi47h2h2+YbKVdgMbk1WrRRx9I7rPJRUIic87Oh3FQarSbtxbX3LnA5DwywqHdT0ezE5TOS+lhi09CWaCS7EKZ+fPd4q8z/HA6NkUG9JmrQuRWOlAx7HJzEfraZKuacT0VuhZMKl/LSGhv71ULd9rNh9ISfERPgUlmIvbKOnVCk0GqUGe6mVhiHWuKNJyYj0ZMF1hFGvvAWXn8EXA5NgULD1ui1zB5e7/QnrUxV3YnZwTGkERrLroKVb8UlPViIvTwPik0boteiq7CPFT/8gRA8PToZfX6pi3qKprgZXEXt4W9hryrvNszGsBNx64lYfC727bbhXh2CvlIrNOo5F0YsjL097nLx6twyjGnbFC3Ze/aOLv8Uc5Ee5IiLe3Wxeu5UTByjjrFjFNC7TV3UZhUWld2+b1ovI9jvT+nATizqe2CfUlUrdwUVQuzUk8EIY79QGnUPF9YORQ+pumjYWQnjlu7C/ivuCBJahj8lAnfXDUS3Fv2hvPMFC8BlKM12wfFJHdGhjxZWseTwwcnT6zCMR0ijRpuxWOWYipR3NpZYWT6yb63ApPat0U6DnYTZub+yH/sodgGJPqGJkS1ao+uso3jEslPlz1GKwpRbMFVriVoyY6BzIlD8eBVYIMy9sgijOzRErdb9oDRtFjQ1NaE5fTqmVyzTpmH67CVYZ+OB4Gp0YS9J9YfDyp5oU7Mdhu18AOFGOpfigP0rTWBzL/Cvj88sTEXkkUkY3vx3/Na0K/qrjmbnLdH5S23UKAzr3AC//VQHvUftEbfiF1cIsRffhtjSRzg8vStaNlOG5rHQd847eG0L87Ht0ajjZOiyC9TbmyEFCLXfAs3OLECPOwSXUFZNKXuC0yvl0OQ/tVllYBiGjVTD6FGqUFEbjbEj+kK2+f/wr/9rgRHmnvDhO3XSDZyZ2xVSzYdj/rVExH1yR2eyQxBgro6eUj0wYsddvKz8Kv6ebLjsUIVCE/66lDBxOvtcZ3z42U6bxr7O2giLeyGVTBJXUQpi3fQwSaY2/ttqPgzvRv75/VisNNcTtrO7oGmjAdAwe/7OjUtBwCnsH9NUuImw8HaK6O7366MwVG2Jel2mQe9pcbW7+JamB8N180B0YOcb9d333+6LVWIboeA69miw8MMqr50Up2Ea23YzNd/dbtOn88e1MGOtNV4GfnwEU4bPJewcVBN1avTDjNOeX2B2WzF2/bqhOxgd63fGkJ0vEZ4WBw/D4ejTjX3+loGsUs0qqK6bMLFNQ7QYbYmLsbnIdN6FJb0bo7maGa4FixN+iQ/cDk1At19/Q53W/TFAcRTGqov26dHKgzG0Sx3856ff0EXnPG5X9dbZZ/xk1wh0rNcW8luc4JOfhlf7p2D8kIEYOH8rdPo3RfuRW3HIIx8FoaewW6UFGnaZi93ub29kFyb5wvn0bmxfoYXpE/hs2uoY2r05pGo1Q1sNFmLF5/WQozOh0kYG3WbawL3isZHvhMurWYCT7oNJx+IQKQ7HcTf1ML97A8gM1celaNEkUh+V/gwu+kPRWqo7Rlm4s/cifrwsCqF28zCscX20EVrYxY+/kYYn+kroUacZei88C6+qjq/SNOQ4roFGeym0HmsC2zcpj/1CpSH2ArYNkUGzHouhJ6pVi5Ug6ZIO1Fq0xJhJ+0QPsQB+QrM9pKWHYPoB9/eOmyjc26qMnk2rMbFTUSyCHrHjcrMOtKdNwLjRKlBW6iHMK1Cn71Lo3fkw1JQrjHfHudntINNSDYtP+7wdhlWYhGTbmRjSrA16LrYVrmsi7B+Rx7BxqBR7j9rY8og/xrZFpSE2TAix7WUUMNnCrcJ1hW2niGPQHc7n69AGy+gMO2NVFmJjjrMQ2wTN5DbA1OltraYsPxK3V/RBu+YDMM70WYXhY8VIs1uGia1kWH1lN66W5/c/G2L3joNCi7bot/Qy3mnveWGKjQNboqHschwILXs7nrrQBXbr+7NzWU+M3R+B8CpvyJUi+fpaaHWsg0bya1lg5e8yB34mo9C3aQf0XXGb1eOzkOm1A5od6uL3eu3RedAo4bqlqsZnrB8JdQVWz/v3T6jZZxGM+YsryxVC7Lj20mgxwRznK7lvl+i4C8tlG6DJwE04FZLBP0WR0mD4nJkJuVq/s3pJH7YNys8n6lBXGQrFHg3xy0//QWvNwyz8in+nLAEhJ7Wg0qqG0HOjXp/pWHU78SPnfbZ/xJ+CgWoTNGg5HkuuZaPivHFv8Am09AaiXZ2OGGZwF57v/0zxPRyd3RlSdeQxlqX3/CL2LgJNsKBXfdTtuQj6vMdBURISLszEYOnm6DHvBBz4jpH8Ak/W9kLzWrVZ3VMOQ9THQl1VhdVJ1KEyYhjkZP4rtGAv3HJD+DNlqb64pN0BLZoMw+zjL9nV9cfxGUJsLop9dmNhv0b4tVZLtB/AKn+sEsgrgkJhO9aY8VOwaNtx3GI7f0FxFl4asRDbtCMGr7uOd6rFyZexd1IrFmJHY9lddn4oyEPyyekY3phdoKbvx+33bs5lOGzD/J4fhljdYeyAZScaI8/SCsGICbqIYxNboV5TVSy4HoakGDvsHdsEDVuPxqKrOXh/OdE0j9PYplAb9dvNhMFjfjR8JMR24V13jHE9vsJkKsVeeLx7hCjEGn+JENsQUr2WwPJlQoVKcyReX5orhNjei659JMR64AEL2G1/lkKTSTZwLr8if1ZsS3wqxIqX2NF/VnGdWHaCPLsUo3mInWYDH2H6vEIke52H5bxB6NGqBdp3H4DBI5ShrMpCbOu6qNmYhViTzxRibYIQIpwxi5D5mgXZ7VqYMIBdNOvXh1QnNcwyvQ23uI9dobkyli+WY0rX1ugw4RAeZmQhyVUf0zu1R/+5x3Cj4l3icl6HYCSE2HFVh9iiNPiajYJcsy6QX/nexaq6iqJxb4MCujTpiRFb71WxDBDHQ+xtmI5qyQLAaOhYf2JdwdJsFDqswvh2rdB+wh5cTmSHQGEhigp4q0eFks8qmgWFKCwurUZ34jLkxjjCQr0Z6jdQxBzrl+JJZkpQUpiMsMAYpGTksFfK/vfJD7kSBckI3DcWg5v8ghoy3ViIrXDu4hcNdvEYP2kVjA4/Fu9DBX8txIqX2Fl7P6PC51qA17c2YzoPseMPwyWMh9h7sNHpgwb/q43GPMQq85uB5a+HnVvHjMc07c046BQr6r4Zz0LsvO6QklHCfLvoaq05WRL3DNcWdoWMjCq0T3lW84KXB689ozGwdUf0X34VgcXFKOJdxd77bPPz+dciFJdUMVHIGzGIsF+CEY1q4+feG3HQ5a9fdvnNoWPTOqGR9FBMsfR8p7InCDmHI+y8X7OZIubfSBZtNyHEtkb9ztOh55pb+V32SuTHPIbVxNZo3Hoclp/zq0b4ZVuh+AH2T+6Itm3HYMH5BFaRKURJ0bvbraAgH/n8K+9i/4mDIuH5Uazuzipw9VSw4lYAu0J8KdkIsNXB2BbN0G7KfjgG38FhrW7oJjcPunf5Oy9BUdwVGAxrhkZdF2KXoxtenp2LES3aQUH3CbzLJ2Qo9oDzXnV0/PVXFmLlMECpwj7Nb3arj4PGFB0YXvFCYJUtCKl4bb8BE1pKQWbUXtzyvovzq4ZBYeACrD/vggs6fdGhw1isuOaJ57f1MKNTU7SdcAQPk0RHYlHCM9jvmg7lLi3QomMv9B06EiNVVEQhtoYM+9mDLMSKjnAeYlVbN0XnaVZwya3wWeQ9waVVfViIlcXkLxJiwxBsOx0DWYjl3aBvfrB0aQ6eGqugb4Mm6DX/NF5Wdaz/xRDbtMs8bLxZ8S5CERIvLoZqcxZiJ1uKHsp5hsOT2qKRzEhoHfF69zwHFgA3K6H7J0JsWTGr01zSw+LhndCa7SvdByhhpLIyVBS7o03dX1CLhditd6sRYpuPwDx2PXjzigsTkXhqBgY3bYWu2tZweBPK2MU8wgrrh/AQOx96j/ljbFt8LMQ27Y/xpk8qXBvZdgo/ik3DpEQhVmjNZfvGR0JsU1l23Xjw9sxSlheOm8t7o51MX6gbOVUIyEVIvbIEE3iIHf1uiDVj1w2ZZmOgfTb2nW2ddmcz5nRv+kGIHdS8FfosPPvu0IxnJtgwsDnq91oMc38eP8UKnHF5XT+0l+qFcQc+FmKZmIs4MLUNGjYdibmXopGc4owT0zpApt1YzL/AbwumIdt1EzTa1cav9TugKwuxb69bLGCOGo2xGtOxwvQSHvA3zoce3eUhthlaa+wBqxp+oOoQ6w/PY5PRu9ZvqNFcFGLfnk9YGcWu2RMXYOsZN3i/OUHnIfv+alYf+1kIsXX662Dni6K3dfUPsP0j7Bj0lKTQoP0krLJnn2tlp+UUXzxc2w9tanWHyu578BM//NYT2MzvgWa15TB6TwDy+YRwpe44MbsbmjUcAI0DAUhK9YT90p5o0VQJM468EJ3P456yx7pApmZtSHVhIZbfEHizPVUwaowGJsw0wIU7/sJfKUnxEYXY5orQsnrx12/qS6DPEGLzURJ6AMv71Ue9Lguhd//Nrla54jS47aheiM0tLEA2C2SqMvXRbMxunH/vk0m/qwetTo0rCbEyqNd9Dna8FE5fbxR528BEsTHqyUzAukfRyMp0wOEpLEQ1GoZp1rEf3MFPdNuHpT3qoF7PFdj/jFey4ivvTvynQmw4C7GTMbBhG/RacRc+otmuPuILhdgyD9zfrYS2v0ij5cxzcIt5/4pTjNzEcMQkZqB89aI/j22JvFvYM7otmrWZBJ0L791uq06InX4Kvjwwlgbh2sbh6FKzMatcWOKiZ5K4AhkABwN24azXE8q7vFE+oW/4uaWY3L4R2ow2x92098aeVuadEBsoDrHlCpEZ7IjLu+ewys1v+K2VGmYcDYJ4CFXV4i5hz4Su6NCXVQ4uu+L2huHo1U0D8094vR0LUVHACZiPbooaLVSw6EYKkiqpDZXmvsLlhT3RptVQTN7nWflkDB9VhtLMBzgwoR2kW6lj7omQj5zIi1nGuwwDRRnUaj4Rqz45804B+5gOYIVcM7QcsAp7vMQP/y05SPHh4zcboGbnxdh59/30X4B4T2e8cH+FsD+/MdhJIRUxx6dgUCMptJt5BPaffI6cKkLsQxya1gUtmqlghnX4O+edaoXYcTzE8gPNDafZBU2mXh+oWYSgitV33oq5Lg6xitC+Up0QW4qMgEvCzZJGfXT+xKRAxUi008HEjq3QdpwF7vyVbf2OGITbL4YSC7G/y23D0WcfxsjCtGjExyUi6RNdo0rzfHB2HqsUsHOAmqHThzMxelnBWFEatVtpYINLhugmSHB5iJ2GLS7VDbEFrM5yBKv6sIpN/zUwf1zN4F32GrfXKKB7y75Q2eVe7cBclYRn7DV0/wO1Go3DurshFWYOFstPQmxsAuLT/v6NyexnB6A/vBWa95gCgwt6mD6wKwZMMMGp8oCVGYjby2XRpvlwzNq8BeablNG51Ujo2MXgTQ9AVul0OzAGPes0Rc9ljnj+F+9XZPidh4kyC53tp0LfbAV0xg+F7GgzXIuMZuFvDobIdIea3k5s2jgRA1v0ZJVKL8QIm6AQ4WeWYHKbGqjTWxvbWfAvv05EX1qFqZ0aoPX4/XhY3p34T4bY2BtboM3OTzLDDHAlNvcj51MxHmK3DRFCrLqlB3zfXF+jEXZ9AZSk60Jm7GFc+KCZPxp3NwxCh3rtMXDtLYRVdf35IiG2vCXWF6dmdkDTBv0xwdztvRtgIbDfNBQdG38sxLIwEHUeesOaoaHUQIzbeRceSeI3ks+uNcOaQ6bTXOhSiGXVp1swH98WTZuw6/SZWP4K3ki5vQHTO0h9vRCLUDw2G49+jTtCdqEtnK/rYn6/VmivthPWQrUgEzkvt2Fa+zqQUtiG/azu/VElmci/w0NsU7Qab4qzldxJT3Q0xrI+PMRuxunQzArvPxQ+ttMgX78hOsy+jIdVNtSUK0Vx3BOc1u6Jzh3bQ1qqAbtOd8OAldfgkVHVzVa2fySehSG/ed5sFLQvpFaoY1eQGQR3fXZM1m6F/ptu4Cn7tXdkXYfl5NZo1FgJmixjiD7aPAQcngalZs3Rc7Ypzjkfw0p5VmcaogtLV/HZPOkFHq7pg+Z1ukHZzPXdbvuVKEryFoVYGXYePvL8C97Y/PZ8hhDLjpZse5iPYR9UIyVMO8y7GX1EtUKsOpbas3Mav5v/dCvmdK+JP9jJR/9JEd+1RIoS8MxSE4Pq1BbGxKZVGBPL7578zO8UngxF3JvreAlCr2yAZsuaaNBzDY4EpqGs7BWurRqAlr+2Re9lN+BXcWHD0gi4W8/GkEaNIDPBCva8qx+7iDw2/7shNhKuh6dAgU/stOg6PD95Qf9SLbGheHpkCmR/r4/G46zwIPLdTy0/xhWX1k/BKksH3H8ve6KsGIW5WcjMzEEuXzqoSux7eWzfGNsWjZuPwfzTUeLHxaoTYjVPi0JsgT0sJrVgF77BmH4yqUJF8AWubpBHh7qiEBslvgBEnl+OKe0aoPnIXbie+v6ZpRIfhNgylBQVoaji2ysOw621A9C+QVv0W3UbkR9761xZFB4ajodyzx7oOXkZZvduib6a+3DSq4oEEGcHa622aNiYv4Y4cQWsomIUpfCLZks06zIb666xD6YkH7l8UjCh9YaFztx0pKakIj07/531FN/KRWHIASzv24jtO0ux/eHHEkIe8qKssKavFKvsL8Q2+0/trOwPFrrj7KK+6CgjB/WdTojIL3l7zP4lrLJ4YxFGNK2PpqMP4Nw7Z3N+obGH6WQNzF5thTvvN4uVsgpFDp/gJxd5VS0hUJqDggcbMaVjXdRXWIe9bwe5VqGqEPsYRzS7QKbxMEw+HPzuObBaIZZ3J+YfeAQe7B6FXrWaoxs7fr0/lXj+dIjNRIyrIeZ2bIzm6hY475OFkkK2D5Wv0/ARZWGnYDy6PauwjWMhJQpJ+Z+evKlqKYhz1cNkmdr4tdsq7H3y3r5VFMnOndpYq7cfJz/Rix3FyXBl15Teteqhk+ZBOGRVfFWFCDm7DFNa1YW0vC5ORRWIzpWBfyXExiOSVbxGNWuI1hpHcDGguu++BNEXlmFy52ZopaKP8+F5yP3k51S1dN8LMBxcG3XqKmKRXcC7N8SKUxF/YzMWrTKB6c33zre8Mpefg6wMVuFk54xqvfpER1xZNRjtGraBykRFtG4+BOqbL+N5+UFdmIyYkzMxtFUX9OrfFyNG9EeLAetwPCS7wg22RARcXw516fqQVjHHpcBKq4OfVMYqdo83D0G7Bl0waEhXdJJTwbAVtxBext5TgAUWdpdBbzk5dO/ZG527TYbukzxxhT0Bjw1U0KO+DLosvIKgCn8+6OQCqLeq/7dCbNwtPSzoVg/SrLJ9JvrdNWcrlf4crvosxDbshJEmL962xLJjM/HlbsxtXxc1Os7HtltRb+sS7NxemmiHXeqtUK/JSGge8a/6BuYXCbF7RQ+VJuDRJnl0qdEEfXROw+VNsihBUexVWEztgNq1e0GRpbzKx8SmI5PV6aa0rYFGCnqw8BA/zCUexwZ5aTTuxFv6KcSi7BGOTO8M6XryGMsuTG8ub4WRcN4zEf1r1EY/xW3i7fylQ2wp4u4bY7lcC0h3noQVs/uiSycFqG69DT/hXMDfty02s8+vXqtpWHm56v5dgmqE2KT7u7CiD5/YaS2OsfPJ27eUioiHmzG1ZT00GKQPa8+PvnB23IbC9zg7RzVvju5zj+DwISPoDqqPum1Gs+tYBOLfpuN3FTvBZn5PNPmjK4boPUFUhf25NJtPAsjqFVkxiLadAQXpWpBS343j/hXXZi9EntM2zO9dB/XYPmPgyupn4u+Ueu7FhuHt0KqrAiYvn4ZeTTpCcf1NPEoU/3ZuMAIPjkPPhlLoNP8s7r7XgPe+T4bY0iJWN8xCRmY2cgoqWz9ecn2GEMuUJeL5rjFQaFADDQevZhWSmLeTdPC1Np0e4YGTn7Bhy0rT8cxgGHpLt4fC2mvvhdhLMJ/YAjKt1KBzs1R0ks66BYspHVD3v60gt/QinONYJSQrBC9PrIRmn9r4+afa6DNEFxnlfYF9D2KHemP89J8/0KjvXGy66I3QnALkhdixE2w7NKzREl0XXoeHcMFilcgzrILT/D/4rc1Y6Jx4gQA+13ZpKkLvGGL5wMao10ieXbD8ESrsfWF4aDYW/eq1Qd8199+G2MtrMbNTfciMNMK190Lso12K6N6gNRTfjIlNgeepBRhZvzYaK+3ABf8UFjhykJmeVSGIVsRC7I3lGNNYCm2nnIDDmxB7BFvYgdiwhw72vR9iL87BMFZh6LnwKm5XGWILEOGwA3Pb1USdLguwx41PdCWWE4Rn+2dCsWU3qBs6Qlj+7A12xspzxYUNEzFCeQn0Lr+dVuFDbFsWuOL4jK5oXLM7Ruo74jX7LDJSM5FXxJ7H/zD0FZujXpeZ2Pb0vRB7ZgnUW0uj+TRbcUvsI1jN6QypGr0w0shTPAlXKoIurWPb/lf8p14fjNjt86Y7ccrtzVjQ5Q/U7jYPO57y2aLZhT0rG1lV1dUT7+PG8j5ozALkFBZiw8syEPzoCs7a3MbzOPEnWuCOM/N7QKZRbyjpO1fe3fcdpUhzNMJGxdr4928NULe2LGYcfwG/yj9odiZ6jhtbBqFjvc4YvsMDHw5T5rMF78ey3o0gLbseu264w+fecZgceoKEVP6kr2C/ewaG91TCuI1X2P5WyZstZvvbLR2otaqH5mP24NRr8eOVSkeGmx6mdaiP5iMMcdjr7WWkagVIfbAdSwbKoEELRUzfcRpXnX0Q8Doc4eHhCAsLQ2joa4SFRyI6NQ8s435chhc7XyigbR1p9Fx9B08qNjuleeGewSh0ayKHUVuug10/3hV2FdbLVTFcYy3MXHORKVxs38ceTL3LzjEdIfV7K/Rfchr3Igr4o0wJ8qLd4fL4CR77iNdwZJ+Bu8koyLGKkjBLr/AY54lzLLy3+L0t5Ndcg19WPtvPM5DDP4LQ0zAf2wb12ozHmnvvhdibupjWsREaj90P59d85y1C3N2dWNLtD/zRQg3zrNzgX35gsMpprJ8b7tu7ITA1l1fNWIi9htNzu6Jh02GYd7k6ITYWwezzV2ncGO2nn8YtlwdwuHgCB894fro7dkkyvI8vZJXjBpCSnYkVB67D8WUAQsL4ZxvGPttQ9tnyr9FIzCp4N8h/oARZoVdgOKwx6jRUxFxrzwoX3nTE3tmCGV3aQW6WBS584gKOsiLkPN7CKgs18Z+GgzHJ7CG8kllIK81E0rOj0FNh+2L9Hhi65TFC8sU3MwKssFOlJep2nIrNztUMsdm+8DJXRecGzdFvvQOc/kSLYmn6Y5xZMZj9rgx6TduOvVeewN2fHwds27FjQth2fDtGpyA3v6palUhJvCtuLesGmVqtMXDrXTx9c+IsQI7vSWGm7XYjNsHo/vt3dcLhfGARNORUsUD/hjCD9CeVhuKl7QIM/eNfqPXb7/h/0pOw7OTLt+O6y9j1zncPFsu1RM3//Ac/N+6BrvPOwyuj4oyf7LN+dRFmyux6Wr8XlHSv4En5ORX5yIzwwOPbT+ARnvTu8J/3lbAK461lUGYVxl//+2/8q/NUzLbiPUnYZ5rljIMabdD+t//g3/9uiS5jduEGuz6LXkMGnplNgHz9Omg9YT8eiK/bed4nYazREn/8XyO0GsfHxIq2R4jVDKi0lEbHqUfg/E6IfYyLLOC0leqNSUffhtiMRyZYJ1sTtdpOxsYHMUjIyEBuViYyqjoA8n3gbqGGznWl0F7rDOxfp6OgIAvpeWXIi3fGmZnt0ewPKfb3TXHOh1X22dkoL9oZN/VV0btOLciM2oGjH7sRwEOsw2qMb9sQLcfsxql3QqwD9mmw52+mjnmnykPseWwd1BTSneZiw433QuyFRVBp1hyjJ5mLHytE8lUdTGj7G/7XZjJWXH6NxII8ZATdwvGlw9Gr1v/hpzpyH5mdOIsdRiyod6mL2h0XYIuD6MgrS36O21tHoHetf+P/WJ3mU2Niz2q1QdNm7Lxx/L0Qe1KTBYoW6DzvOO6+E2KPYN2ghmjSreKY2EswGCYD6fYzse7q2xBrv6IH2kr3xTiTx++FWCtsHNqQBeF50HszJtYORiNZsGszFavFsxMXxBzDmt6NId17JQzvvxtibyzriTZN+2CU4ZN3Q+xlHWi0aIqW6rtg96a+FY47m1j98bcabP80waWQLORkBOHFUR1M710b//upPuSUtonXiWUh1nwsBjZrgV4LzrwbYp/uxvoBzVC3xyKYvRNinXBprSzaNuzxiTGxIiXRd3BxmSwa/rcm6tb8L37tq4Ot16NE1yF+DOYG4d7agehapz5ajDHASc/UN3XK0vTXeHn/IZ48Dxa13pex+q79CoxtK40W7L2dqSTEZrsdwFaF2qjVYixW3A5DTDqrN7LjKodfl8PscXRCSzSq2xEDV9jC8U0jDLsWxHjDyf4xXgQnsZ8sRuKz/VjPwnX9ttPY/h2F7OxouJmNQ59addFMZRfOBby7Bu9bmfA6pAXlhv9F7V7zoG8fitjCUpSmvMQNw+VYt2EvLoRnIy3oFAvFUqjxRzcobrgMJ1ZfLSnLQdqryzgwsyua1GiFfots4cZObm/OJgVPcXHDCHT/+b/4nZ0HfpUeh/U3ghBffkouY8/ruQ+Le9VHbelhmGb+GK/eHBJZSAl8AoeHL+EVJjpj8jW4L85rB5mmQzHzcCUhNt4Bp9eqQ0FpDladCUbmxy/OEuXzhFgmL/wGji+SQ6d6tVG/0yAMHzMJkydpYJzSAPTqNQZT9a6Jm8Sz8HzrAHSq0xx9ll19N8SmXMDuUVKo30gR2tcKxXee0hB6dRO0utXGL7/KoOtgFagoDYRsLwWMHt4N3du2Rde+a5GWJd4NffZDX70tatZphHa9e6FDD3kMHqECZbkWaPhHXTQZvhF73dLe3AkvSniK29tZpVTqN/wh3QN9FdUxZtQwyLVuhIZNemPEunN4HFckrpC9xoPdyujxa2N0XXGfVSSFBxF9cTkmt/4NdQftwNXYPHEFmCnxxIOdg9DuV2koGHhBmOCYHS6pTw9h25A6+Pl/UuggPxyKo1bB4OxzVr2sTCICri2Gcu0/0GT8cdiLp/xMcz2Ajf1+w2/tF8D8ecWZhSMQcl4TA2r+ho6zL+PmR26IFSS/gAN77/2bNEOHEXOx3HAv9ptvh+7cYejb8Gf89PsILL7oh3c7cLLtnHUBBkPr4Kf/Jwt1U1/x41UoTYLnvkkYKvVf/KdxNwwYOR7qcw/gVhg7uYezCqZCQ/zachK2PM2vEGJz4XtKGyOla6KBhjW8hK7OKfC1XYZJ7WqhRhNZFkw0MW3KOGhM0MCgjk3RqmVnDDX2QYS43lYUfgmHZnZAnX/VhFTv4RiuOBGrjjnj+QfBUCzREdcWd0XtP3phgnUgItmr8Tmugynd26IHn6RgwniMV+qOVg1l0HmMPg6/TGMnyGpIucPCTQv8iy8D0WEVjnikvp1Y4QMZ8Dq1EKNkGqOtpi2chbHAFbFgEG2Ddf3qo8b/WqBt/7GYvnAzjK+9RkYu3/8f4NBkKWHMx8+Dd+NeciUVnewI+O4agZ51ZNB7xTk8qvrFsMpWNEKPTkL/xq3Rd+V5PHy/TlyV/EgEXtuJ1WNl0b1rd/TsLYt+/fqhb7++6Nu3L2RlZdF3kCqmmDjD+2O9WVmFwvfsGmi2Y9uOvadfO42E6oy5mDt3DmbP0sSUEayy8Sv7XqOJ0GEn5g/Oy+6mWN/7/+GnukMx+3r22zVCP5CJKAdjrBjMwk6txmg3UBXqkyZj0gR1jJTvhp5qS7DxUpT4uM7DS+Ph6FFPGl3mnYP3m6tSBvyPz4Z68//iX/U7od+IMVDR3IML/qxik3AeZipN8WtjVay4l16hu2sRXl9bhwktfkMtZQs8ChZdkErT/OFiORPKreugdtOukFUaj0mTJmEiOy8pyA6CwiRT2IWKL7yxdjg5oy3+qD0Asy5GIeqTO2USwu5vwNgG/4dfG3RH7+ETMXfjAZx0jQUfrvMpxUmv4HRkBWYO5ovY90TPPn3ZZyv6XPv2lWWfLfsqzyoLl30R/InXUpIXA/9TizC+QxPI9BwFzS17sG/fLuxYMwWjOvEJODpixNZbogmsPiU7EE6Ws6DUsgZ+rdMBvYaxz3CUEoZ0lUKDRp3Qf94hXAmp0NUzgJ2Dh0rhF5lx2FDNEFsa9QBXtTuhcb2+mHjc84OF/z8uH6lBN2GzdjyG9eiCbj16o0/ffujHyptt13cg+k/chSeelQ2Yr6AoHQnOplg5RAZN2gzCyIUGMLXci91bF2GGQjPU+uk/aDPzOC6/M2si54VzCzrgF3YstVOzRK5ouu1PKECcqyWWthIdgz/12gSLd+4ksefIfYxD0zqwv8u+X1sBYw+9Rsr7ASYvASFXN2KOrBTqNWiFToPUMYEdY5PHjYTigP7oqbgW+x6HVbgGVIbVCV6fxsY+fFkO9rf6rYVR+QK2xfF4pj8IPf7FX2dXDNF9UCGAlCD9xWFsV2uBejWbo9vISZg2fTImjGPn9IFt0bZFW0ir7cOj8pbYQ/x6VQcy4w69G2LzH+GsTmc0/aMTxhyOQbj43FkSZ88e74lG//4V9bsPxTDFsVi67+67N9wqKktH9MMd0Gr/K36p0Q7dBypCZZ4+jO1TUFqUg2Q3c2xQlEH9P+qhSW8lqIweBWWFLmjdoCFk5Odj241gxH/s2CpLRbbDcqhK14DUyJ048WY/YO+FhVjzUU2F+QU0bfjJlz1R+jno9q2DOq00sfJ6xTszRUg6NweD2d8dPtpE/BiT4opL6wajc61f8WtzOQxVYZ+hvCx6KWhgePcWaNOOXec3VtWduBglGS9weaUCutarh4ZdR2LCFE1oThwNFTVV9JP+FY3l5mLdzaovNoVxz3FmujTq1BsMzSPub7s08xB7YiJka0mh1UyrCkMeeIg9hJWyf6Be25nYIIRYti0yL2LrgHqo03wyll8Rn5WzQ3Fbpz2k63SHiuGjCnUydrCHH8LqvjVQr90MbHwifjj3CgwGN0DdpuOw5DI/ixShINoKKzrXQO0uOthWYbrtsvxwXF/UAdL1u0Bx++O3r5v9TtpFbag2qo9Gioa4wl63aK8rQrLzHqwb0hC//6chWsqNwAjFQZDrPxKTVXqjZ5s26DFAlx3Hwg/Dy1QZfeo3QodZtu+FWCOs7NUAv7SfC5OKIbbwCS4s74pmv7WDikU4Qj8RYlEcBb+z2hggHGM/obHWCVyLqHASLCtGlu8pmE7tihZ16qFxz+FQ0ZiMKRPHQX1YP3TrMwUL9z4QT+aajSJ7HShL10EjFUPYVlL5LU18ALvV/dDkP7+gTpdBGKI4GotMr+Ehv1dQkI64ezuwlJ3vGtRrhrYDR2E8P5+MV8GIgexvDV6O3feikJnkgguLuqLxby0ht/4OnonXV84NugCLsU3xx/9aYuAWR7hXcaM0P+ouTi+TQwdWn67VdgAGq46C2lBW75DpgaHzWD02tRRFxYkItF2BKZ3qoEYNVj8crAo19REYLstCdr2W6KphCGv2B96tauUg5MJqTK3Pt+W/8L+he2AXVLG1mR2ZbH9xt5qPMe3ro07DjpAdqYGJkydj4mhFDJFlWWWWOU64ic6YpcleuDCrGerVlcfk/c8+HBP7+jB05Vhd6KcW6KfvjuQ3x4bk+2whlh9w6QEOuLBzEbRGD8MguQEYIK+AIUpjMEF7J/Zd8xXfHShE3KOj2GdkhkO3AyscyEz+KzifNoHxLhtcZzWEN1Xw7GB42hlhzTRVKA4cAPmh4zFt0wncuXcTN84ew4HDDm8vyD6W2KzUDo27jMWS/VbQ15mMcYPk0J8FkfGLTXDUkV1g36mslSEv9jnuWK7Fkolsx5Nnlez+QzBi/Hys3ncDj97pZpuGcGdbHDLYjQN3wt7sCFn+9ri41wCGx58gsDxMc2XxCHtiDQt9Exx/HI/48jeUGYpXdgZYNXUkhg6Qg7zqOpjcDHh3W7yRi+TAW7A1NIDJeQ+EiCfLyI9+jntWBthucRNuMfzeVLkMpPpdwdEdBrC8+gpBH60VFKIg6gmumK6E9vSZmDl/GVYuX4B5M9mBorkca4zt4BRVYUC9oAglfiZY1KcR6nSeC70Hlb/qigpDHXFl1zxMHDkQcnIjMWqpDe5HsYtUthceHdsFA7MLeBhT4fNmF4xEr+s4ZbIDu857Ij5T9O5KEr3gYr0OiycqYegQJSipa2HFvss4deYUzhy2hI1zItLKn4Rt+9DHVjCYzYKIghzkBk/HujMvEVDVrf7cUATeOghDg0O44JXMtmIpUj0u4/i6aZigNBAD5PoL+5DGot048Sj0w5NElfg+cBTG67fC4NRLhGV8vOab4Xkcxqyy1bCLNsyeJb/XZawUpXmBeHJwDRaOUYXyhOXYesIFwW9+KAwv7fZCb9VWGNu6ITyv4ilRpCjJHRe0OgjTxk/Y+wTR4scrU5LohPN8/FPr8Vh42u/DsYYflYFEjys4aboZ65cugPbc2dDS0sLs2bNFZcFK6Np6IeRju09uJAIcjrBttxwrV6zE6tWrsXrVKqxiZeXyJVisPQfai5ZiuYU9noS8fwUuQ9r11ZjJLiz1B67FkYAi5L1z3L+nJA4hD49j15LJGDuc7acDBkJeYRgUR0/B7G02uOJVvjB5MeKdbXDQ2BT7r/mhvPcPV8yOpdsWizFVdRDk5YZDSfswboSwSkxBANxsTWGw2xZ3wvIrtDaVIi3QERfMtmOn7VOEV6j5F6f6wenENqzTVGP77wB23MhDYYgyRk1ejvWWjvBMFndbzA6A9xUL7Nh5FFf9M5D5sfcoKERW9COc152JyazSqDbbAIcdgv/E/swUxiPY8QQOGqzDyoXzMHe2FvtsxZ8rL9pbsP/B6093t+cy2fs8qY+VszUxTUsHy1foYPGcKZg0TRva647hqkfM2250n1CW5A2XU3pYOV0NSqwi07e/Aoaqz8SinRdg/ypDFPrLpbjj4Ynd2G56Dveiij5yY+mtTK9T2MEqrHVaTGHnvTBUdT/sY0qSvPDAdg8MNyzDIu25mM2OCa3y7TZbG3M2noRnUDWONBbaAm9bYueiGdCcMQ+LVyzHkvmzMHXidMxZvh2H77Pt/8GbSsCr24dhvMEAhy68RFHJJ3cWQUGiP1yObcLmdeuwxfYZfCru9II0BNpbwYwdl+v3nMXN4KLK1+MuiIbv9X3YuVADo4fKs8r4ACgMHo6R42Zjvv553A9Je+9a86Fidk54YWsEA/a3dpx2gUd5l6+yQmR6nIf1TnZ+0D+B8y9YIBR/S1AUi+D7B6E/byxUhgzB8JHjMG3tIXbtsMUl28MwPf2MnS9Fv5HmfgEndhvB9Jw7oipOSVoSDt9b+2FqYImz7plIf7NDJSPm2SnsXsCem9U15FiYW3bUGV4fufYWpgfA+cha6IzldSV5DNIywv43qTcNoQ9tYLFiKsYrDUB/2f6QHzYaE3WMcMAxGFWsOFdBHrvm2sN29w7sPvkEnhXv0JSGwk1cx7rsxc+Z7P3l++H+EUMYmV/GnaCKO00pcv2u4viuXbA+4yJ+jCtDVuBdXNqpjakq7Fw3YDCGayzF5pNuuH/zNM4cs4SVYyQKqjz+i5Hhew2222ZhwojB7LyminFzNsDgtAMuH9uDozZ27HVUvSeUZMXC94oJDI2tcdk97u2xW5KLXK8LOLLTBOZ2LyHutMawzzXDHXcO74Dx3iu4Vz6eu9Afj44awcjsIuwDxBfRwjSE3LbAbqODOPUkosK5R/Qcdw/vFD1H+WpzRQF4Ym0Moz3ncMufVz5KUZL5Enf274DhgVt4yCfrEysrTkfQzX0wMd4Pm8cRFc45pcj3vw7bXcbYZeOEAPa63+x1hZF4ZW+BzTPUMYJdBwYqTobW9kt49Nget84cwQGr+ygUv88EV1scNt4Niys+b1v0uBgn3Dm0i9UVr8E1peTtMVYSCT/7A9hjYAHbZ+lI+9TBxz63zCgnXN65DhtWb8eRh2GI+eB3chH/8gqsN89m18HBGMhygPzAQRiqPB5TdMxxnJ2XRIdsIUpf32b7qBF2n3oCn0pP8qnsuc7BTEcDaoNZHX7gGCzafx/u5ftzaSKC7h6ByZKJwjV7ADufDBw0FEpjZmDOZlvYB2ciN8UDjw9vxsYdx3EtKOfttbckCXHOVjDV3Yhttu54VWU9pADp7Bp9Zrs2pvP304/Prj4O09cdxhmXqLc9UnKC4H7FFLpa46A6qD/69RuIQcqs7rDpCK54JFR6c64wwg33Dq7C6o0G2HUtELHvDIMRy3oF13PGWDdjNEbycwurlygMHgHVCdpYcdABbpHiDyA3nmWKPTAyOoaLz2Iq1DHE0jzwyGYHNm47wOrJCch752Io2T5jiC1XhqLUcLx+5Q0v3yCExmez3fXzKM2OQVhAAIIiM6qudAgTO7VAg94LsdubnWOKMpAS6g+/oHikfuKFlGVGIyLABz6vwhCb+aU/5RLkJ75GoO8rBMZmIOcf3anYxSrhNQI83eHu6Yfg6BRUlbVK88LwwlAFcu36YPjG63jxqbt35QrTkfTal23bUERnFlVjVtqqlKIoORTB/oEIjmcXa/GjlStjF5Qoti/64VUoC6aF71RrqqkAObFB8Pfxhd/rJIjz9JeTE4AXBzQxtGUXDN92F+Ibbe8qSkZ8ZCQiEyu0+ldTTpAN1verh9od52LLreh37vy9o4xVpG5uwISOrdBrzlFcD5GkW3dsq+R44+LyIejVZiDG73GrRgtluTykRwTilbcPfAMiEPdnP/DibKSG+cH3VQgi0gurGJf8J+QlIjbYD15evgiISAJ7ys+gFGU5cYgIi0HC+1Oy/0OKM9m53Zedfzy84R8ai8SqbjZVR14CIoP4uSYY4eyk/1eO+g/lIezmOmi0qI1GI0xwMeCvRNgvID8ZcUFecHf3hHdgBKIrLvH2rSph1+QIf/h4ecMvJAaJOV/xFeezfSPQH6/Yubx8LsjPpSwnFmH+vvANSURqfnX2ugJkRAfhlU8AQhOyK9zEFSvLQXpUAPv+KwRFpFT7Zs7Xk4cs9vr9A8MQlfEXjrLSLKSx/eBVQDhiPnqznZSy4C7UfaOzPlt9+ssqYpcuVr/18YY3uxaGJ+dXXdf4lFx2rWLHlQ+rw6dUcmOe70fpkQHwY+cT3+AoxFc+buhvKkRWbDACeH2d7axV5o/CNMSz67WvXxBex+e+e+P07yhIQVywL7y9WT0gLAHC6DEi+AIh9h/mbYENg5qgdlctGLiLx9WSz6OsEDnhV7BTXRaDphjByoO27peQG3oHNtpy6CE3C6tPuiM653OclMtQnPsK7lZTINe4GbrOPombVU02XJKNJNdjMJnaF10G6cDofuSHM6B+y8ryUfTSFMuVB2HIjH24+f7EZIT8KSUoSHbE+dVyaN2wO5SNnuJVeQsgIYQQQv4R31+I5d2Jh/N1YufB0L34bf9/8veVpCHD+zz26O3FMYcgJH4bjTjfn7I8pPmehcn0gZAfNhurrF8gJLsY1ez994GirGQkRXrgoa0uFg1qgxa9taF/OwziIWAV8BmZsxDvZgUjzSGQU5iFTZcCEV3pAmnfsOIcxN2zgInpYRx7FCchd67JN6esFPkpMYgJcsLVXTOg3qUNOqga4ExAVuVrBhJCCCHkq/n+QmzcA1zZtQ7Lt1jDPqqUKrCfU1khijLiERmdioxqTQpC/rpcJPvb47zJKsybMAM6+jawj/kr+3MRwu8ehNkyDUyYqImZC7fD8jYLppWt8VEaAefj27B2+iRordkDK4cgxEhiY3tpMXKTohCdmPaZut+SH1FpfhI8T22B7nwNjNGYhfkbDuDs83j8lZ6ThBBCCPm8vr8QW5SB5KgwvA5PECqwdMOcSLTUV3C7fApnLz+CZ2rZXxhjUYxkv4e4e9YKNpfuwdk/+cNB/+VKkxD44DIunLqK+4HpH47RIuQHUlqUiUi3q7CzPYFTN9zgFZP7mcbXEkIIIeTv+v5CLCGEEEIIIYSQ7xaFWEIIIYQQQgghEoNCLCGEEEIIIYQQiUEhlhBCCCGEEEKIxKAQSwghhBBCCCFEYlCIJYQQQgghhBAiMSjEEkIIIYQQQgiRGBRiCSGEEEIIIYRIDAqxhBBCCCGEEEIkBoVYQgghhBBCCCESg0IsIYQQQgghhBCJQSGWEEIIIYQQQojEoBBLCCGEEEIIIURiUIglhBBCCCGEECIxKMQSQgghhBBCCJEYFGIJIYQQQgghhEgMCrGEEEIIIYQQQiQGhVhCCCGEEEIIIRKDQiwhhBBCCCGEEIlBIZYQQgghhBBCiMSgEEsIIYQQQgghRGJQiCWEEEIIIYQQIjEoxBJCCCGEEEIIkRgUYgkhhBBCCCGESAwKsYQQQgghhBBCJAaFWEIIIYQQQgghEoNCLCGEEEIIIYQQiUEhlhBCCCGEEEKIxKAQSwghhBBCCCFEYlCIJYQQQgghhBAiMSjEEkIIIYQQQgiRGBRiCSGEEEIIIYRIDAqxhBBCCCGEEEIkBoVYQgghhBBCCCESg0IsIYQQQgghhBCJQSGWEEIIIYQQQojEoBBLCCGEEEIIIURiUIglhBBCCCGEECIxKMQSQgghhBBCCJEYFGIJIYQQQgghhEgMCrGEEEIIIYQQQiQGhVhCCCGEEEIIIRKDQiwhhBBCCCGEEIlBIZYQQgghhBBCiMSgEEsIIYQQQgghRGJQiCWEEEIIIYQQIjEoxBJCCCGEEEIIkRgUYgkhhBBCCCGESAwKsYQQQgghhBBCJAaFWEIIIYQQQgghEoNCLCGEEEIIIYQQiUEhlhBCCCGEEEKIxKAQSwghhBBCCCFEYlCIJYQQQgghhBAiMSjEEkIIIYQQQgiRGBRiCSGEEEIIIYRIDAqxhBBCCCGEEEIkBoVYQgghhBBCCCESg0IsIYQQQgghhBCJQSGWEEIIIYQQQojEoBBLCCGEEEIIIURiUIglhBBCCCGEECIxKMQSQgghhBBCCJEYFGIJIYQQQgghhEgMCrGEEEIIIYQQQiQGhVhCCCGEEEIIIRKDQiwhhBBCCCGEEIlBIZYQQgghhBBCiMSgEEsIIYQQQgghRGJQiCWEEEIIIYQQIjEoxBJCCCGEEEIIkRgUYgkhhBBCCCGESAwKsYQQQgghhBBCJAaFWEIIIYQQQgghEoNCLCGEEEIIIYQQiUEhlhBCCCGEEEKIxKAQSwghhBBCCCFEYlCIJYQQQgghhBAiMSjEEkIIIYQQQgiRGBRiCSGEEEIIIYRIDAqxhBBCCCGEEEIkBoVYQgghhBBCCCESg0IsIYQQQgghhBCJQSGWEEIIIYQQQojEoBBLCCGEEEIIIURiUIglhBBCCCGEECIxKMQSQgghhBBCCJEYFGIJIYQQQgghhEgMCrGEEEIIIYQQQiQGhVhCCCGEEEIIIRKDQiwhhBBCCCGEEIlBIZYQQsg3o4yXMv7/hBBCCCGVoxBLCCHkqyspLUVRcQkKCoqRkJKJoIhE+IbEwjMwGi8DouAdFAP/0DhExqciMzsfhUXFKC4pRSkFXEIIIeSHRyGWEELIV5OakQOPgEhcfeiFvWceYrXpFWhtOYlpG6wxdf1xTF53TChT1h9jjx2H5qYTWGBwFvqHb+PEdTc8eB6I19FJKGChlhBCCCE/JgqxhLynoLAI4bHJcPF6jcv3PHDMzhWHLjrB8twjWLBKN/966OITWF9zhd0DL7h5hyEyLlVoVSKEfCiFBVdHN3+YnrqHNWaXMU/fFhqrj2DoPHP0mLQTHcfqo9M4fXQev/2d0omVDux7/N/9Z+yGqs5+TN9ojSVG56F36CZsWKj1CY4V/xVCCCGE/CgoxJIfXkFhMQLCE3D/WSAuOLwUQqru/uuYu/UURi05AIXZe4QKdJ+pRug12RC92dd+M3Zh0Jw9GL3sILT1T2PLgRs4cOExLrHQ++hFEAIjEoWuj4T8yMJikmHv4gdjawehZbXn5J1oP2Yruk4wQPdJO9Bryk7ITjVE32miIjuV/3eFUv44K73Zz/Hf7zZxBwu8LOCy0Dt4rhmW7boIm2tP8cw3HNm5+eK/TAghhJDvGYVY8sNKy8zFq9A4nLvjjtV7LkONBVYeUHkluQerLPeaIqo49xEXXtnmlWn+tfwx/n3+c7xy3ZX9Xp9pxhiz/BDWmtvh8j1PBLJwnJlDFWvy4+CTMkXFp+Guyyvh5s7IRfuE1taek/nxY8RCqZEonE43Qv8ZJpCbZYYBsy0gP9cSA+ftf7fM3Q/5OfswQMsc/Weaop/mLtExKBQj4cYSP/Zk2XE3U9cGx+1c4BkUjYzsPPGrIYQQQsj3iEIs+aHwCjYPlTy8Hr7khKkbjkN+lgmrHBsLlWIeSsuDq1DhZpXmfjN2s2IiVLgrFv543+m8Us0r06Lf44VXqPnz8eedudkGNtefIjgiAdm5BeJXQcj3Ka+gCM/9wrHW7AqGzDVjx4fouCo/nngI5WFUTsuMBVRLDFl0DMOXn8aItZehsvEGVHVvQ20zL/ZQY/9W3XQLyuuvQmnVeQxdYoNB8w9jwJy9LPjy3hEmwvOLbijxYMyOO/bfGquthK7+cckZNMsxIYQQ8p2iEEt+IGXwCo7GzmN3MHGNFYZqmwstp7zVtfeU8vDJQqu48Iq2wvyDGLL4OIbqnMDQpScxbOkpVk4KFWr++EDtg0JLUsXf48/Dn4+3PvFKNh/3x7tSmtveR0B4PHsVVLEm35/0rFycu/OC7evHhZs7vIWU91KQZccAPy546FSYfwiKK89BZcN1IaSO2nIH6noOUN96D6O33cdo/Qfvlm283Gffd2Q/exejNt9hQfcWRq6zE47JAbP3io47IcwaCccc7/KvtMACGy2uwSsoRvzqCCGEEPI9oRBLfgi89ZVXsLX0TgpjXMvH5PXhra3iFiLepXEwbxlaZosRqy8KLUCqG2+IKtub7YUK95vCKtP8cd56NHLdVYxYdUH4vUELrYTn4ZVq/ry8Yt1twg6hizIPs9r6trj20Bs5edQqS74fvNu84bG7UF96gB1XO4UbQ/wGDu8yzFtNBy86yo6pC+x4uslCqyPG6D/EmO2PWGFf+b8rBNZ3iyjM8u+//Z1HwuP8OBzJjlF+3PGux0KYFR9z/DUMmGmCOVttcf2RD3LzC8WvlBBCCCHfAwqx5LvnHxqPPbb3obzYEl00DIQWIl655hPG8AmbFOYdwLBlpzBy7RWh+yJvGeIV5rEGj9+raL9X+OP8+/znWCWb/54K+/2Ray5j2BIWlsUVaz5BDf97vJWI/30+Znb/+ccIjkoUv0JCJBNf69XJIwTLd13EgFkmws0aoRs+P7ZmmQo3hZR4eGXHhRBE+fEiBNb3w+qfLeLnYoUfd/yGE++WzMfQisKzsdAKzF/P6GWHhKEDEXEp4ldNCCGEEElHIZZ8t3hrJ58peI3ZFSFM8tbXt61DplDQPih0DeYVYPVt91gY5RXsh+JujJVVnD9RKrQWqevdgzLv8rjEBgNZSObjAIXgzP4+fx3yWqbYZHkNT33CUEjrXRIJVFpaJszorbnJWtin+aRofB/n48F5b4Rhy2yFsa2i4MqOq8qOmc9RxOGYB1vezXjQgiPvHG98eR4FdrztOnEXMYlp4ldPCCGEEElGIZZ8l7JyCnDJ0UMY+8q7F/IJl4Ruw6xSK1SwWXhV3XSTVYB5JfhLVLBF3SD5v/nf4WFWGL/HQzR7HaLJo4yENS9vO/khv7BI/MoJ+fbxAOvqFcYC7Amhh4HQ+sr2bd6zYaD2AYxYcwmjtzq+OQa+WmHHstqmW+LjzfzN8dZ94g4MnrsH5qfvIz45U/wuCCGEECKpKMSS705RcQlO33ouLJnTZ6qxKMCyyixvjeWtoiNWX8IoPVbB5l0SeSX7i1W0Rc/N/8YovbtQWn1R6O7IXwd/PXzyJ956NWbFISHI8q6ZhHzr+Iy/ngFRmLP1lDAxGt+PeVjkrZ+DFx2Hysabov3/awdYXt4cbw7CGFz5ufuEY42HbB62h2mb4+gVZ6Rk5IjfDSGEEEIkEYVY8l3hFewr9z0xftURodLKWzuFLo4zTYTZhFU23BB1HRZaX79OJVsYC8gKn2GVz8o6aOFR8fIgRkIA4LOpTlp7VOiaSci3zic4FjpG54WbMXzcqdACywIsny1YTdf+TZCs7Fj4GkV0vD0Ujjc+zp3fuOKtsTzI9mTnBD5z8elbz5BNk6sRQgghEotCLPlu8C6Od1xfYdqG48LsqDzA8hYivlQOn/SFzzAsjFn9It2HP13KwyxfC5Mv18NnbeUBgL9OXrnW2mwDJ4/X4ndDyLeHz0K83uIq229ZgBV6OBgJXYgHLz4uGv+q/+ifaYGtpJQHaT7RmvxcS3YuMBJmI+ezhY9aegBX7nmiuIR6PxBCCCGSiEIs+S4UFpXgCQuAs1gQ7D3FSKhg80orD4rDV5wWWmXGCpO/VF7h/ZqFT0LDuzvyNWfLJ6DhQZYH7/nbz+CFX4T4XRHy7cjIzsO+s4+EFlh+jAld9GfswpBFx4QbM+WTK1W2z/9TpTzI8iWz5OdYCK+ZH2+dxulDc6M1XL3DxO+OEEIIIZKEQiz5Lvi+jsUCg7PoO020tIYQYGfuEZbOUd/q8M20DpUXIchuuYMhS2zeBFk+Ppa3FK0wuYjw2BShazQh34o7zq8wYY2VMEkS31/7ae4WZgLmE5eJAmzl+/o/Xcq7FiutOo8BWnuFIMtvGvFjTdfyOtKycsXvkBBCCCGSgkIskXhJaVkwPXnv3TF6M0yFtVpHbWEB9htrHSovvHKttpkF2cXHWZAVjZHtLp58xuLsQ2Rk5YnfISH/rISUTKw2vfR2HVh2jMnP3Q+VDdeE/biy/ftbKnxNZ76eLF/2p/9M3o3fSFgWaNTSg7h8zwMFRSXid0oIIYQQSUAhlki8W098MWLhPqGLI69g8zDLJ5kZxQLi6G3fcgWbhWv9B1DTvY1Bi44Kr1s0i+oOjF5+CG7U1ZF8A/IKinD8qitGLtqH7hN3ou80Q8jNMoPSqgtQ31o+SVpl+/e3VESTPfFxu4O0Dwlj5XlLLJ9UbY7eKYREJYnfLSGEEEIkAYVYItECwxKwds+VN2tV9tM0xqD5h6Gy8cY3OUbvg8K7ObOivOG6eBZVQ/ScwoICC7QbLK4hMi5V/E4J+QeUiWYjnr7JWnyM8aWqdmPwwqMYtfmuhARYcRG/Vr7EljA+lh1r3SftwOA5e2B59hFS0rPFb5oQQggh3zoKsURiFRUX4+CFJ1CYZSqMJ+VdHPlETnwSFx4Myyd1kYzyAIrLz0DuzfhYQ1a5NsOFuy+Rl18ofseEfF2pGTnYZe0AeS1TIfDx4Cc/Zx+U112VwGOMFfZ6+fjYoTo26C/u+cDPHerLDsLVK1T8rgkhhBDyraMQSySWm3eoMMMon2mUrwPZb8ZuDF1sLYwz/ZYnmqmsCF0dde0xeNExUVdHFmJ5V8e5W0/BnWYrJv8Qj4AoFvAOCGPNZafz5XRMhOWhRm9l+62kBVhehOD9UFivWUHoVmyEnnw5Lnb+OHD+MTJokidCCCFEIlCIJRIpJ68QWw7cEMaR8gqoaKIZS6FyKmodkrwKNg/eI9dewQAt0VIgvOtmDxZkLc8+REFRsfidE/J15BUU4vTt5xgwy0QYp913uiEUFhyGyqabbH+VzGOsvPBzxPAVZ4Wu0XymYn68aemdpOWtCCGEEAlBIZZIHL7yjN/rWExZdwydxm8Xut/yiWaGLz8jzEAqUeP0KhResR615S6G8xlUZ+wWujryGVR1jM7BJyRG/O4J+ToCwuOxYvdF4UYR797Ogx5fskrUAiu5AZYXPlux8vpronHo03cJQbb/jF04d8edlrYihBBCJACFWCJxsnMLYH3VBUoLLMRLfhhioPYBoTuuxI3Re6/w1liVjdeFcYc8NPSashMjF+/DqZvPxO+ekK/jtpMfhs4ze9NSKT97H0asvSwEwMr2XYkqwg0jBwxbaivqzcFCOl//Vv/wLcQmZYi3ACGEEEK+VRRiicSJTUzHPP3TkGUVa17B7jfDBMOW2LDKqQRONPNe4SGWt8byJYL42rG8NZYH9fUWV4XwTsjXkJaZC3PbB+jBx4uygMdn/R6y2Bqqm+0lcyxsJUXUfd9OmAyOH2d8bOyU9cfh+DRQvBUIIYQQ8q2iEEskSklJKVw8X79phRVmS51rCeV1V0QVU0kPseJumiPX2WGAlrnw/jqO08e0jdZ47heBklLq6ki+PL6vzdc/LUzoxMec8xtFSsKs31+uFZavOaui64ARGx2gtMkBIzffgxqfQKqSn/0cZazBY6jp3hKW5OJjY3mQ5TfGzG3vo5S6FBNCCCHfNAqxRKIkpWVh7+n7GKhlip6TDYWQN2TRMWEsbGUVVUkswkzFW+5CQfugMN6Xrxs7THsvzGwfIC+/SLwlCPlyzt11x/D5e0VdiTV3QX7ufmHtZR78Kttn/25R2+wI1a0PMcXMDUsOP8fyg27QNnmIsVsdoczCrHolv/N3C7/hpb7VAYorz6L/rD3CDOcdxm7FatNLSM2gWYoJIYSQbxmFWCJRvIOjobnJWhijJ0zGMtMUiivOisfpfSfdHFmIVde7h2HLbN90deRrdM7WO4XE1CzxliDky7E89wg9Ju0U9j3eCjt0iY1o6aov0BKrrse+7nCBzqkAWD+Nh3NQCjyDE3DfyR+7jjpjur6oRfZLBFnesszHoMtpmbP3aoguGtsxT98WXkE0kRohhBDyLaMQSyTKg+dBQiss7+bIgyxvrVRef/WrdSPmXR5HsaL+Bbs5lo85VN7AZ0/dL7Q288r12BWH4B1IlWvyZeUXFGH7kVtCN3Ye7IQbRSvPsbDp+NmPM36zRk3vCZZcioB9WDYi4zMQEJWF6Iwi5BYWIyUsEra2zpjEjzsWdj93kOXjYtU222PgXEuhJZYPUZi89ijsXV6hpLRUvEUIIYQQ8q2hEEskBl/64qLDS6EFttfknUKIHaJjLbQQfY3JZoQAyyrdqqyM+pIhlhUeFkbpOQjj9WSn7hSW2lHRsRRmjC1klXtCvpTI+FSsMr2EzuO3CyGW9wYYKYw5/8zH2FZHjGLPqb7PD0eesBD75BUMjj7DskMvsO5CKO5EFaKorAjhXoEwMLmPsez4+9xjZHkPDj6R2qAFVsIsxXwiK5XFljh+1RVFxXScEUIIId8qCrFEYmRm52P/+UesYm2M3kKINRLWhq2scvp5C6s8b3aE0paH0LR8gfXHnmGJ6UOMYd/7Il0cWRG1eD3AkMXHhBai7pN2QnH+Xhy94oz0LBqvR76QsjI89QnDnK2n0G2CaOK0AbPNobrphtBqWdm++lcLb9kdbfAQM20DYH7JC/p77mHEujsYwsqwLY+hbReL51lAQWIcLljfxwR2HCrzrseVPNdfLaKu+w5Cd2ne4tx7Cnu/s0xgYGWPArpZRAghhHyzKMQSiREWnQK9gzdEIZZVNvmyH0qrLmCsweetXFcs6lscoKzrCPVdT7HuShiu+6XAyzccp844Yxz7vtpnrlSXl/IQO2zZKWGpHb78x6DZpth2+BbikjPFW4SQz6u0rBRX7nti/KojwphY3tth4LwDQpfbzx5it/KW0AfQ3O+GObufYNJm3jLLvsfC7ShWlPYF4GxYEbJTEnHd9j4m6n+pEOsodJcuHxfbdaIBdIzOI4uWtCKEEEK+WRRiicR44ReJBQZnWEXTSFj2Y8AsM4xce/mLzZjKuw+PZhX3mYe8sedxAjwTCiFUa7OS8eSWG8ZvuweVLexnKvndv13EIZaH9AGz+SyxLLRP3yWsj8vDPCFfAh8HeujiEygusBC67PNJnQYvPCaa1Okzh9jywsfFCuPMyx/j3fZZGbE3AOdf5yAuOgpW++9Dgz2m+rm7E7PjjB/nfL1Y+bn7hJbnDmO3QXPTCcQkpou3CiGEEEK+NRRiicS44+qPcSsOCwGWr+fIW4iU11/7YpVrNV1HTLL0gsXLTIQmZ+OVbxJ8kgqQmZny1UIsr1zz98mDe6/JhlBfehC+r2PFW4SQz4uvj7rrhAMGzNyN3lN2Cl1shy05KYwb/RIzEwuFBdN3uuULLbH3Md4mAnfD0vDqhR9WbmfHGQ+7FX/usxTROF/VjTeFSdR4S2yn8dsxZf0xvKLjjBBCCPlmUYglEuP8XXcMnG0qTOzEJ2EZvOgYVHVvfbHKtcqm+9Cy8sF+l2ictfPASgsfWPlmIzU7VQixGl8yxArlgVC5HrzwiGhc7MQdGDzXDM5er8VbhJDPq6SkBNutbgvHF2/955M6DV9mK4wb/WIh9r2ixo4p9W3O2PgwGc5+0bh4+gnG8lmMv9RkavoPoKZ7W3SzaOpOYUKrSWuPwjMwWrxVCCGEEPKtoRBLJIbNdTf0ZhVroWvtjN3itSvtv1jlmrcGTTR2whwLF2jq38PILe7Y68VCbM7XC7GjNt8RT+5kKIRYBS1T3HsaIN4i5LtQJmoB5V15i0tKUVRcigJW8otKkFdQjFxWsvNZyStCVm4RMnKKkJZdiNSsAlbykZyZj6SMfCSm5yE+LQ9xabmIS81FbEouopNzEJmYjXBWwlgJjc9CaFwWQmIzEcRLDF/SJh2vItMREJ0Jz9BUrNx7G3JzLIWuxEKIXXHmq4VYPj5VddtDaBwMxFXfONg7ekFHnz3GAuznb4UVFx5i+TI72uIQq7EdE9dY4YVfhDAjOiGEEEK+PRRiicQ4bueK7pN2vAmxw5aeFELel6xc8wlmlHXvQmnTPajqe+CgT85XDbE8PPBlhHiI7TbRAAqzTODg+kq8RSpTJvxPFIrK3oQiIRgViYNRYbEoHPFgJBRxOGIlPaeQBSQejgqQwkoyC0flASlBCEissIAUIw5IUUJIykEED0oJLCCJQ9JrVoLFISkwmpWoDPiLw5JfRDp8I9LgHSYqnqFp8HidipchKXAPScaL4GQ8D0rGs8AkPGXFLSAJLv6JcH6VCKdXCXjil4DHvgl45BOPh97xeOAdh3terHjGwdEjFg4vY3DHPQb2L2Jwm5Vbz6Nx81kUrj8VlatukbBzjcQV1whccYnAJecIXHQKxwVWzj8Jx7nHYTj7KBSnH4bC9kEoTrFy8v5r2NwLwQlHVhxCcNwhGMfuBuPonWBY3QnC4du8BOIgKwduBmL/jQBY3vDHvuv+sLjmj72smF99BXO7V9hz5RVMr/jBhJXdl3jxhfFFXxhd8BHKzvM+2HHOGwasbD/rhe1nvLDttKhstfWEHiubT3pAVygvsfGEqKy3dse647y8wLpj4sL+vZaVNeKvwvfKizUv4p9nv7fRxoP9jDsmbr+LoSsvQn7ewa8aYsdsY8faZvbVxB27Hsfi9mM/GOx7ABV27H2pWcB5EZaz2nJXWHOah1i+JvMEFmKf+oSjlB1DhBBCCPn2UIglEuPIZWehq195iB2+9BQLsV9wrN6bcg9qW+5D7Z8IsVsdhRDLJ3Xqp7WPBXcbbD/5VAhaPHCdYUHrTdgqD1qsWLOwJQpZQULIOmIfhEMsaB28xUNWAPazYnk9ABYsZJUHLDMWsMzs/FjI8oMp+8qDlunl8uILE1Z288JC124WunZf9MGuSz4wFocvXgxZACsvO1kIq1iEYHZWVMrDGS/6b0KaJ7aWFxbUtp4SBTZetpzyEMpmVnh42ySUl0KI07V5G+R42XDCHRtYOFvPA115sGOBTghx/Csra1hZfZR9ZWW11XOhrDrKypHnWCmUZ1hxWFSWs7LskKgsF74+xVJeDj7FEnHROeAmlMWsLNrPvrLCv5b/mz+uc0D0s8Lv8ucRP/cK8d9cJbwG0etaLX6NolDK3gt7H/w9bRC/x00scPLtwMOsaNuIthPfdnxb6rPCt60B2858u+887w3DC94sLLPPjH92LDwLny/7nPlnvpd9/kLYZl9nGt3B4KW2GDDHUhRil5/+CiGWHUt8FnDjZ9hwLRRXnANheOgJNDY7iCZzqjjx02cuohB754MQ+8yXQiwhhBDyraIQSyTG4UtO6DhOXwix/XmIXcZCrDDhjGhyli9X/uEQu/g4+mvuxqDFJzBy4w1MNnqI2WbOmGP+tswVigvm7nXBPHHRtigvrpjPyz5XLCgvlm5YKC7lYYuHMFEoEwc2FrCEcMXCHQ9WPPzxVjseqHiQ0mVBiocoUZASBSj9M7yIwhMPrjzM8nC7iwdfFpxMxOHpbXASFUsWpnnrJQ/Zh24HCi2bVvailk4exq0dg2HDgrmN42uhVfTUg9dCeD/Lwvy5x+E4zwpvTb3kHI7LLhGwc43AVddIXHsaKbS+3nwWjdsvooXW2Tus3H0ZAwePWNzzjMV9rzg88IoXWnYfs/LEN0Fo9XX1FxW3gEShRZi3DruHpAgtxh6vU+AVmiq0JPuEpwmty7yV2V/olpsutEDzLruvY0Wt02GshCdkIyIpB1Gs8FZs3t2Xt2rzLsC8pZu3eCdnFiCFldTsAqFVPDO3UGgl512Jc/KLhK7F+YUlKCwSta7zlnYetETdXv9+4CorLYX+kVuQnW4kHhNr9hVC7D2obnaEqoELVpwPhM3jIBgdfIxJWxygxB5X0RPNSjxWn7fWVvb7f7O83514/HZMXHsU7v6R1J2YEEII+UZRiCUS4+gVZ3TRMHjbnVgIsV+2O7Go/IMhVuhOfFyY2Kn3dFMMWXgYR669ZMEpFQHiLrr8K++yGxSTiZA4UXfesHgWmBKzESkOTTHJLDCx0BTPQhPvFpyYLhpLmcJKWhYLTNmFQmiqWDIqFnF348xKCg9ZWXy8ZoXCQ5eolHdZLmYh7MPCuzTzYPZ+4d2d8wp41+e3hYe3d0pRCQoqKTzgFbKAV7GUd6l+U3g3a1Z4CBQV3vW6DCW8sFD4fuFBUSgs1JQXHnB4xnlTxPupZCuD0bE76K+5S5id+GtM7DSKHUMqW52w/HwQTji/xv5jTphhwI43PVEr6fjdTzB9rwu0djxgx9x7Mxl/jsL+hqruuxM7TV53DN7BNDsxIYQQ8q2iEEskxvGrrugxaeebEDt0yUnR+pVfKcS+Pyb2iy6xIxTRWD3eEitM7DRpBwbN3oM7Lh8bE0vIX1fCAr3Z6fsYNGcPevEldmaYYKiOtehm0fbPfZzdEyZPU9vmhKVXwnH9VTKc3YKw/4I39M94YzsrOy4G4sTjUFy874uVxg8xdovj553gSdyLQ3nDNcjPtRSOs07j9DFtw3GERCeLtwohhBBCvjUUYonEOHnjqbBGrBBiNVmI1TnxRWcnFspWXtF2xMhNrOi9xH5vUYh9fMMVY3h3R/a4+pda+oOFWP7+hizisxPzJXYMoDDbFA+eB4q3CCGfF29tPnXrKdSWHEDPyTuEpXYUFhwWHWefdT1mdlxtYV+3u2L1jRg4p5WhmP394mzevTofCbxrNZ9ULKsYualpcH/ojnk77wvdjj9nSyxv6VVnx7jS6osYMHuvEGI7j9fH3G22SMvMFW0UQgghhHxzKMQSiXHJ0QND5pmJQ+wuDF5oBdVNN79ciGWV29HbH2KC8WNM3+2MmWY+OOGfi7ScdDx1fAntPU6YZvwQ4w3uY9QXCbIPoLLxJgbNf7tOLH//fMIZQr4E3iX6/rMAaG60FvY3WbbfDZhjwY6zW58/xPLuwgbOWH4pBDYuUbjuxsoz0YzSb8rzaFy95w/jgw8xTv8eVNnvVP58f60IkzrpOQhdpvn4X35u4etQb7C4ioJCHqsJIYQQ8i2iEEskBq9cT1prJbTGyk43xsC5llBef/UzV67fFrXNDpi09wW2OUTj5stYOHqmIDibV/OLkR6bhIceMbjp7I+FFk+EFtnKnuOvF97N8QFGrL0idHPkFeteUwwxbuVhBITHizYIIV+Af2gcdAzPCePPZVmok5u5hx1n177QzaJ7wnE2YuNdKFZVNjlAecsXGAvLCu8iLeqyf0xYF7fn5J0Yrr0XFmcforCIQiwhhBDyraIQSySGV2AUlhqdF1qHeJDlleuRay9jrMHjSiuof7eossrz9MM+sPLLRUQqXx/1/ZKDiOgorDnigmEbHCp9jr9chLF6D6C08iwGzDZDbxZg5WbuxhLD8wiPTRVvEUI+v9TMHOhaXhNmApedxvc7U4xYfVHUM0E8hvRzFt6dd5QeC7NVFP69L9PTgYfYR8Ja0wraB9BX0xg9Ju3AuBWHcdHRA8XFJeItQgghhB/sWlcAAHk1SURBVJBvDYVYIjGiE9JgYGXPKtbGQqjrO92YhbxzX6wllo91HbvjMaabvV2eRnuvi7CUzTwL0X/P3+uECTsefPZKtmjZoAcYtvSkMIkVbyEaPNcMRsfuIiElS7xFCPn8+KzLu2wc0Wk8D7FG6D/TROhuy1ssv/wkal+38HOHqu4tYTwsb3XuOsEAMzfbwMUzVNgOhBBCCPk2UYglEiM3vxBWV5yFEMtnTu073UioXH+pFiJe1PUcobzpLhQ33MXwSoriRgehtWiMfuW//1eLMOEM+zp40TEhSPCZiZUWWAiTW2Xm5Iu3CCFfxjE7V/SfsUvoxs5voojGn9/+YjeM/okiulF0HyPXXhGWEuKtznxm4iVG5xEWkyLeEoQQQgj5FlGIJRLl2kNv0fjQyTzEGgvLz6htZpXrLxRi/6nC34/alrtQmH9IaCHqMsEAakv2496zQGFdU0K+JL6M08TVVsKxxm+iyGmZs7Bn932F2O0P2bnjDobonBCWEuLvs4vGdmw7dAt5BUXiLUEIIYSQbxGFWCJRnDxChIlXhO7E04yFSY9GrrssVEgrq6hKZuGB/J7QQiQ/Z58wMzFf9mP8yiMIDE8QbwlCvpyouFRstrwuzFDMj7V+03dh+PLTUN/KJzD7Pm4Y8UCusuE6BvBjjL0/Ps5eccFenL71XLwVCCGEEPKtohBLJEpAWDwW7TwrLLHTe4qR8FXoUiy0xH4nlWv9h0JY4Ovg8vGIvDWs91RDYcbYtIwc8ZYg5Ms6c/u50HVfCLHsOBs0/7AQ+r6n1lilVefZe9sNWXaMdWOBfdmuC3gVFifeAoQQQgj5VlGIJRIlPSsX1tdcMWj2HvSYtBN9pxkK4/XUNttXWkmVxMJDrJrubWEJIf7+eGuYymJL9r7dkF9I3RzJ1/HUNxxTNxwXuu0LXYpn7hFC3/cQYvkxxte+HbzwqBDQ+fqwPSbuxMELj1FcQrMSE0IIId86CrFEopSWlcEzMEoYH8onO+JdbeXnWEBpzUVx5VSyW2PLW2GVVl+E3Cwz4f3xyWZm653Cq9B40ISp5GuJT86EiY2jsLQTnx2b74u8d4C6Hl9OSsKPMxbER6y+xI4xcyGg8zJq6QE4uvmL3z0hhBBCvmUUYonESUzJxOo9lzCAVa7LuzryCZ6Eyqmkh1hWueatyoMXHUX/GbuFyjV/j/qHb6OwiFqIyNfDJxC7/zxQWNqJr5/KZwMfMMeChb8Lou77knqssdc9avNdYUIn3srMjy9Z9lXX8jrCopPF754QQggh3zIKsUTiFBQW48p9T6jq7EcXDQOhyy3vequy8QaroEp2kOUtscrrr2KAlrlQweYtYGNXHIbdfS/xuyfk64mIS8ECgzOisDeVr81shEELjoi67wtBtvL9+Jst4vCttPK8MOMyfz89JxtCXssUVx94CecWQgghhHz7KMQSiRQem4JZm23Qefx2oZtj/xmmQsvKKD0HSOpMxaJWWL7kh7XQusxbYfmsxGvN7RAZlyp+54R8PTl5hbj2yBsqOpboOlHUfZ+PjeUzFfMZtPlNl8r25W+ziAIsHwvLl67iN796TuHB3BhLjS/Q2rCEEEKIBKEQSyQS71prbvsAg+eUT/BUvpblFVGFVRJbY3kL0aoLQkjgywfxyWbkZ+3GyZtPxe+akK8vNSMHG/ddE2bx7cVDHzvW+LI0wkzFPMRKyLEmjDfXc8TQJTboP9MUstONhHH1o5cdxKMXQSgqpu76hBBCiKSgEEskVmB4InQMz4u7FBsLlWze1ZG3tEjaDKq8C7QyCwUK8w+j33QeYI2Esm6vHQIjaG1Y8k8qwzPfCMzYdAJdJrBjjYW//jNMhHHovFuxRPR8EIL2PSivs8OA2RaiVtjJOzFozh4YHruLtKxc8XslhBBCiCSgEEskVmlpGc7eeQEVnf2iyVmEbsUmUFxxBupbeVdHSWmNZa+Tvd5hS23QV9yNuA8ryov3466rP4qphYj8w3gr5f7zj4RJnvixJnThn7UHw9mxJnTh/6a7FbPji50LVDfegIL2IeEY40G8i8Z2aG05Cf/QePG7JIQQQoikoBBLJFpiahZ2WNkL3QJ58OOVU/k5+zBy3RWJaCESgjYLACPWXIL87L1CCxGfCbb/jF0ws72PtExqISLfhrCYZKw0uSSMQ5edyo41drzxLvx87Vh+E+Zb7VY8Rv8RVDfdFNaT5mPN+TmCr708YoEFTt54ijJat4oQQgiROBRiicRz8QrFpLVH0XPKTqELbl9NI2HiFuWN4jF73+ialuXjCflsxAO1D7zpRszHHWpuOgH/0DjxOyTk28CX3Jm4xgq9Ju+ErOZu0U2j2RbCusbqfL8Wguy3c7zxG1mqureFrs/9ZogCLD++eJg1PHYHsUkZ4ndGCCGEEElCIZZIvMycfNjeeoYhwnqWrHLNKqr9NI3F42NvCi2d31rXYh5ghXGw668LXRz565WdaohuE7ZDdckBXLj7Enn5heJ3SMi3oai4GHYPPKG81ApyC45Bbo4lC4bGwkRPI9ZcFnfjf/TPt8qyv8+PMT5ml8/2zddcfhNgWZhdY3YFPsEx4ndFCCGEEElDIZZ8F/h6lpv334CClqlo2Qw+Zo9VXAcvOgo13duiEPuNBFn+WvjEU6obbwpBm4/j7a9lDtkZZhg6zxy7TtxFBk00Q75BxSVlcPWLx8K9j4UWzgHzj6Evb5HlazWzQMu7xavrOQg3jv6x4038d0UtsCzAzjQVBdiphsI5YbHhOXgERInfESGEEEIkEYVY8l0oLStDcEQiVppegtxM0VIg/VjFtf/M8llUeZD9FsbIilqI+AzKgxcdE2ZUFmZ6XX4WA5acx1pLB4TGJIvfFSHfjrLSMjz0jseaY+6Yb+EC3aNPoLr0sDCGm980ElpkZ+/F8GW2wnrHQpD92l2LWYDlrcG8i77CgsPiFlhj9GYBVpZ91dpyCs/8wlFSWip+V4QQQgiRRBRiyXfF93UsdAzPsUqraIZf3gLDW2IGLzwqrGsptNL8Yy1Eokq98rqrb1pghcq/5i4MXGAFxbV20NrjBGvHEMQkU0ss+XZk5xXhwpNwzDF3wdrj7nD1T0RoTArMTt0TuvF3ncCCLDvWeJGbtUc43pQ3XBP2+a/TlV/Uu0Fty10MX3EW8nMs30zixM8F3SftxNT1x/HkZQgFWEIIIeQ7QCGWfHde+EVAW/80uk3cgT5TRC1EvMVTYd5BjOAT0Og5imcu/kphllXi+d9T3+IAxZXnMXDe/jcVbL5WJS+r9lyG3ZNgHLgVBO19rtC1eQlHj1jkFhSL3xUh/4yIxGwcuBkg3GDZdtoLXqGp4u8AUfFpOHjxibAcVOfxBkJg5Ps1378Hah9k+/s5qOreEnofCGs3f+ZAW/686lsdobzeDkN0TmCAlrno5tA0Y9E5gH1dYHAG954GCj02CCGEECL5KMSS7xJvcZmtd0qoVIsmezIWxu0J3R2Xnxa684rC5aMv1lJUPvaV/x0+wdTwpacgp2UmVPJlK1SwF+04+2aMXkZOIS46R2DZ4WdYaOmKo3eCERybKXyPkK+ppLQML0NSsOOcF2abOcHiuj8ik3LE330rNSMH5+++hKbuCaH3g3C8sa+8O7/czD0YvPgYlFZfgMrGG6KJn/gxt5230P7ZcbO8Kz4vbwMx77bMezYMW2YrvjkkmsCJr2XbVcMASgv3Qe/QTTz3Cxe/WkIIIYR8DyjEku8WX3pnqfEFYbKkHpN3ChVbXsHl42T5mpEj1l4WJn0Szaj6VyrVlZTySjYrvHVITddemOxm8IIj4gq2aHweb33lr2vd3qvwDIz+YK3KwJhMmF7xw0xTJ2w+6YHHPglIy6bZisnXkZ1fhHtesVhp9UwY/3rJOQJZeUXi736I771uPmFYufsShmmz440FWb6PC70geGHHnML8w1BcycPsTYxi4VOYAGqb+NgTh9pKC/+euOcEP6ZGbbkrzDo8cr0dhi6xEZb46Tdd1LOBL1HF/zb/On7lERy94oLEVLoJRAghhHxvKMSS71ZpaRnCY1JgevIelBdbCmtb8gAp6l68i4XZPcLYVL7GJa8U8wqyKIyyIMvDbHmpsttx5T8nVLTZ8ymtuiAsn8PH5PIAy1un+N/nra+jlh6A5blHiEvJZAFW/ILfk5lbhDvusUKrLO/KaXUnEJGJ2SgpoS6R5MvhYfXCkzDMNnPGmmMvhPGv+YUl4u9WjXfV5d2LzU+zsLn0oND7gbfM8ptHQsssP+ZmmEB+7j5hsjXFFWcwct0V0Y0kFmh5N39+7LxT+GOs8OCqsuGG0KI7bOlJIRDzXg3lEzf1YceV6O8YQ2G2KbS32eLB8yDksTBOCCGEkO8PhVjy3UtOz8bVh96YvuG40CLLW2l4pVqoWLNKsNwsM1YpPih0M+aT0fAKsxBSPwio75V3vn9fmFSGz4o6jD0PHw/In5dX3GWniSrxvaeIKvRztp7CbSc/pFdjGZ2CohL4R2Vg/40AoUvn2mPP8cArrlqhgpA/KzY1F5ZsX5th8gSG530QEJ0hLKvzZ6Rm5goBcvP+6xix0AK9JhsKIVN0zIluIvEwyyeA4t375efsE0IpXw5nyBIbDGUhlQfVoUtY0TkhLJPFuwrLz7EQxruKbgrx4+rtcVx+c2r6Rmscv+aCoIhEFBXTMUIIIYR8ryjEkh9CfmERnvqEYeuhmxg23xydxm8XZizlFWA+VpZXgHno5JVl3jrLW4p4qB2x5rIwqzFf05WPo1XTZYV95f+tsv4a+/5F4ef4z/MlPfjv8+fhXRv58/Ln52Nfu04wwMhFljA8egfuryJQWPTnJmxKSs/HrWdRWHf8Bebtdcbea/4IiqFukuTz4RM2bTvtiVl7nHHwZmCl41+ri3ePj4hNgePTAOy2ccTENUfRY/IOdNbYLnQzFoVadtzxY2SquNsxXy+ZBVTe3V9YO1n83zywCsfom583FJbQEo4rDQNhbeilxudx+vZzvAyIQkZ2nvhVEEIIIeR7RSGW/FAi41Nx/q47dPdfh8aqI0KFmgdaXikuD7Sy01ilmv2bV6D5Uh2D5h8Sgm154eNb+VfeVZi3IvGfE82Gyn9P9Dw9Jxui4zh9YWKpiWuPCuHZ7oEX4pIyxK/kr/EJT4P51VeYu9eFBVp33HGPQTqNlSV/Q15BsbAfrbJ6jkWWbjj3OOyzjr9OSssWwqzpSUcs2HEGY1aw42aWCTqz444fI11YEO3OAilfb5Yfj7IzzTBwwVH0nbEHPSZuFx7ngZUfpx3GbhOOVaUFFpi20Rob9trh5I2n8AqKppmHCSGEkB8IhVjyQ+IV6+uPvLHJ8homsZA5eK4ZurPKMq9Y81ZTPjkMryzzFiMhoE4XdT0WWob4ODwhtPKJZEStQvzn+e/x3+f/HjLXHFPWH4fewZtC1+GUjL/eqvU+vuzOrefRWHH4GeZZuODw7SD4R6ajuITWvyR/Dm/hP/soFNr7XLDq6As89k1AyRfajwoKi+EVHI2Lji+x59R9rDWzg/b205i8/hjUlh6A0vy9GM7LkuMYseEWlJbZQHG+GZQX78O4lYcxU9cGOkbnoH/4No7ZueDes0BEJ6SJn50QQgghPxIKseSHlp1XACfP19h57A5mbrHB6OWHoLxoH4bNMxdai4QlQybuELoe95ttiUGLT6CfliW6s8DaU+iObCz8HJ+RlU8exVuZZm89hV0nHPHMNxy5+V+ulTQ0PktY9kTLzEnoZnzfK05YooeQT+GNljHJOdjP9h9NkyfYec4bQTEZVU4y9rnx7saFhSWIiE8VlsOyvfVMmOjM7NQ96Fk5YoKBIxbsccDuk/dgdcUJ1x96wzs4BhlZucLvEkIIIeTHRiGW/PBKSkuRmZOPxNQsvAqNg73TKxw4/0RoKZq87hiGs4A6aI4Zhi6xhtLaKxiqYw0FLRMoLdiHaRusscHiKg5fcsJdV38EhiUIE0ll5eYLsyN/aRm5hXjkE48N1u6YZeqEfSyUhMZmUtdKUiW+X/pFpmPraU/MZAHWyj4Yien54u9+fbzlN7+gCDl5BcjOLUBEQiY22bzE9jOe8A1PEW4E8THktEcTQgghpByFWELewyvMqRk5iIxLhX9oPDwCovDMNwKWV72wYJ8z9l/zFiZn4uu7BoTFC8uKpGXm/mOzofJuxMEsuFrdCRLGyi479Aw3n0UL3Y4JqaiwuFRY/5Uv27TQ0g12LhFIzSoQf/fbUFRShuMOIdh00gMvX6eKHyWEEEIIeYtCLCHV5OgVj40nXuK+d7z4kW9Lek6hMEEPf43zzJ1hZucnTARFCJeSmY+T90OhbeGCtcfd8dAnXljC6VtTVFIqLCO10NIVl50jxI8SQgghhLxFIZaQaigqLsUNvsTNsRe4yb5+y0JiM4W1PufvY2GFvd6rblFIzPjnuouSf97ruCxhVutZZs7Ycc4bvhHp4u98e3i34fCEbCHE8jHf/NgjhBBCCKmIQiwh1SBJIZYrYK/3gXccC7Hu0NrjjH3XA/AqMh3532DLG/lyeKumd1iaMP51hqmT0OVcEm5o8BZi3ZMe2HLKA9HJn29mb0IIIYR8HyjEElINkhZiOT6BT0xyLo6y4MKDLF+Sx15YV/bbGgNJvgw+JvqRbzyWH3mGeXudcdUtUmLGSfMZiA/bB2Ht8RdweZUofpQQQgghRIRCLCHVIIkhtlxmbhGc/BKx5aSHMIPx7ou+CIjKEH+XfI/Ssgtw5mEo5rDwypdfcmZBMK9QslrhHTxisfroC/Y+wsSPEEIIIYSIUIglpBokOcSW4+MiTziGYJGlK5YefIpLTuFIz6Z1Zb83fP1gk8t+0DJ1wq6LvvANT5PIJZeCYzKFEGvE3gOtGEUIIYSQiijEElIN30OI5Xh3Uj7z6+ZTHphr7gzjiz5wD04Rum8Syfc8OBm6Ni8x28wZR+2Dhe7kkorvq9vPeGG51XMk0cRkhBBCCKmAQiwh1fC9hNhyUUk5wiQ/8yxcsPLIc9i5RiAmRXIDz48uO79I6H7L1wjms1JfdY2UuO7DlTnmEIzFB9zwNDAJpXSfhRBCCCFiFGIJqYbvLcRyJSVlcPFPFNaVnbXHCSaXfeEVmoo8CZn8h4gkZRTgwpNwYfKm1VbP2WeaIP6O5Lv7ko+LfY6zj8NQyI5BQgghhBCOQiwh1fA9hliuRDyD8ekHodDe54KFlm6wc4lEWnYhjUP8xvHPJyIxGxbX/DHT9AmML/ggKDpD+Ey/F36R6dhq6wnD897IzisSP0oIIYSQHx2FWEKq4XsNseX4DMa8y6b+GS/MNHmCHWe94Pk6Vfxd8i16EZKMjSfcMcfMGccdghEtweNfq5KeUwhzu1dYvP8p4tPyxI8SQggh5EdHIZaQavjeQ2y5sPhsnLz3GksOuEHnwFOhhTaRwsM3hXertX8RI4wVXXzAFdefRglh73vEJxw7/yQcM/c44UVw8nfVykwIIYSQv45CLCHV8KOEWK64pFRYV3bbaU/MMXeG4XkfuPonoqBI8icKknQJ6XmwfRCKueYuWHvMXRjT/L13+3byS8AiFtgvOIUjJ5/GaxNCCCGEQiwh1fIjhdhySRl5OHkvBAssXbHk4FOcfxyG6OQc8XfJV8WCKl83lY9/nWXqhB3nvBHE/vtH4B+VLnRz333ZVwjxhBBCCCEUYgmphh8xxHK8VdbjdQoMznpBc/dj7GThiY+V5Wt4kq+Ddx9+GZKKzSc9MJMF2GN3gpH4A4W5pMx8HLYPwrJDT/E67scI7oQQQgj5OAqxhFTDjxpiudKyMhaa8nHJKRwLLV0xf58rzjwMRXIGtYp9aXy/u/syBov2uwnl1vNoZOR+n+Nfq1JSWiq8bz4Ds5t/ovhRQgghhPzIKMQSUg0/cogtl5tfLMxgbHzRV5gRd/PJl3ANSKKleL6Q1KxCYZKt2Wxb87V8XQMSkV/4Y45L5usX8+3Au7TnUC8AQggh5IdHIZaQaqAQ+xZfyuX843AsPfQUC/e7wdohRFivlHw+wbGZML3sJ4x/5TcNAqIyxN/5MUUl5QjLCe254if8mxBCCCE/NgqxhFQDhdgP8SVPtp/xElrItp/1gpNvArLzqJXs7+D7GW/t3nzKQ9iuR+8E0/qoTEpWAY7YB2LtcXd40PrFhBBCyA+PQiwh1UAhtnJp2QW4+CRcGK/Jx8ueeRiGyMRslNJ6nn9aZm4R7rjHiFq497nhxtNo5BfSTQEuv6hEGBs8d68L7ryMFT9KCCGEkB8VhVhCqoFCbNX47Ll+EenYdckXM0yeYMspDzwLSPphx2/+FSmZBTh1/zW09jhhvfULoZW7qKRU/F3CBUVnCOsWWzsEo6SEbpIQQgghPzIKsYRUA4XYT0tIy8P1p1FYfviZMPGT9d0QxKdSV9hPCU/IFtZA5TcA9tj5ITg2g1qyK5GeU4i1x9xhdMEHsSm54kcJIYQQ8iOiEEtINVCIrR7eKuv5OkWYgGeeuTM2nXiJB97x7HFqla3M86BkYeZhPv6VT5AVm0rhrCq8S7HljQBhn3oWmCx+lBBCCCE/IgqxhFQDhdg/JykjHxecwrHiyDMs3O8KK/tAYcZdIsInwOL709JDz7B4vxuuuUUihybF+qjiklLcfh6NZWybXXaJED9KCCGEkB8RhVhCqoFC7F/jF5GG3Zd8oWXmJIyVve8dh7TsQvF3f0xxqbmwufcac82dse64O9wCksTfIR9Txv4XGJ2BxQfcYHHNHyXU5ZoQQgj5YVGIJaQaKMT+ddl5Rbj5PBo6B93EE/OEIDIx54ebuIiHrtdxWcK4Vz7+1eSyL8Lis8TfJdWRk1+MTTYvocsKb+0nhBBCyI+JQiwh1cBD7M1n0RRi/6KColKhFW3fdX/MNHXCBmt3PPZLQG7Bj9GFtrSsDO7ByVgvHv9q++A1kjIphP0VfFzsaqvnwvYkhBBCyI+JQiwh1VAeYteyEMtbZMlfw1vP+LhGvh15qywPtXx23u9ZQVEJe88xwlq6Ogee4vaLaGTk/thdqv+OG0+jsOboc1xyDhc/QgghhJAfDYVYQqqBQuznU1ZWBu/QVFhce4V5e12EZVPuvowVuop+bxLS83D8bggL7C7YeMIdrv6JwgRF5K/zCU/Demt37L7sJ+xLhBBCCPnxUIglpBooxH5+mbmFwrZcceQ55u9zxaFbgXgVlSH+ruQLiM4Qxr1q7XGG8UVfoTs1+fsycgqx45y3MPN1enaB+FFCCCGE/EgoxBJSDRRiv5yQ2EyY2fkJMxhvsH6Je55xSMmU3HDC1zPlMw6Xr/9qcy8EqVkUtj6n4w4hmL/PBV6hqdQaSwghhPyAKMQSUg0UYr8sPoPxfa84rD76Alp7nHDwVqAwky/f7pIkr6AE9u4xWGTJx7+6wcEjRniMfF58G/P1Yu1cI5BfSNuXEEII+dFQiCWkGijEfnmFbBvz4HrEPkhowVx++CnuvGQhUEJCSkpWgdDqOsvUSVgC5uXrFGFSJ/L58RbYrbaeMLN7hYycIvGjhBBCCPlRUIglpBooxH49vCsxb8EUuuOaO8H86isEfONjZYNiMmF0wZsF2CcwveKH4NhM8XfIl5CYni/sF7w1Nj4tT/woIYQQQn4UFGIJqQYKsV+fPwuu+28EYME+V6w5+gJ2rpHf3NjSktIyOPsnCuveztvrjOMOwYhLyxV/l3wpRSVluOAUjhkmT+AVlooy9j9CCCGE/DgoxBJSDRRi/xl8vOMd9xhhu8/d6wKL6/7wi0hjIeafHyubnlOIG0+jhbGvS1jh67/S+Myvx/lVIuaauwg3N3ILvr/lmQghhBBSNQqxhFQDhdh/VnRyDg7bBwmTPq2yeg77FzH/6AzGiel5sHEMEV7PphMv4RmaIv4O+Vr8o9KFLuf7rvkjPpW6FBNCCCE/EgqxhFQDhdh/Hm9tc/ZLELru8m6ke+z8/n977+EWVZZ1//85v+877zuhp2e622ybc7edkznnnHOOCKIIRlTMAXMkKBkkS1QySM45u35n7yrsnhlmhlZKKVif5zkPWlUU9xace886e++1tfdq83uMyra+fo3U/CrsuxaHCfv89BgyC2r0cfJ+KSir03TzVafC2YOXEEII6WFQxBLSAShiuwYtra0qIk97SZ/QYCxwDcXN4CxU1r4Hh1qjU0OSCi2pzU6B8PBJRWFFvfVJ8r4R5+dbIVkaDQ9KLLQ+SgghhJCeAEUsIR2AIrZrUVnbCN/YPG2zMs0Iyl2XYxGVaruU3pq6JngGZWGuS7C2/rkXnvN+hDP5j0irHYnKX/HPQGOTffUUJoQQQsjbQxFLSAegiO2apOdLX9lkzHIOwpJjYbhuhGZnt1x5VVKL49betRvORuLZi2LrM+RDI7+bpcefwelGAvJYF0sIIYT0GChiCekAFLFdl5aWVvjF5WO1ewSmGaHpaARNdGoJ6t7RKfj169fa/1XqX7UG11PqX6utz5KugLRccr6ViPVnovR3TgghhJCeAUUsIR2AIrZrI75KuaW1Wis742AQFrqG4nZoNkqMyHkbzyWpt5SIq7jfTj4QgHO+qdpSh3Qt6hqb9fc870iItmIihBBCSM+AIpaQDkARax9U1zcj3IjPredjMGG/P3ZejsXzjLLfJWRr6puMMMrC7EPBWOgWiseRueYx9iHtisjvNS6zTDcu3B+nWB8lhBBCSHeHIpaQDkARa19kFlbjnG+aRujEjOmSX7qmnv43pJ726P1krX/dcj5ao7E0DOralFc3al3srsvPP2jvYEIIIYS8PyhiCekAFLH2h9TEBsQXYKsRo9OcArDzUixCkorQ2tq+KE3ILMMO85rJDv5aZ5maV2l9hnRlmlte44BnAtacjkR0Wqn1UUIIIYR0ZyhiCekAFLH2S25JLdwfv8ScwyFY5BaGS35pyC6qsT4LNJrfrfQZXX0qAlMdA3DOJxVlHYjakq5BSytwIygLy44/w63QLOujhBBCCOnOUMQS0gEoYu2b1tbXCHtRjM3nozFxfwD2X4/TWkoRuI8jX6m4necSquZALea1xH6QuljpF7vkaBgO30myPkoIIYSQ7gxFLCEdgCLW/mk1aqe4oh5XAzIx93AwpjkGYMWJZ/h5rx82ekSpAZSIXWJ/lFU3YN2ZSG21U1XbZH2UEEIIId0VilhCOgBFbPehrqEF1wMz8c0OXwxd9whfb/eFZ1AmBawdIz19D91OwiK3UMRn/j43akIIIYTYHxSxhHQAitjuQ2hyEdadjsT8IyFq4LTaPQJLjoXBwydV04uJfXIjOAtLjodp39iWFqpYQgghpDtDEUtIB6CItX8qahtV6Ej/V6mB9YnOQ3FlvdbKSj/ZaU7SVicGAfGFqG9qsX4XsRciUoqx5nQEDt5MQJO4PRFCCCGk20IRS0gHoIi1b7KKanDq8Uvt/7ruTAQiU0qsz1goMWL24tM0zHUJ0Qjt+SdpSM+vtj5L7IGi8nrdjFh+4hkqalgXSwghhHRnKGIJ6QAUsfaJ9BBNyCrH7qvPtf+r081EZBb+e3Eal1GmQmiSee3WCzGaelxdR0FkD0gd7MlHLzHDKQiJ5nfOulhCCCGk+0IRS0gHoIi1P8SoKSihEEuPPcPMg0G4GpCh6cP/CRE+RRX1uBWShYVuoZjqFIgz3qkoKK+jKLIDHoTnaLr4/Wc5TAknhBBCujEUsYR0ABWxZmG88hRFrD1Q19CMG0GZmGHEq/QPfRKTj+r6jkdU5ftj0kvh4BmPyQckBTkS/nEFNAzq4kSmlmDt6Qi43ElCaXWD9VFCCCGEdDcoYgnpAG9ELCOxXZ5XJbVwu5+MKQcCsOlsFKKNsHlb8kvrcC0wE0uPP9MI39H7L5CWX2V9lnQ1copr4HgjASvMPH1VTKdpQgghpLtCEUtIB6CI7fpIum9MWil2XX6OKY4BOHAjHml5nSM4o4wQ3nM1Th2MN3pEwTsmD5W1rJXtatQ3tuCSXzomHwhArPlbIIQQQkj3hCKWkA5AEdu1qW1oxtPnBfr7kRTiC0/TUNbJ6aRVdU3aome+ayhmOgfB3SsFGQVVaGllinFXIiixEJMcAnSeNrLVDiGEENItoYglpANQxHZdauqb4Gmtf118LAx+cQUakbMFIliTX1XggGc8JhqhtO5sFAITCulg3IV4YX4/y44/g9u9ZBRW/GcjL0IIIYTYJxSxhHQAitiuSWF5Pdzuv8CEff7YciEGcZllaHoP0beSqgbcj3iltbLTHANx9H4ysotqrM+SD0leWS2cbiRo2ndSdoX1UUIIIYR0JyhiCekAFLFdj4Tscmy/GKOpo863EpFR8O/7v9qCRvM3IQ7Gh28naRR4xYlweEXlopGtXT4oEpm/HpSpKd/SYokQQggh3Q+KWEI6AEVs16GxqRXe0blGND7DLCNULjxJQ/EHTBstrWowfxM5WG5ErAgnlzuJSGQE8IMh/YGj0kowab+/9gZmzTIhhBDS/aCIJaQDUMR2DYor63HFPwNzDgVr/1fvqFw0m99NV0BSV/d7xquDsfSVfRyZi5JK9ir9EBSU1WGha6hG6Pk7IIQQQrofFLGEdACK2A9PXmmt1p5O3O+PredjkJBVga4WYxOX5EeRr7D0WBimHwzC8Qcv8OJVpaYek/dHVW0T9l2Lw5bz0YjLYKsdQgghpLtBEUtIB6CI/XBIeuiLnArsvBSLifv84Xo3SQWt9IXtioixVFp+FVzvJWPygUA1f/KJyVOBS94P4k59LSATS489000FQgghhHQvKGIJ6QAUsR+GZiMI/eMKtGWK1Jte9s9QZ2B7QI7TKzoPa05HYsoBi/lUal6V9VliS6QMNjKlBLMPBcP9cYr1UUIIIYR0FyhiCekAFLHvn/KaRlz0S8csI0SWn3iGx1G5qKm3r2imBIsTs8tx5G6ymlAtN2L8Vmg2+8q+B8qqGrD4aBh2XIrV9GJCCCGEdB8oYgnpABSx75f0giocvpOEqY6BWtcYlVpifcY+qa5rxj3z97PqVIRGlCUq+zyzzPossQmvX2PP1edYeSociVnl1gcJIYQQ0h2giCWkA1DEvh+kHUqcEXfbLkargdMRa/1rd0F62co5TXUKVHF1PzwHheUfrj1Qd+eSX7r275XPmRBCCCHdB4pYQjoARaztqWtsQWCCpf5V2tRcC8hATX33SwNtaGrB07h8/Vua7GCplU1+VamPk84lNLkIK8znLCZbhBBCCOk+UMQS0gEoYm1LRU0jrgdlYqZzMJYeC8fT5wWo68ZuvuJgLFFZd68UTDeCfdHRMNx7lo1K1m52KtIvdv2ZKKw/G6mbJIQQQgjpHlDEEtIBKGJtR3ZRtUYjpzgGYsflWMSklaK5pYv2z+lkyqob8TQ2HxvPRen5Sw1nPGtlOw1JTz94KwFzXUKQkivO0D3j74oQQgjp7lDEEtIBKGJtQ3RqKTZ5RKmBk6R8ZhRWW5/pWbx4VYnjD19g9uFgddT1DM5ESSVrZTuDa4EZmH8kFI8ic7VlEyGEEELsH4pYQjoARWznUtfYrBHIpcfDMfNgEK4aoVHVw9vOyN+YT0weVp+KwPSDgXC8EY+IlFI0msfJ2xOcWIi17pFwu5/MlGJCCCGkm0ARS0gHoIjtPIor67X+Vfq/StTRL66AWZ6/IbekFicevjBCNgiLjj7DrZBsFNDB+K3JKqrB7ivPsdo9AuXVjdZHCSGEEGLPUMQS0gEoYt+d10aoZhtB4XovCZMcArD9YgwSssq1bpH8IxKpDntRhI0ellZD+67FIT6znFHZt6ChuQWnHr/EdKcgpGpdLCGEEELsHYpYQjoARey7E5teZkRZFKYcCND6TzF0Iv8eEfc5RvSff5KK2YeCMOdwsKZdi5Mz+X08jHylf3feUblobOJGACGEEGLvUMQS0gEoYt8eEWPe0XlY5BaqQswzKBMlVQ3WZ8l/Q2qF/eMLsPVCjBpg7bwUi2cviq3Pko4QlVqCZSeeaZp2Kf/2CCGEELuHIpaQDkAR+3aIYLjkl44ZzkFYdvwZ/J7n0yH2LcksqNa02PkuIbohcOFpGl6V1FqfJf+JzMJq7L8ep5kAUiNLCCGEEPuGIpaQDkAR+/tJL6iC270kTePcfD4acRnsf/quSFQ7KLEQG89FY4pjgPaVjUgpRm1Ds/UVpD2q65px0Yj+GQeDEJtean2UEEIIIfYKRSwhHYAituOI+ZDUv26/GKsGTq53k5BXyohhZ1JU0YBzvmmY7hSI+UdCcD0wEwVl9WgV9yzSLoEJhWqS9SDiFT8nQgghxM6hiCWkA1DEdgxJFZZepwtcQzH7UDBuhWTRiMhG1DW0IDKlBDtks8CIs20XYhCVVoKmFgq09kjNq8I8I/iPP3iJ0krWxRJCCCH2DEUsIR2AIva/IwZEUqc5zTEQq05FIDC+kGmu74Gc4hpcDch4s3Fw1icVhewr+y8Ultdh95VYbe2UnF1hfZQQQggh9ghFLCEdQETsPSNiV1HEtktGQTUO3UrEZIcA7Lwcqz1NyfujoakFIUlF5rN/rg7GYmAk6bMtrTTRaqOqvgkXn6ZjgVsoAuILrI8SQgghxB6hiCWkA1DEto/UFkaklLxp/yL1rzl0zP1g5JfV4bxvGua6hGit7DnfVGTkV1mf7dk0t75GaFIxppi/U4lcE0IIIcR+oYglpAO0iVimE/+KpA97R+di6fFnmOUchGtBmaipZ/pwV0D6om69YHEwlprZ4MRCVNU2WZ/tueSW1qrAd76ViGr+rRJCCCF2C0UsIR2AIvYfKa9u1P6v05wCscJ8JiKSmtj/tcsg1k4lVQ24HpSpZkYzDgbiwpM0FJTVaZuenkpNQzO2GVEvLZ+ScyqtjxJCCCHE3qCIJaQDUMT+Sk5RLQ7eTNR2JXuvxakYaKYjbpekzoi2uMwyOFyPx8R9/thwNqpHbzhI+ydpTSTz2Csqz/ooIYQQQuwNilhCOgBFrAVJUxUhNOVAIE48fIFXrH+1C3LN70l6yS499gwznYNxvIf+7sTnKiihUJ2c3R+nWB8lhBBCiL1BEUtIB+jpIrausQUPI19h0dEwzDkcgmtGELH/q33R2voaES9LsO9aPGYcDMIGjyjt6SvR2p6EmF8tMWJ+28UY/bsmhBBCiP1BEUtIB+jJIlbqKM8/ScOsQ0FYfiIcfnEFKoiIfSL1zFcDMjUaOedQMNwfvURqbs9xMJaa4F2Xn2PZiWdIy6+2PkoIIYQQe4IilpAO0BNF7OvXr7X/q/NtS/2r9H99QTOcbkNidjn2XnuOiQ5+2OQRpWm2FTU9w8HYwzcNy44/00g0IYQQQuwPilhCOkBPE7ESrYrNKMXGs1GY7BCAU49fakSWdB8kll5R24j74dlY5BamTtMnH6Ugp7im20fa/eMKsOpUhNZ1M6uAEEIIsT8oYgnpAD1JxDY1v4Z3VB4WuoZi7uEQ3A7NRjnrX7st9Y0teJ5RphF3EbLyN/4kNl+dfLsrmQVV2OgRpSZljU2siyWE/D4amppRWVOP0ooalJTXoLyqDnX1jWgV9zhCyHuBIpaQDtBTRGxJZT3OeKdiulMQVrtHIDC+wNyseVPuCRSU1+Ou+dtecTIC0w8G4fCdJKTkds/0cRGuItpnHQpGVhHrYgkh/57C0ipEJ2XjXkA8jl0PxM4TD7DO5TZWH7yJFY6eWHHAE6ucbmCt801sOnIHjud8cOFBOPwjU5CSXYRaI24JIZ0PRSwhHaAniNiXRrA43ojHlAMB2Hn5OeIzy63PkJ6ERGUdPBN0I2Pt6Ug8inzVLSPx4rA904jYp8/z0dxD++YSQv6VFnM9SEzPx13/OBz3DMT24/exYNdlfLviOPpOdsD/fb0N/zN+C/4wfiv+8NWvQx6T8fGPuzBi7iFM2XRWha6jhw8u3g9HQFQqisu5aUZIZ0ERS0gH6M4iVtJGI1+WYNM56f8aoD1EC8tZ/9qTqWloNn/nOVjsFoaZzkE4/uAFknMqjNjrPvWjgQmFOp9Pe6Wgur5nGFoRQv49FdV1SM4ogKdPNJY5XMPnMxzxp2+34y/f7cBff9iJvxlx+vefduGTn3ebIV///fibeZ2I2Y/M98l7yPd+v+oEDp73RWB0Kl4VlqOFqceEvBMUsYR0gO4qYmuNWPGJzsVC1zDMPhRszjG7x/UNJe0j7tRpeVVwvpWg5l6rToXDNzYflbXdQ/Cl5lVi95Xn2HQuGkWVDdZHCSE9jZq6BrzMKsTp2yGYsvEs+k91wN9/3mPGbhWjbcL101/24LOJ+9BrkgN6Tz5ghuM/DXnsAHpN3I9PJ+zV75HvbRvy/fLYyHmHscntLp6Ev0BRaRUzQQh5SyhiCekA3VHESorohadpmOooAiUCocnFaKDJDfknyqob4B2Th5VGxE5y8MeRu0naesneY7JVdU04+eglZjgHGUHbc/rkEkJ+JSe/HEevBeDH1ScxZOZBFZptUVcVrUaMyhDh2nf6IQycewKDF53DsOVXMGLFdYxY6Wkd1zF8xTUMXXoJg+afQf9Zbug9xcl877437yECVt5bIrR9Ju/HmAUuWLr/Kp6Gv1SjKELI74MilpAO0N1EbEZ+FRw84zHRIUB7hSZlleM1O42Qf4NECqRHsOu9ZMw4GISlx57hfniOXUft5e9d6n1/2e/PulhCeiCBUalY7XQDg414lZRhGZaIqURdd6PP1IP4fL47hi67jJGrbmDU2jsYs/4exm58hHGbvfDFFm8zfKzDG+NkbPLCmA0PMXrdXYxcfcsI2+sYsvicEbVH8ZlEaH+2vL+IWUkzFqEstbYnbwQhv4R92An5PVDEEtIBupOIlYjrujOR2k7lxMOXeFVcY32GkP9MeXWjmQevsMY9QmtlHW8kIM6ODcBi0ksx70iIOnKX1zClmJCeQGllDS4/CtfU4b//tNuIyR0W4WoEpkRM+81wwaCFZzF8pacRpA9UpI7f/hTjt/nhy21P8eXWJ2b44ot2hjz+5TbzvHnd+O2W14/b9Bgj19zWKO3AOcc19fhTTU+WdOXdahQ1dPZBbD/2AOEJmdajJIT8NyhiCekA3UHESvqkRM8WuoVhrlm43wzJ0ppYQn4vL19V4tCdRG3FI2nGd55lo6ii3vqs/ZBRWI1dl2Ox41Is0gvoGkpId0aSjVJyiuB8wRfD5zhr5FVEpIjJzyZaxeuCMxi5ylMjql+KaDWC9YstRqC+ibi+xWgTtua9xqy/r2J2gIjZKU4W8WzGX77fgU9+2YPZ2y/gQWACqmrt73pKyPuGIpaQDmDvIra4sh4XnqRhqlOg1r+GvShi+jB5J6R+2jsmF8tOPMMUxwCtlU3OKberumqpC/fwScX8I6GISi2xPkoI6W7I7S4+NQ9rnG/is1/2al2qRUDu0XpXiZBK+q+Izk4Rrv9uWAXtmI2PMGTpRa2z/WzCHo3MipHUxz/swpgFR3DpYTiqa5kdQsh/giKWkA5gryK21ShViTYdvJWICfv9sfdanDrOyuOEvCstra+RVVSjLXjEIGzZ8Wd4FJlrN31lW83xSz2szI0H4a/s3qyKENI+4j68/tBtTR8WASsmS5I63GeqEwYv9NA61jaRqeOfxWcnjrZU5HGbvTFy1U0MmHUUvSbsU0EtNbniiCwOxte8ItHYzGwpQv4dFLGEdAB7FbERL0uw5nQkJjsGwv3xSxSU1VqfIaTzkFpZPyMG158xf2sHArDvepz2lbUH0vKr1KFY+iN3l/ZBhJBfkZ6sW4/e0wjsR9/vxCeSPjxhD/rPdFVH4bGbHr8X8fqPw1I/K/8evf6epjFLe57PzLGJ0P7rD7swfokbbj2NtZ4FIeSfoYglpAPYm4itb2rBXXO8kia5wDUUt0KyjNBgahKxLUlGuJ549BKzDwdjoVsobgZnoaKmawvDkqoGbD4fjZ2XY5GSR3dQQroTRWXV2Ov+GH2nOODPVgMnicBK+vCo1TctYnKbpA+3JzTfwzBCVn6+OB4PWXzeWidr6ScrdbLS+udhUKL1bAghv4UilpAOYE8itqCsDqe9U9R0Z83pCAQlFmraJyHvg5qGZu0ru/Z0JKY7BeGAZ7zWm77uoins1fXNZr6kYvmJcPjHF1gfJYTYO2WVtTh88SkGTD1gcSD+Wfq+7sGA2Ucxau1trX211L+2Iy7f81AX481eRshesLgXW4XsR0bITtpwFgFRKV32GkrIh4IilpAOYC8iNiW3Eo6eCZjk4I+9V+MYWSIfjOyiGrjdS8bMg0FaKyvZAHmlddZnuw5NLa3wjyvALOdgXPHPsD5KCLFn6hqacNUrCkOkB+z3Oy0RWCMMJYV4pERgt1prU9sRlB9qaER202MMXngOvSYdwGdGxP7tR6mR3Y25Oy4iPaeYQpaQ30ARS0gH6OoiVhxhI1OKsf5sFCY7BGj9a2kV04fJh6XR/F1KJsC6MxFaK6t9ZTPKUdfYtRyMRXDPPRyCgzcT0NzMRSIh9k54fCYmrHPX6KvUmEpkU1roDF953SIau5iAfTPMcY3d9Aifzz+DXhMdVHxLWvHnMxxx5LKfRpcJIRYoYgnpAK2tUPfSVafCVcx2JUQQPIx8hXkuIZjrEox74Tns/0q6DJLK/qqkBh6+qZhxMND8jVp6FFd2IQfjxuZWbDoXjQ0eUcgsrLE+SgixR6QO1vGcj/ZdFadficD2meaMocuvYJxVKLYrILvKECG74SEGzj2FTyfs1bRicVT+YpErgmLSrGdJCKGIJaSDSOuQ1aci8CDilfWRD4/0fz31+KW2N5EobEhSIeq7WJSLEKGithFBCYXYdiFGo7K7Lj9HbHqZ9dkPzxnvFO2hHBBfZH2EEGKP3PGLxej5Ltpzta2VzuBF57TmtKulELc/xLn4CUatvoV+M1w1Gmvpa7sHG1zuIP1VsfVMCenZUMQS0g5VNfVIyijA04iXuP00FlceRWHr6SBM3vcEW84E4bp3lN4o/SNT8CKz8IM0JX/xqgJ7rsapIBDzHHGGJaSrIy1t3L1S1Dl7oVsYzj9JR2H5h62VzS+pwOkHcZjh5I+N7iHan/HSwwhcfBBu5n4kPH2i8SAwHmHxGcgpKENzS6v1OwkhXYnU7CIsP3ANf/p2Oz61Clipgx299g7Gb3vajmDsqsOI7a0+GLrkInpNkrRiS1r0wGmOuPQgAk3N3KwmhCKWEENecQUiE7PgHZqki1enc75Y6XQDEzecwZeLXTFq/hGMWOKBEatvYsQyD/P/Q9rDbfLGs1hlXnfwgi8um+/zDk1GVHK2vp+tkPTMsBfFWHcmElO1/2sKiirqrc8S0vURMyW/uAJs9IjG9IOB2HP1OcJfFqOxyfbisKGxCak5RZqWdy8gDqdvB2PnyQeYufMqxq6/ixErr5v57YJhsw5i6CxnDJ9zCGMWuODbFccxe/sF7Td57Hogbj6RTayXSEovQGUN5x8hH5oWc11xveKHz6c7WiKXRsSK0+/w5VeNKPS2kyjsr0OMnkZvuI+Bc09qSrSIWBHnch2KTu5aZU2EfAgoYkmPpb6hCZl5pSpc9515jClGkA41C9ePf9iJv3y3Q2+C6gz44078XW6G01wwYN5p9J7uoo9JrY08L68T4wX5KoveaVs89P2ePHuBLPP+jU2dV59aUdOo6czSg1N6cUovWDGdIsQeKSyvh4dPCmY6B2KhayiuBWYit8Q2xiViiJKQlo/LjyKwxvmWitJ+U/arc+lHZvz95z1mfrvrHJd//13mvZnjbUPmu8zxv/5g5ru5Pnw2ca/WqC3Zdw2nbgUjMikLhaVV1p9GCHmfiGuvpNlO33IOfxi/RVNwe03ch8/nndIerNLCpj2h2NWHCNkRqzzRx9o/VtYiUicrrYNaxKyDkB4MRSzpcYj1fm5RBW49fY7F+65i6GxnTTlqS9exCFfLwvUTs5j99BfznHn+s4n70WvSfv0q/5fH5Xld4LZ9j9xgzOO9zc1TBPHS/dc0DbGgpFJF87sgC/6zPqla/7rGPQLPXhSz/yuxeyQ1N/JlMbacj8ZEB3/suvIcMWmlneJg3GoWtlW1DUhMz4fb1QD8vNYd/acewGcyp3W+/3auS+rhPuv8Nl9/Myzz3dK38c18t37PpxP2oO/k/fhqiRv2uD9GRGIWKqrrmHJMyHtEMiwu3H+mWRN//m6HmZu70HfaIYxac9sqCO0rCts2pDZWRPjgRR66/pDo8v9+vU3XLtn5pdazJ6RnQhFLehTZBWU4dTMYM7ad15RBEZt//WGnjjYbfhG0MnqZxWyfqQfRf5YbBs45bsYJDJxrhnw1o/9MN/Q2z39m3kMaqP9WCEs0V96zt7npjJx3GLO2XYDH3TAVz29DWl4V9l6LwySHADjdSsDL3EoKWNJtaDV/y3mltbgSkKHuxbMPBeHi03Q1LntbWlteIyIhCztPPsQPq05i8EwnjbB+ZOalRFRVgP52vk9yQN/ph8x8P2qZ5zpO6tcBZv73m3HEzGfHN6+3iNo9KmhlrouoHTjtAL5aehRrnW/BJywZdfVdx4GZkO5MaUUNFu+9anUk3q2bUZ/PP2U1c3rSrkC0lyHR2FFr7pj1iJMRsbtUpMt15uaTGL12EtJToYglPQK50HuFJGGZwzWMmHvILGTNjeDbHboAlbQjrZ0xi9h+M13x+Tx3DF18AcNXXNOm6KPW3sXodfcwRsb6+/pV/i+Py/PyuiGLz+v3WRa6B/T92hwF//jNdl3kilvisgPX1QxKIkQdRRyHpbXPdKdAnPNNQ37ZhzXBIcRW1NQ3IyS5CLuvPMcUxwBs9IhCaNLvdwsuLqvGqRvBmLzhLPpNcdA6Mkn5t2RKSMR1D3pPccKA2ccweMEZDFt6GcNXemrUZvQ663xfb5nv8m/LfL+NkatuYNiyyxi80EM3siTSYxG0u1UUyzyX+S6Pfb/yBBzOeiEth06ihNgSuZ+Kp8X4JUd1/onQ6zvNWe/NKgTtXsQ+xdgNj3QzTTJDZKNcrmUbXG6jvvHdMrwIsWcoYkm3R1J5JQr646qT+MgsZGUXUxez5kb3mVl89pnqjIHzTunidOTqW7pw/WKzt944xM1QvlrGk38avz4/zrxevk++XxbE0t9Norjy/vJz5KYjP1fq7yasPa2up3Jc/wlZ0N8Ny8G8IyE6pP5VHiOku5NdXINzT9LUwVj6H3v4pCKrqGP9W2Ne5GDXyYdan962gfTpL2Lysktr5PrPOGJE6Fld4I5aewdjNz40C0Vfncf/aa7LGL/dT81hxm58jNFrxQTKE0MWnUP/2Uc1kispjPJz2javJM1YjN8CIlM6tTaeEPIr5VW1cLvmj0EzHLVeXeagbFBJr9Uu3xO2I8Ocg0SUhy27optvcn7/+/VW/LLWHUnp+b9rU5yQ7gRFLOm2NLe04PnLV9h/1guDZjrhz99ut6YQSqrRPk0dlHRBuTGMMQtZXahuNQtWuen93hufeb18X9t7jDE3z2HLr+j7y46w/DxLtGYP/vj1Ngyb7QxHDx8kpuWjvfvPq5JanPFOxYyDgdq7MuQtolGE2DuhyUXYfC5aXbh3XIpFUGIhqv/NRk55VR0eBydiwe7Lmk4oacMy52T0nmzJshi84CxGrrqpm05tc/WtFrk63y3iVv4vYnjw4vOaiixuqBLplXTjv/24WxfVE9a546pXJPKK//PGFSHk9/MiswBTNp3V+nTZMJZUYqkh1bn9NvP7LcbYjV4Yud4Lozb5YFw7z7/T0OuNr26Uy3VMRKxcV6RU6cztEFTXvf8Wf4R0BShiSbdETJSk/cXcnRf1xtZWA6dphJMPaJ2bOP6N2+RlbhJyk+vsG53l5invL9GagXOP68+VNGM5Djme3pP26YI7JDb9Tc83qXN9kVOBAzcSMMnBH/uuxSE1j46npOdSUtmAy34ZmHM4xIxgXDL/lk2e39aEl1bWmMVcKL5c7KZzy1LfLovZvZryK+m/o9bdfTMvbTLfzRi7/iGGLLmIfjNctKZejkGyPiQaLBtX+896I4tmLIR0GnIV8It4iQHTHNVlXOZcvxmu5v5+472J2LFGuI7f/hQ/7vPHjzt8Md481tlCVjfcNntj0ILTem2RUqhe5vom5pH/LauLkO4KRSzpdkj968OgBE21sURD2lxEZUHrrPWulhRCc3Ow5U3O+t5fyuJ2g1ncLj6PPlMO6jG1CVmpnftl7SkERKegvrEZ4S9LsPpUBKY7BeGiXxr7vxJiaGhqQXxmGfZcjcPE/f4anQ1/UayPV9bUwvniE+3n+kbAmvmlqcOzjupiViKvMiffKsuiQ8MSKZGvsniV2trP557UFGOZ73JMH/+wyyy0D2C9y201mCOEvDtSE3rxYbhuCquI/XkXBs0/jXGbHut8bH++duLY5IWRmwIw/3wy3P1T4HTcDz9vs0Rk23392w7rdWv4iquaRSalC1Ki9O3yY8jMLbF+GoT0LChiSbdDdmWnb/aA9HP8+CdLw3NpqSF1a23R17dOI3yLoWmHZow1N9URK66j/0zXNy0+NEJsvs7afhE7z4VhybFwLD4aBq+oXFTV0bCBkN8ipmY3grOwyMyR+a5hcLmdAIfzT/HF4iOaXmcxbtqj4lFSh6VuVefgNjF2eZ/z3ZL6N2TJBa1hk9p4KSUQc6mB0x2x88TDt3YqJ4T8SkFpFQ54+GinAbmfSiR2yKLz1jnf/hztrGHxwvDCd0cT4fGyHoWFxbh3yR+Tt3th+Mb2v+fth+X6JYaS0jFBxPofv92uRpViakVIT4QilnQr5GI+f9clrYmz3NBkQbtfd2albk0jJu/h5vavw1JDJ/+W4/h8nkRpLOmGn07Yj4FmwT101R2sOvUMsenlbJ9DyL9Boq8x6WVwvp2En3c/MUL1JvpMP6LZDSIW+051xtClFzXbok1Q/ut8tO2Qnyk/WzbMxEBKXMullEGO8a8/7sSgGU44eMEX+UwDJOSdkHrYlY6e6DVhr973JdVWzBW/3ObX7tzstGEE7FiJwu4Ox3bfImS0AI0VpXh82VYi1gxzXRFTOXFG/+Snnfjzd9sxZNZB3PV/TuM40iOhiCXdAnHnS0jN0xY6nxnh2mbqIje0zxeceWPc9L6iMf9+mMXt9qcYs+GBEbKn1C5fTJ8GLPBA77keWH7wHtKyC61nRQhpj9etLbjsFYvhS8+j78JL6DNDzE4sTuNiqPbF5rboa3tz8P0NFdFmzktrnv4zjZDViKxlg22oWXwe9wzUdkCEkLfjWVwGJq6zlA5J2n6fac4YsfK69X7f/rzsjDFmozdGbw7A4hvp8IgoRXJhHYpLS3DfxiJWxiCzppFIrHRb+Hy6I45dD0BZZcfc2wnpTlDEkm6BmKVsdLmtdXBt5g7a7HyeuzoFW1KHP7SA/XV8udUI2fX3dEdVRGyvyQfw91/2ou+kfdjsdhf5xTRzIqQ9pObdL/wlJqx11xTdzyY76RwSV+ChSy9hnM7zrjPXZYiYlYV13+mHf43ImuvU6PlHcPlRBBoYRSHkrXgckqgbQm2lBJJqO3LNbZtuYo3b6GUE7FP8fCwJF0PS4PIgHWeeVaCgrAQPr9hWxMp5DVl8Qdc6H/+4E/2m7Mcm1zs0jCM9EopYYvfU1jeqzbz0ZLQIWLOwnbBX29uMWf/AegPoWotaGZJyOHrdPQyYdUwX4SK8xahhxJxDcL8Vghra5hPyL6RmF2nvVYlCfPKTJYVYNoGk/lR6KXbFud52TFIT31f7R1uErPSSnbrJA6FxGdazI4T8Hq48jtTMhr/9ZDFKlI3r0ea+31a+0/nDG6M3+OBbxwjsCXiFq7cjsfhINPaEV6OorBSPbClizXVEzmvY8qvah17OWRyKZ249h4S0POsnQkjPgSKW2D0Bkan4bsVxNXGytNbYgwFzjhuBaG2p0e7NoAsMa3R41Jo7FqMGa487EeLfrTyOmOQc6xkSQoSW1la4XvXX6IO4/WrJwCTpCXlejdO+sNnCtROGHNtmb+1L3WeKkx57m7HbRpc7qKimEzkhv4fXr1/jpGeQ9oCXLgQiYocsOmdpnaf313bm4TsOqUkduzsEi69l4EFAPHa6PsHQXdFwiDQittzWItay+W0pT3DRjTCJQH+99CgiaO5EeiAUscSueVVYjh0nHlgWg+ZiLhGOvjNctK2GZSe2C4tYHZbjG7nyhqYaap3LDzs1VWjXyYfIo4MpIYosWEOep2PihjP44zfbLK7jZp5IbblGXmxcA9cZQ1IBRWwPXnxOo8ciZP9kFuDjFrri1tNYbRdCCOkYLc2tcL3ipwZHbSJ26JKLZq5JSy0b3Ps3izj1wwz3RJwPy8TR04GYuOkR+u2OhdN7FLGj1tzSjW8VsT/txuj5LghjNgfpgVDEErvm8qNwDJ/rrFEZuaCLkZM4k1ou9l04KvMPw9xsN/tg8CKzsDXHL3V+4rI4bLYz7vnHoaWl1Xq2hPRcxLhk7eFbulBtcx7vM+0wRq6+rXPoQ7gQ/97R5losxm4DZh3VVGiZ6xJNmbHlHFKyi6xnSwj5b1TXNsDpwlN89OMeM4f24LOJRsQuvWSdb519PbC00/nWJQZ7vNJx6UYoJm9+hEHL7qP3zmjsDa9CYVkJ7l14gh82msfXe2vP6Pbf6+2HRcTexoDZRy0i1lwLpUd2SGy69VMhpOdAEUvsFrHWn7vjAv73620a0ZDF7YDZxzB6/T27iMr8OiwLW0l/HjD7uC5s//7TLu1zu2jPFSSy1oX0cBoam3HraQxGzDusdaQShdU62MXnf+373O7c6npDhayZ88OtdW2SfSG18FLT73bVH5XVddazJqTn0NTSipr6ZpRWNSCvrA6ZhdV48aoScRlliEgpQVBiIXxj8/Ew4hVuhWThsl8GXO8mYbaTL/rPP4s+Ypqmm9g2ErGbvTFqRxi2eOXgSXIuLl6JwNoTz7Dk2DMsOp+Cy8l1KKuuRJhPNLafDMKEXU/x1abOF7IWEXtHS6ZExMqG3uCZBxEUk2b9JAnpOVDEErtEeqI5nfNRe3lLVEbaaxzEyJWe5kLvbbN6GFsOSTWUhW3vKY4aZVLnVSPMT3gGorm5xXrmhPQ80l8VY/rWc1o/aql7362RCIloWhar9jbffVV8S//qNrdiOa8vF7sh7DnTAon9Iu3uGptbUdvQjMraJhWlheX1yC2tRXZRDdLyq1ScJmSVIzqtFEEJRXgclQvP4Cycf5KOU49ScMSIU6cbCdh95Tm2nI/GutORWH78GeYfCcWMg0GY7BCAqY6BmH4wEN/t8MHgZdfQd6brP2Rideo1wQjYcUaQjnFNhnt0BYpLyhH5shihyUUIMyMkpRJp5c2ob2pCcW4Jop+nwOFYEH5Y54Wx7b3fOwwVsWstIlY282T9M2SWE0Us6ZFQxBK7JDu/FFM2nsH/fb3VEpWZ5GAWhGcwduMjFYPtXfy7+mhLM5QecFLrJwtbqZeT3rcvM9k7lvRMWltb8TAoAYNmOOEv3+1QAdt3mvSDvWqZO3a4YSVDFqMjV91Ef7P4llr+thRp95vBqKlvtJ49IR8Oo0fR0vpao6SNTa2ob2xRcSoR06q6JlTUNqK8uhEFZXVIN+L0eUY5QpKK4B2Th9th2bjsnw73xylwMaJ0//U4bLsQg9XuEVjoFmoEaBAmOfhj4v4AyzDCVB5b4BqKVafCVbzuuxan3+vulWLeKwN3wnLgE5Ov4jEhsxzJ2WXYc8YXH/+0982mr00isVYRO+5wLPY9yUP4CyNczXmGJJqRUIjAFxVIKbOI2KJXRYiMfYl9R4Pwva1E7Jrb6G9NJ5Za4BFzmU5MeiYUscTuqG9owq0nMRizwEUNXj75aaeaIkmKjS5o7XRRK0OE7MjVtyxphmZB+9cfdmLcIldcfRxpPXtCehZq3nb8AXpP3K/zQTatxMxJHUjtLgL7z8MXQxdf0Gis1MbKWLz3CuJScq1nT8j7o9mI1YqaRuSV1CEltwoxGiktxOPIXNzQSGkajj94oVHS7ZdiseZ0JBYfDcPsQ8EqQCU6OsmI0Wnm61yXECw5FmZeE6GCdM/V53C6mQDXe8kqSi8+TcfNkCx4ReUiOLEQseZnJedUIDWvChkF1cgprkF+aR2KKupRZoRyVW0T6oyAliiv9IoWZIPL7aof/mzWAX8z1wYRsUOWXMQ4Izptsg7Y4YefHIIwyzlYz3m2+TpLIsMnknA6vhallRUIuP8Mqw774dvtTzB+czvv8Y7DImL/0dhJ1kKhzOAgPRCKWGJ3FJdXY6WTJ/pM3vfGkVAWtWKOJBf49i789jKklnfMhof4fO5JdSiWm9Rfvt+BjUfuoIHOpaQHIhGGLxZbFmwyek92xLBll+2s7r39MX67H0auvok+0w/pppUYPEmJxHXvKOvZE/J2NBuxV1lriZKm5VcjPrMcYS+K8eR5Pu6F5+BqQAbOeKfiyN1k7L8ej60XY7DuTCSWnwjHIrcwzD0cgnlGiMq/lx03wuxUONafjcSmc9HYZl4rqb4SKRVBK+9x2ghTec+7z7LhHZ0H/7gCjZhGpZZo6nBKbiWyiowwNcdTVtWo0dwmc4zvyskbQZqx9NsWO+IAbpO1wGYvjFr/GEPXPtIxbM1DDF39AH3em7GTxcBOWuz0m3FEBawYWn217Bhb7JAeCUUssTtiX+RodPIjI+5kUdvnN6mFdi9izU1KdpFHrLimi3UxffnDV1swacMZxKW80p1nQnoKdQ1N8LgbpuLu4x93atqt9oBee9fMdfssG/jtkNIH2bQatPCMLsD/bub7n77Zhj2nHqGCBk/ESkNzCypqm7S2VAyPJGIpUdLQpCI8ic3Hg/BX8AzKwoWnaTj12FJT6mCE6faLsdhwNgrrz0SpQNVxOgJrrWONu2VIiu9q90h97Y5LsXDwjMeRO4k4+eilec90jcKKoZJfXL4K4ecZZUjNrcKrklqtea1taHkTHX3fXH4Uoan4bza057tjjLTceh9rAU0z9sIQhzi4xNWjvqES/tf9MWW7F4bZpMWORcQOX35Fs7Ukc0POWZzNE9LyrZ8IIT0HilhiV1TV1OPM7RAMmHYAH0l9nFn0yaLWYvBiucj/64XfvkZbbWzf6Ue0/k9SKIfPPqTOpewjSXoSSRn5WOHoaUm1lUXqL5IueEGzLuy5bODN0HPwxYiV17Wu/xPtE70DUzedRWB0qvVTIN0FqS+VulIxPCqpbEBeaa2K0pe5vxodPTMiMTChEL4xebj7LEdrQU95iTBNxsGbiRo1lSio1Jdu9IhSEbr8uDV66hKCmYeCMeewJYIqUVURrpL6e+BGAo7ef4FzvqlG8GbikRGlAfEFGilNzqlETnEtSowgrWtsth6tffA4JBFDZh3UDW3JZug/6yhGrrn9fja5RMTKpvOecKy/nw2vyHQcPfkUP2/zxshN7bz+XYe5Xsh5iSu7ZGpJB4O+Uxyw2fUusvJLrZ8IIT0HilhiV7zILMSCPZfNBXzvm51X6a+qi0EbLmrF1GH0Ri+MMmO0+fdYG9S6tA25Salz6YKzurCVKJTcrOZsv4CSihrrJ0FI9+fWk1iMmndY54AYt6gD+aobmobb3tzpzKFupP80bDHvx297itHr7ml64KcSjf1pF/pPdYDrFX/rp0C6GmJ41NzyGg1NFqMjMTkqr2lUESjRUhGnUtNpEahVKk5FmD6MfIUbwZlaDyqGR9Ii5oBnPHZcjsUGj0isOPlMjY2mO4npkcXsaIq48DoFqjBdeuyZClcRsYduJ+HU45dqnnQnLBu+sXkITS5GXGa5miwVmOOoMcfW0tqqjsFyzDqs59BdCIvPwIT1p1XAipAV0zfZFOoO5Qb/MqzrHHE1lw38j77fqeUHx64FoLSSawPS86CIJXZFcGw6RppF7d/MQk9vWNMPY8QKT9vtuppF6zgZW3zNYtMXX5kx3jwuu682E7JWMT5i5Q09P7lZ/d/X2/D10qNIYM9Y0oM4ctlP691krotj98B5pzBm/f33EmX553q2L2Vs/cfHOmPIuYirumzG9Z58QI2r/mf8Vqw5eFNbiRHbI+JOhJ5ESkWcisGR1GuKiZAI1bboaV5pHVLyKhGbXobgxCJ4RefiVqgljffEoxdwviVtYSSFNxLLjOAU85/JBwIsgnR/ACbs9zeiNEAjphIllfTdnZefw1GjpMnw8E7F1YBM3HuWoz1Rw14UIT6rDJkF1VpLKiZHIpTFEViOp7q+SUW0HKMcrxy/nEtP4kVGgWZr9JqwV9cFvSbt/wA182Y9IJvcG7wwWtcL7b2mM4av+TmPMXDOCV0XSH/pIbOcccfvufbSJqSnQRFL7Ip7/nGaUqgupb/swcC5JzBm3X2bRWHlxjRumz9muMfh4MM0nPd5iSMXw7Fgny/GbDLP21DIysJWUqPEfVnq5EYvcMHjkCSzWGHPWNL9qa5twLZj9/GHr7aaOWBZnA5detniSmyj+S5j7EZvjN/hj+nHIrHOIwZbzkVj0znz9cwzrDjkh6+3+ejcb+97326Yc5GUxJWe6DPVyQj2Xfh/RsTO3XlRnZlJ5yMutyWV9cgqrkZSdgUiX5bAL64A98Nf4ZoaHlnqSqUtjDjriqmRuPCK+JzhHKTuu9KvVIyPJDq6+lQENnhEaw3q3mvmXmF14T1phO25J2naA1V6oQYlFiIipURFcGJ2uaYRixOv1JZKBLfMCFSJ6opobjFimvx3CkoqceCsD3preq2sC3Zruu0X3S4Sa7nmiR/AgFluKmKlO8OIOYcQmZjd4zYvCBEoYondIPWgp2+FqCOfpNeKiB288KxlUfsvF/x3H2M3PMaXe8Ow8nYWHsUVISqzElll9SgpKkeQfwI2Ovriqy3eGGMDIWsxpfA1Iv2kLmqlP+bQ2c5wvxWMyup66ydCSPclLacYyxyuWyKxKmIdtK+qTaOwm70wdKM/Jp98gdvpVcgorkWuGVIvmJqcjfMefvjeBvVuck6j199Dn2lS2yeL0+1q5hYWl4nXH8gwxx54bVbuEomU6KT8jl6+qkR0eimCkwrhE5OnabZX/NPVOVfNjiR191KspuSuMsJzyfEwLD5mcd9dcTIcq9zF8CgS689GYZN5zWYjYLddjMZO8z3ixHv4jqTwWtrDiNmRGCr5xuRrGxoRp+IALJHa7OIajZqKO7BESfkbtB2SrXDxQbiKWDF7FHEn5k7iUNwm/LrDsKwJvDF8xTX0nXbIui7Yjq+XHUN6bon10yCkZ0ERS+yGvOIK7HZ/ZC7ee7QeVkSsNDYXh8/2LvrvNDZ7Y9S2QMw5mwT3oCxc93mBo3eScSK4GImVr/G61gjZu6GYssMHI2zgQtgmYkWkSxql7DAPmHoAO47fR35JpfUTIaT7EhSThqmbPLTFlKQT957iZHEltmGEZez6RxjrEIENPkWIe1WBtOxyxGeVIym7DGHhKXA88gTfmIWkpAy29/1vO+Scxm58iH4zLWZufzaL06+WHcUN35gek3nR1NKqbVfE7Ta3tFbrOhOzK7SeVFq1+D0vwKPIXNwOzdZWLme9UzUFV1Jxd11+rlHQrRditAWMpOmKoZGYHq0y4lRSd6Vn6eKjoebfz/Q5MUaSqKnzrUScePQS55+mqTCVnxEQbxGlYrYkqbyF5XWavtsZLWFI5+MX8RIDpx/QGlGZPzKPRq6+YdOMjfc9LJt33hi04Ax6TdyvayDxBlmy7yoKSqusnwQhPQuKWGI3xKXmYqnDVRWxYn4ikRlpRWMTk5dNXhi99xkWu0dj7yl/fLvZC8PXPsLgrWHY6l+GooYG5MXEY+FeX4ywRT84q4gdZkS6pBjq+U7Yi7k7LiCDu66kB3DdJxrjlxy1pgjuRf+ZrmqAZDsR643h659gzvkEuIdlwdU9FIsOBmHG4VAsdAvBLEc/fCfi1QY1b7IRp7Vu1v7QfzXCXTIvXC77ob7BvhzJpbZUaklFkFbUNKK4sl7rObOLapBmhOmLV5UasVQn3pfFePo8H/fDc3DZmsZ77EGyRjzF8EjEqaTzSlsYEZ9iejTrUBCmOgZimlOQ1pwuOBJqBOozrDfCVF5/UETpw5caLRXB6x2dj5CkIsRmlCI1r1LrWkWQSv0o6R6I4aNkLsh1QjK1pPRA+sXqfbSbCFmtnV//wAh0V402S3bWiLmHtFtDdV2j9ZMgpGdBEUvsBtlt/XntKY3KqFPptEOW9EJbLWrNzU/MnL7e6oOxmyzuxENXP8Gi268QXlKLlOAYzN1jWxErdXL9ZrjoOUsvvPFLXGnuRHoER674qfOmupBP3G8xddrwQAVfu3PmHce4zV4YuS8Gjk9yEBr7AltcAvDLdl98KSUDZu5L2YCYvLX3ve86ZIEqZRFt5k5/+3GnRlnWHbqNmroG6yfy/hFBKiZHIkqlTrPNibeithFl1Y3aJkbSZqWmMyW3EtGppQiMl4jpK9wMztQeo9Jr9PCdRE3H3Xw+RutHF7qFak3ppP1ieOSvxkcyxIVXnpO+pdsuxmj6r9u9ZJzxScG1wAwVuyJ6w434lShpVmENSs0xyHHJ8UnqbmOTxZRJjluEqvQvlbRj0n0pq6iF2xV/DJrhpOJOfCQGzD6mvhLdQcRKZpaYSQ5fZukP22b2+Mva01wPkB4NRSyxG24+icHwOYe03Ya0ohDTI0t6oa1q5LxVvIqJiyxex5pF5rC1AVj3MAdPMvJxxcMfv2wzC19b9IPT4WsxcTA3Y3EslZuzLOrFoZmQ7oxoji1u9/DRDzshtV8i7AYvOq91braoiZUF4pgNPph0Pg13cprR0FCPvNxiBIa8wP7jAfhp82OM2miuB+18b2eMN4vU5WaROs1Zz/lP32zH9C3nUFlTZ/1UbIPIO/m8ZTQ2t6g4lfYwya8qEJVSAn8jSh9E5OB6UCY8fNLgdv+FisutRmRKXalER2c6B2GqEaDixCuidIr5OudQsJoeSY2ppPm2pe4ee/ACHt4pmhJ8V1vDGFH6ohiJRpSm51WqMBVR3ObGK+nFIppr6i2GRyJQRZgS0ob8PUQmZeOLxa74v2+2qciTTe7hK69r5oSlPKf9uWcPw1Ju8EiNLGVDTzKzPvllDza43EZdPaOwpOdCEUvsBjFv6DvZcgH/bMI+fD73/bXbEJOnEeu8MN4lAa6+Gbh+7xmmb/fWXpI2tdPf8NCc58k36UP9pzjAOyzZ+okQ0j2RyJm0zfif8VssC9IpThgmzsSbvWyyIJVNqjEb/TD3wgtcSKhAYlEDqkUntTSiMDcfN26FY95OaZ9ho9Za1nMaserXtlrSZufnNadQ9pb9HyUSKcZCIgbT8qoQl1GG0KQiq+FRDi75ZWiv0sO3k7D3ahw2n4vWKKkIz/lHJG03WIXoQiNSpV2MCNZ1Z6L0dWKOtMd8j6T8HlJhmgwP31TcCMrCw4hcjZYGixPvyxI8Ty9DUk6FphKLOJb+pWXVDZpuzBpT0lmUlNdgyf6r+HSClBtJSrFZI8x31wyH97FGsN3w1eMftfYO+kyVDa7dWvsrpRbXvaOtZ09Iz4QiltgN5+6GWWteLCJWGn6PWf/ApjcoiY6M2/YEPx2OwrZb6bjzstosCMsQ8TQGy/cZkSlpxjZKMZSb17iNj/H5PHeLiP3eiNipB/AwKMH6iRDSPWlpbcXS/dfw/325+VcRu/yqzkdbRVXGbX6KXw4EY8HJSKw59xwO9zNw92UtKszxNJcW4Oa1EEwUESuZGe18/zsN6zmNXH0L/UTE/rQT//PlJvyw8jjyiysggUep4ywor9OWLEnZ5YhKLdGWLSJK7xpRei1AIqWpOP5A+pUmWoTp+RisOW3OxwhQMTnSIf83QyKkbWOdjLORKlB3X7HUlR4173NG+5Zm4E5oNryiLIZHksorNa2pRhjnltRqpFTSeVljSj4k4lJ87l6YtqKT/qmSvdR32mGMWnPbzC0Rgu3MOzsYX259qusAKTUQQyfLBtcWLNp7hS24SI+HIpbYDWJg8PFPu38jYs+8NxE74VgcnP0KEJHfgBpZq1WXI8QnCgt3+2hfSdtEY42I3fSvIvau33PWeJFujTTuX7LvGv7fl7+JxC6/ZlMRK0M2pUZteIxhax5h6DoffH8kDkdjqlDc0oyilDTsl7Za8prO3rj6JxEri9VPphzGl2su48jtBLh7pcL5diIcPOOwx4jMHRdjVHCuN8JzjXskVqj7rsX4aO7hEI2ktvUv3eQhwjROI6ZSnyp1qrdCsuAVbelbKgZL0prmVUmNRkglZZcQe0PuiSlZhZix5Rz+9ytJKd6j80jb7Wx8hPE2Kzuy7ZD1zchVN7TMQDbxPzFrIEklPnzpqfXMCem5UMQSu8H9Vog6laqInWhE7IKzGLPhoU1FrA4Rsubr+N1BmOeRjAvxZlHb3IraknxcOOmPX4zQHGmTaKzUyXmZm/BpXchLD7z+Ux1w60ksWlqYhke6L7X1jVi09+o/iFjpj2hrEStDUostNfBi5uaNr1yTcSm1EeUlxbh/0Q8/bvPCiM6ug7eek0SN+k4/pGmDg5Zc1uubGB5Jau/8IyFYfjJce5dKlNXlTqL2P70SkIF7z6yGR9ba0qzCahRX1KOusdlS7EpID0AyOFwuP9XN3o+1l/xu9Jp8QK8dcj+1N5Mn8fuQkqnP553CZxP2WFKJzRpo5rYLeBafaT1rQnouFLHEbjhzJ1RrXX4VsWcsbqW2FrFmyOJZ0ghlYfv9iUScTWlCTW0VQu8EY87Oxxhmg16xlkisiFhLJNYiYg/gjn+cuoYS0l2pb2zC4n0fRsT+dqiZ24YgbPItRmxhOQJuB2HCDm8MN+K2vde/9WiLxK65pTWxcn376BdHfLv2AgLjXmkdaUlVA8qrGzWtWByCpaa0Tlx5xZHX6sarTrzWz5CQnkhKdhGWOVzXlGIRfZ+JCeTsYxhl4x7Tthiythm65KK2ExRB/jez9uk7xQHnHzzT+U5IT4ciltgNHloTa+kRq8ZORty9L2MnHSJkNzzCoM2hWOtVgpSqaoQ9DMH8XbYTsdI7UnZhZSEv6cQDWBNLegCSaSA1sf/vX2pibWPs9Nvx29IAEc0j1/hoW63HaWXw9vRXETuis+d7m4hdfdNSE2vO+Q9fbcWPq0+hqLTS+qkQQv4bspHj6ROD0fOPGNEn7fh2o5dZLwxZcl7ns11EY+UYzRi5+jb6z3TTdY+02JOvaw/dQtor9oonRKCIJXaDuBP3mSTuxJbdVRF3KmJt3GJntBlvFrZmET1oTRCW3chBRGkpbl8JwoytjzHcJm12RMQ+NOcp7sSWFjsSifUKTbJ+IoR0T9Sd+IAn/ufLLdpupvdkI2KXXbE6jdpoEWoWuKM3eGHkhl8diGXRO2y1H1bfz8LdhFwcd/XFD+a6MKqT57uekwjmVTfeiFg59x9XnVDXVUJIxykuq8be014q/CR6KffPPtMOYvjya1YR24WFrDk+2ZiXUgJLGvFeFeIiyMctcoVf5EtGYQmxQhFL7IabvrEYPttZRaz0iZX+qZYUIduI2LHmRvLtrqf4caeP+TmPMXTtIwxZ9RBDd0djz5N8RCe9xK7DfvjGLHxHt/P97z58MXpdO31iY9gnlnR3XmOz611tJfGmT+zi82p0ZjMRuzMQ0w+HYI7jU3y1/iGGrH6EQWu8MN45HscCM3HLJwZztxvBaYN+sW0idpj0iZ16UM9Z+sRO2+SB8irb9oklpDsSkZClLapUyP64G5/9shv9ZhzRNlYqYm11HXmXIQLWrGfEiGrwQg9NI5bj/tO329F70n4cuvAEFdW8HhDSBkUssRueRrzUm9LfjaD75Oc96DvtEEauummTOhfp//qlUwQ23knDtafJcLoQieVuYVjgGq6PXQjKxKXLwZi4wwcjO7s+TofcYH3NDdfT3HhddCf2rz/s0mbuCal51k+EkO6LGLQMnHZAIymfmQXcwLmnzOLuQedvWhnxKJkWXx6Oh1twHoKj0nHiShTWnYzAKvcY7H+cgfMP47HbxVcjtGNsYOImkRdJlR688JwKdjnnXhP2Yt2hW6iubbB+IoSQjlJV04CrXlEYOe8w/qKbYb8KWXEBt0Q8u5iQNde2cZseYciSC2pIJZvXct8XQ8u5Oy8hnWnEhPwDFLHEbohLydVm5nIzkmis7EyOWHEN47f7tX9DeNthFrVjN3rhm2PxOBpbjeKqWuRmF8InNBNXg3JwNygFbheMgN1qEbs2aa+jN1dfDFt2SSMzbYvaOTsu8kZGegTXvaMwfombLuAk86L/DFdr+UAnb1pt8lJxOt41Ae4xlSiprkdefhmexefDNzoHN+7HYN1Bs7iUCKwNBKwMEebaTmvOSW0LIuc8dLazttGoa2iyfiKEkN9DUVk19p/1xuCZB9XVV0ShGj3NcsOotXd086hrRGStEdjNjzF06UX0nuJo9f/YrdkoUzaehV9kCrsSEPJPUMQSuyG3qAK7Tz3SKOzf1ORgt7ngX+r8yIwMs1gdZ8TxFNdIbPdMxJE7CXC4FIVVbiGY5eCHH3dYnIqlFUe73/+Ow7JD7KspRZ9ZF7Vi6rTt+H3kF9PohXR/AqNTMXXTWU2jl42r3lMOYvTau52/aWUd47Y/xSSXCGy+mgiXO/HYez4Ciw8FYfJuX3y9xRtjbFL3bhkizCWFsJ8R6rLQFmfVr5cehadPNJqa2beVkLclr7gCW93uof8UB4s5kgjZifswUMqR1twxIlbWDx9ayFo6Ech6po8RsG3tdCSC/NOaU7gfGM/rACHtQBFL7IaGpma43wxREfux7KoaETt4kYem4dliN3XcRi+M2WiEqhHJ3+16ih92PcF487NGrX+sKcQ2icBah4jYcebGNnDuSXO+lvY6Epk5dTOYNTGkR5CaU4Rl+69pbegnkokwyUGNjyybVjZYdJpF5CiJtppF7Xc7n+DbbT4Ys8ELI9ab64CNNqveDPMzR6+7jz7TnHW+//Hb7Zi0/gxCn6er2yoh5O3JyC3BGudbZs2w943Rk2Q8yKZRW+sui5htZ27acpj7vJo4rb+vfe/FwO6zXywCVjauv1p6FNd9orVvNiHkX6GIJXbFXf+434jYPfh87imMMYs/m9W2SGqxOBQbQTvahumE/zzkfMZueoz+s46aBfxONXYYvcAFj4ISuCNLegSycNt27B7+MH6rRcSaReewZZd1wfmlrSInb+b7P7mS23B8af0qhjO9pziZBfYu/M/4LZi38xKyC8qsnwYh5F1IyijAcofr+OuPO41AtGRyyegz1RlDFp1/067PJpld/zIkfdhSFjFipScGzj2hGVcy98WF+C/f7cSo+S64cP8ZN60J+Q9QxBK7Iig6DUNnOeuF/lMjZvtNc9GbwPu58byvIQt0abfR1jNyN/73q234cokb4mnqRHoQUhMqGzgSndTe0POsvaG70XyXc5ENqyGLzqHXJIuZyx+MiF198AbqG5utnwQh5F2JefEKyw9cR78pDlqmoJ0OzLWl10QHbWcj91yZiyIwVWR28ua4bE5bxKsvRpvrmKQPyz1eoq8iqCV9WI7r2+XHcfp2CEoraq1HTghpD4pYYlckpedrhKLXxL0W2/wJe3Xx11ZD2t6Nw95Gm1PpoIVn0Guyg6YWibnDjC3ntP8dIT0FT98YDJ9zSOeAZF5I1EQilm1RjO4w5FxGr7uH/jNd9Xom7ut9Ju/DoYtPrJ8CIaSzSMkqwo6TDzF2wRHN6JK0XXEtlk2yftNdMGTxeYxac1tr1HV+SnRWUo3fRtCKaNVheQ+5r49Z/wAjVl7XUiHZtGpLH5Z7vMz/aZs9cPNJDFOICekAFLHEriivqtW6UDE5kou+7KIOnHNcG4O3exOxwyGRmTEbHmhrHYnKyHkOm+MM1yv+qGvgjY30HBLS8jRyIkZuf/9ply74hi650OkRkg85ZHEr2SQSDWqrf5+84Qz8I1OsnwIhpDOR3stXHkfip9Un9bqi1xdzrxURKWULfac6Y9CCM9qKZ+zGxxbfjS2WVnoWUWquPx0Z5vVS/iCmTXJPH7r8MvrPdtPNaRHNalL502792QOmOWK9y23twkAXYkI6BkUssStev36N6KQsjFngog6eIvLkhjNs+dU3N5i2xaE9Djn+ceZmOXzldYvNvlnU/u/X2zDJLGojE7P1/AnpKTQ2teDM7RBdZIqzqERMZNNq9Lq7Kv7am0P2NOQcxm54iEELz6pjqqQ3/vGb7dh54iFr4QixIRLpfBafgeUHrqmgbBOTbVkfvSbtR59phzBgzgkMXXxBe7ZLCrDUzf8qUtsZ1jWIRHIlojts2VUVxP1mHtF7ughl+RkyJJtM5vy4Ra44eSMI+SUV1qMjhHQEilhidxSUVmGZgxF5k8yNRxe2e7WexbIotNxA7HVIauHYjQ/x+Xx33RGWG53UycgOLftFkp6ItNqRRZ5ELWQ+SAsKMXhqqy1rbx7ZyxhvzmHk6pvoO/2QWThbFrcSkbnqFWk9e0KILUnNLlIBKRvFImL//O12XVfIBrkMEZ0iPvtOP4z+M91U1Mqm09AlF/U6JBvolmH+bf4/ZMl5rd0fMPso+s04oiUQ4qyuRlLm/Sz39B3m5+zAsNnOWHf4FrxCkzTLjBDy+6CIJXaHmJ2I7by490n7DYlWSuqt9JD8YqsRgu0sFu1lSCqx7N7KjU92gyX6JOd58UG49ewJ6VmIQ+9m17voM2kfPv7BEo2VTZ6xmyTFz45FrLlWydchSy7oQlkiMrKInrfzImJf5ljPnhBiayQqK5tlR6/6Y8Huy/h8uiP+7+ttaionNbOScizrDBlqMjdxnwrbPlMPou80Z8sw/5b/9558QO/d0lWg7fUiikW4SlaVRF+/WXEcW4/exw3fGKQYEU0IeTsoYoldkpFbjEnrT+uNRnY4e086oCk7FmdB+0wz1FrYjZbUwl5aL7NLz2/xvqt4mVVoPXNCehYNjc245x+nC0tx7tS2GNMOaX/H36bv2duQ+T5yzW2N7uiGlVksS0rjCc9AphIT8oGQmlQ3I2bn77qE8UuPYtAMR52Xci/+4zfb9BokwvbjH818NeL0t0MekyE+FhJpFdEqkV3JGhs59xB+WXsam1zvaqvAkooa608khLwtFLHELmlsasb+s17oN/WA3lAkTafPFCd1LrUsEu1wYbv1CYatuKrnIamFEpmRFMpj1wJYC0t6NOmvijF541ldTMoQ0TdgzjE1S7FPEeurhi+y8dZWIyeLYHFMDXmebj1rQsiHIqegHLefPsf+04+NoL2M71acwBgzPyUFeOC0A+g7eb+K014TzZCUY/NVskWkfc+gGU4YNe+wtsWbtOE01jnfwknPQITHZ6KmvsH6Ewgh7wpFLLFb4lNzMXv7BTVCkUWtpPgMENMX7SNpXy04pJZ31Lp7Wm8jDqyaWmiGpDZFJzO1kPRs6uobcc07EqPnu2iEQ7MvJh/A0CXn1fnTrkyerKJ7xIqr6DtNamEtDuQDzMJY2uoUlzNCQ0hXQIzlqmsbUFZZi6y8Uu1T73E3DLtOPMJKR0/NkpKWf3N3XNR79dL917Du0G2dx3f8nusapai0CpXV9epp0crNaEI6FYpYYrc0t7Ti7N1Q7SMp0RmJZoij4NCllzHOLBLtx+RJjtMXgxedN0J8Pz5REbsLg2c44daTWE2nJKSnU1xejZVONyxZCmaui/gTs5VRa+9Y5rpdzHc5Tosj8YBZR3XzTa5bsmE1ZdNZJGXkc6FLSBdFMqIqa+pRUFKJ7PwyZBphm/6qRDNFMnJLVOi+KizXVOH6RhoxEmJrKGKJXZNXXKGmL1Kn8uvC1kUdP+0iGquL7yeaBi0LckmL/kiar0/Yi23H7iO/uNJ6poQQMV/5cfVJrTWTuS7ZF2rytOGRXcz3L7c+1TTiIYvPWxxLzXyXWruRcw/D0ycazS0t1jMlhBBCyH+CIpbYPX4RL/H1smPq5CsRDYluWHpJ3rOkGXbRCI1Ej+T4JJIkURl1KDWLWqnx/XbFcUQmZYFBGUJ+pam5BYcvPdV6NJnvMtd7TT6AIYskrbhrm7rpsRkBO2z5FXUxlWOXOliJxK47dEtTFgkhhBDSMShiid0ji78TN4LQf4qD1pZZIjR7MXDuCYyR5uTbumCqoVXAjjFCe+CcE2oOIcctToZDZh3Ecc9ArcUhhPwjCen5WHbguvZPljICqSHvM9lR+zZ21fpYy2aajzoq/9oTdo+2CJu8/gyColOtZ0cIIYSQjkARS7oFKVmFWLb/GnpPskZoft5thOF+DJp3Sh1MLfWxXUTIioDd9kQNqKQpuhynCFg5blmQr3G+ibyiCuuZEUJ+i2QnPAxKwFdLj76phVchO9XZUg+/WeZYFxKyumHlixGrPNF/5pE3bsQy34fOdsaZO6FobW21nh0hhBBCOgJFLOkWtJhFoPR3m7PjokY5JE1PhOGb/rEbHnaZCI0chxzPYOkHa0S3HKcsav/6wy51N3yRWWA9K0JIe4jT5w2faHUrFiH7ph5+2mEMX34NXxgh2zWM3SxZIFKjP2C2pWSgzchpwFQHuF71V6MYQgghhPw+KGJJtyI8IRPTt3hoWrGk60ndmbTiGDTPHaPX3bcK2Q+1uLVEZEavvasR4l5GYH9mFbB//m6HWvTHvmA7HUI6Qk1dAy48CFd3ckktFhErG1iSrjt0ySVLavEHrJGVny0u6SKq+890NQLWUjIgEdg+k/fj4AVfFJdVW8+GEEIIIb8HiljS7fCPSsGEdae13swSodmjKbsDZh/TlL5xW7zfc1TWUv8qaY7DV5oF7eyjb2pgZUH75+92qvAOjcuwngEhpCNU1dRrPbzUkf/xG3Es3mNJLZ7ipBkYFnM3y/xrf27aYFh/3pgNDzFk8QXtBfvZhD349Oc92uNWSh52nXqIXDqPE0IIIW8NRSzpljwOTtBWHOL0+9EPFhdTTTeUKM2yS9Y62SfQthw2SjvUxbO+v1nQrn+gxjN9pjnrcUjNrkSPJGI8ccNp+EemoLWVVsSE/F4qquvUsXjQDCf88dvtVofy3Rr5HDDnuLavGrdZorJPbSpm38x38+9Ra25rvXtvaaNjjkWyLf5kjq3PpH3aEiw7v9R69IQQQgh5GyhiSbektaUVXiFJmLbZA/2mOKiYbVvcSkuOQfPPYOTqWxi78ZFlAbrNCFoVs+8qaCUKY4nESD/IMeb9pR5u0LzT6DXRQaNEljY6uzQiM3v7BTwNf4HGJvaHJORtKS6vxtFrARiz8Ag+MXNMzd1042qP1skOXXoRo9ff0zY8bZHSTtm8sr6XzHkRyrJZJQ7E/We66VyXzSqpz5cxdJYzdp54gPRXxdajJoQQQsjbQhFLui3NRsjGp+Ziw5E7GDzzID42wrGtj6ykF0vKoURLRGTq4taIzraF6ZvxX0Xtb16rrzePmfcZa95vxMobGDj3FHqbn2NxIDYC1vx8MaKRqNFWt3tq4tRijpMQ8m7UNzbhXkAcJm88iz6T9qtwlA0jMVMSA7W+010wZPF5i5g1gvNf5m+HNrB+83rrfNfNqg0PMHTZZfSbdVQ3ySQKLNFXOQb5+d8sO4azd0PZC5YQQgjpJChiSbfnVWE5zt4JxfjFR9VA6e8/79EFZlsbnj7TDmra4bBlV7TtzRdaM2uJqP7jAvefhvW5ttfqYtYskOV95P36TD1oEa/m5+iC1ojXv36/E98sP45zd8NQUFJlPUJCSGfQ0NiM6OQcbHG7j/5THfAXM99l7ul8/8Vi8tZ3hgsGLTitacZjNkgmRgfmugzr822vHbvJS9OGBy86h34zj+hmVZv7sIyPfhCzqT1YvO8q/CJeoqqWLsSEEEJIZ0ERS3oE0sbCJzQZS/dfRa9J+/B/32zTFGOLwJT+rHu1z2T/WW4YOPeEtr8ZtuyyphyLsBWTFkk9HrvxsX6V/4vb8YjVNzUCI6+X75Pvl/eRxeyn5n3l/eXniOlM38n7scLREz5hL8yCtsF6ZISQziYztxRnbofgh1UnjZDdqfWomoUhYtYMicz2m35Yzd4GznPH4MXnNQ141Jo7GlX97XyXkgD5/6i1dzBi5XUMWXIBg+af1o2qfjOMeDXCuO19RbzKRpnM99ELXHDwvC8S0vLMEbHenRBCCOlMKGJJjyLRLChPeAZqdGTkvEO6uP2/r7fhbz9ZBKcIz0/Mv0WESiRVattEnH4+75RZuLrr4lW+yv8HzjmBfjNd9XWWCIy8h+V95P3++M12XdCOnHdY+7+63wpBUgZ7wBLyPqhraMST8BfYd9oLUzae1dp4mett0Vmd6z9LKy4RtQ5q+tZ/1lEz30/+w3z/3HyVsgARvH2N8JV0YRWsP8kmmLyHJeoq7y0OxCKctxy9hzt+z1FSXmM9GkIIIYR0JhSxpEeSkl2okZpFe69g3CJX9JqwT6Mn0pbnL9/vsBpBWRao6iZsdRR+M37zmLxOXi+LY3kPGb0n7cOXS45iyb5rmsqclkMzF0I+BI2NzQiKScP+s96YsskDw+Y4q7GaiM4/f7tdHcLFCKrN+O0/zXe5Hkidq4hW2aBqE8Wfz3DEz2tOYYvbPTwMTlDHZEIIIYTYDopY0mN5/fo1isqqcOfpcyx38MRXS49h1LzD2nOy/1QxZ9mrZlAiaj/6N0PEq7xugHm9uI9K1PXb5cewyskTd/2eq2uq/BxCyIelqbkFSekFOHo9ANM3e2DsgiMYMfewmqxJqr+YQImg/XW+Swssy78tj+3UunbZoPp8uiOGzzmE0fNd8Mu600Yge+FZfKZGfwkhhBBieyhiSY+nsalZ0/7SXhXDL/KlRk63HbuPqRvPYtjsQ7po7S0GUPLVDP06Ub7u16jOtM1nsf34A5y7F4bAqFRk5JagtKJG35cQ0rWoqWtAYWkVElLzcD8wHkeu+GOlkye+W3kcA6cfQC/r3NZ5b53v8lj/KQfw5WI3zd5wOueLm74xiE7ORl5Rhdbcs88zIYQQ8v6giCXkN0jUtLKmDrmF5UhKz9foypOIF3gcnIh7AfEatZU2HvJ/qbeLSMhEckY+cs1CtsosZAkh9oNuYFXU6MbT85RcBMemwTs0GQ+DEnDX/znumPHACF3v0EQERKUi5kUOUnOKUWREcF1Dk/VdCCGEEPK+oYglhBBCCCGEEGI3UMQSQgghhBBCCLEbKGIJIYQQQgghhNgNFLGEEEIIIYQQQuwGilhCCCGEEEIIIXYDRSwhhBBCCCGEELuBIpYQQgghhBBCiN1AEUsIIYQQQgghxG6giCWEEEIIIYQQYjdQxBJCCCGEEEIIsRsoYgkhhBBCCCGE2A0UsYQQQgghhBBC7AaKWEIIIYQQQgghdgNFLCGEEEIIIYQQu4EilhBCCCGEEEKI3UARSwghhBBCCCHEbqCIJYQQQgghhBBiN1DEEkIIIYQQQgixGyhiCSGEEEIIIYTYDRSxhBBCCCGEEELsBopYQgghhBBCCCF2A0UsIYQQQgghhBC7gSKWEEIIIYQQQojdQBFLCCGEEEIIIcRuoIglhBBCCCGEEGI3UMQSQgghhBBCCLETgP8fuDbaCfpo+iYAAAAASUVORK5CYII=;" vertex="1" parent="1">
          <mxGeometry x="330" y="480" width="945" height="437" as="geometry" />
        </mxCell>
        <mxCell id="Bvynh8-Wegyuoy5LHT5m-2" value="a" style="text;html=1;strokeColor=none;fillColor=none;align=center;verticalAlign=middle;whiteSpace=wrap;rounded=0;" vertex="1" parent="1">
          <mxGeometry x="610" y="630" width="60" height="30" as="geometry" />
        </mxCell>
        <mxCell id="Bvynh8-Wegyuoy5LHT5m-4" value="b" style="text;html=1;strokeColor=none;fillColor=none;align=center;verticalAlign=middle;whiteSpace=wrap;rounded=0;" vertex="1" parent="1">
          <mxGeometry x="480" y="730" width="60" height="30" as="geometry" />
        </mxCell>
        <mxCell id="Bvynh8-Wegyuoy5LHT5m-5" value="c" style="text;html=1;strokeColor=none;fillColor=none;align=center;verticalAlign=middle;whiteSpace=wrap;rounded=0;" vertex="1" parent="1">
          <mxGeometry x="760" y="730" width="60" height="30" as="geometry" />
        </mxCell>
        <mxCell id="Bvynh8-Wegyuoy5LHT5m-6" value="d" style="text;html=1;strokeColor=none;fillColor=none;align=center;verticalAlign=middle;whiteSpace=wrap;rounded=0;" vertex="1" parent="1">
          <mxGeometry x="660" y="690" width="60" height="30" as="geometry" />
        </mxCell>
        <mxCell id="Bvynh8-Wegyuoy5LHT5m-7" value="e" style="text;html=1;strokeColor=none;fillColor=none;align=center;verticalAlign=middle;whiteSpace=wrap;rounded=0;" vertex="1" parent="1">
          <mxGeometry x="570" y="710" width="60" height="30" as="geometry" />
        </mxCell>
        <mxCell id="Bvynh8-Wegyuoy5LHT5m-8" value="f" style="text;html=1;strokeColor=none;fillColor=none;align=center;verticalAlign=middle;whiteSpace=wrap;rounded=0;" vertex="1" parent="1">
          <mxGeometry x="900" y="810" width="60" height="30" as="geometry" />
        </mxCell>
      </root>
    </mxGraphModel>
  </diagram>
</mxfile>
